<svg width="44" height="44" viewBox="0 0 44 44" fill="none" xmlns="http://www.w3.org/2000/svg">
<path d="M22 2C11.2305 2 2.5 10.7305 2.5 21.5C2.5 32.2695 11.2305 41 22 41C32.7695 41 41.5 32.2695 41.5 21.5C41.5 10.7305 32.7695 2 22 2ZM33.9501 33.4501C30.9869 36.4044 27.03 38.1497 22.8503 38.3459C18.6707 38.5421 14.5676 37.1752 11.3408 34.5114C8.11387 31.8477 5.99429 28.078 5.39501 23.9369C4.79573 19.7957 5.75968 15.5798 8.09903 12.1106C10.4384 8.64132 13.9856 6.1673 18.0494 5.17056C22.1132 4.17381 26.4026 4.72576 30.0817 6.71883C33.7608 8.71191 36.5661 12.0034 37.951 15.9518C39.3358 19.9003 39.2011 24.2229 37.5729 28.0774C36.7244 30.0859 35.494 31.9105 33.9501 33.4501Z" fill="#06739A"/>
<path d="M14.5 18H15.7692V19.2609H14.5V18ZM28.2308 18H29.5V19.2609H28.2308V18ZM27.3042 28.8088C25.8979 30.2115 23.9899 31 22 31C20.0101 31 18.1021 30.2115 16.6958 28.8088C15.5281 27.6441 14.7856 26.1352 14.5673 24.5217H29.4327C29.2144 26.1352 28.4719 27.6441 27.3042 28.8088Z" stroke="#06739A" stroke-width="2"/>
</svg>
