<svg width="44" height="44" viewBox="0 0 44 44" fill="none" xmlns="http://www.w3.org/2000/svg">
<path d="M23.5352 8.09091C29.5866 8.09091 34.3967 12.8818 34.3967 18.9091C34.3967 23.2364 31.9141 26.9455 28.1901 28.6455V35.9091H17.3286V31.2727H15.7769C14.0701 31.2727 12.6737 29.8818 12.6737 28.1818V23.5455H10.3462C9.72553 23.5455 9.26003 22.7727 9.72552 22.3091L12.6737 18.4455C12.984 12.5727 17.6389 8.09091 23.5352 8.09091ZM23.5352 5C16.3976 5 10.5013 10.2545 9.72552 17.2091L7.24289 20.4545C6.3119 21.6909 6.3119 23.2364 6.93256 24.4727C7.55322 25.5545 8.48421 26.3273 9.57036 26.4818V28.1818C9.57036 31.1182 11.5875 33.4364 14.2253 34.2091V39H31.2934V30.5C35.1725 27.8727 37.5 23.7 37.5 18.9091C37.5 11.1818 31.2934 5 23.5352 5ZM26.6385 17.3636L21.8284 26.6364L22.7594 20.4545H19.5009L22.7594 12.7273H26.6385L24.311 17.3636H26.6385Z" fill="#06739A"/>
</svg>
