<svg width="44" height="44" viewBox="0 0 44 44" fill="none" xmlns="http://www.w3.org/2000/svg">
<path fill-rule="evenodd" clip-rule="evenodd" d="M27.6268 11.6325C24.5063 11.6325 22.269 13.4799 20.8497 16.0044C19.4542 18.4832 18.8426 21.6131 18.8426 24.3657C18.8426 25.1546 19.1038 25.9726 19.3993 26.6703C19.7062 27.394 20.1043 28.1135 20.4879 28.7396C20.576 28.8848 20.6641 29.0248 20.7522 29.1606C20.8593 29.3277 20.9161 29.522 20.916 29.7204V39.7622C20.916 40.1925 21.3121 40.6611 21.9528 40.6611C22.5935 40.6611 22.9895 40.1925 22.9895 39.7622V30.2336C22.9895 27.1545 23.9993 24.0681 24.8463 21.4763L24.8701 21.4048C25.0205 20.9465 25.1646 20.5028 25.3004 20.0736C25.5181 19.3873 25.7441 18.7372 25.9743 18.1297C26.0528 17.9215 26.1963 17.7441 26.3834 17.6237C26.5706 17.5033 26.7916 17.4463 27.0136 17.4612C27.2356 17.4761 27.447 17.562 27.6164 17.7063C27.7859 17.8506 27.9044 18.0456 27.9544 18.2624L28.6967 21.4535C28.7745 21.7873 28.9735 22.034 29.2047 22.1605L33.9986 23.2315C34.0626 23.2459 34.1251 23.2664 34.1852 23.2926C34.5895 23.4679 35.1338 23.2926 35.3536 22.6965C35.5692 22.1087 35.3121 21.5136 34.9078 21.2762L31.0719 20.6085C30.8715 20.5736 30.6858 20.4804 30.5379 20.3407C30.3901 20.201 30.2866 20.0208 30.2404 19.8227L28.5215 12.4411C28.3971 11.9093 27.9907 11.6325 27.6268 11.6325ZM19.0427 14.9874C20.7025 12.0347 23.5317 9.55902 27.6268 9.55902C29.0627 9.55902 30.2238 10.6092 30.5411 11.9715L32.1045 18.6844L35.4096 19.2597C35.4907 19.2734 35.5697 19.2971 35.6449 19.3302C37.2052 20.0072 37.8729 21.8537 37.2985 23.4129C36.7252 24.9722 35.0426 25.8565 33.4605 25.2355L28.6356 24.1573C28.5716 24.1431 28.5091 24.123 28.449 24.0972C28.0575 23.9229 27.7065 23.6692 27.4181 23.3523C27.1297 23.0354 26.9103 22.662 26.7736 22.2559C25.9214 24.8623 25.063 27.5847 25.063 30.2336V39.7622C25.063 41.4697 23.6012 42.7345 21.9528 42.7345C20.3044 42.7345 18.8426 41.4697 18.8426 39.7622V30.0211C18.3254 29.2108 17.8734 28.3608 17.4907 27.479C17.1558 26.6911 16.7691 25.5683 16.7691 24.3657C16.7691 21.355 17.4316 17.8519 19.0427 14.9874ZM7.55978 7.5633C7.68895 7.32073 7.90915 7.13937 8.17199 7.05908C8.43482 6.97879 8.71878 7.00614 8.96145 7.13513L14.7444 10.209C14.9175 10.3012 15.061 10.4406 15.1581 10.611C15.2552 10.7815 15.302 10.976 15.293 11.1719C15.284 11.3679 15.2196 11.5572 15.1072 11.7181C14.9949 11.8789 14.8392 12.0045 14.6583 12.0804L12.8855 12.8227L16.1263 14.611C16.3629 14.746 16.5368 14.9687 16.6105 15.2309C16.6842 15.4931 16.6517 15.7737 16.5202 16.0122C16.3886 16.2507 16.1685 16.4278 15.9074 16.5053C15.6463 16.5828 15.3652 16.5544 15.1248 16.4263L10.0065 13.6023C9.83585 13.5081 9.69521 13.3678 9.6007 13.1974C9.50618 13.0269 9.46162 12.8333 9.47212 12.6387C9.48262 12.4441 9.54775 12.2564 9.66005 12.0971C9.77235 11.9379 9.92727 11.8135 10.107 11.7382L11.8384 11.0125L7.98899 8.966C7.86866 8.90213 7.76209 8.81518 7.67539 8.7101C7.58868 8.60502 7.52353 8.48388 7.48367 8.35361C7.44381 8.22334 7.43002 8.08649 7.44308 7.95088C7.45614 7.81527 7.49579 7.68357 7.55978 7.5633ZM7.26431 17.8301C7.37835 17.2495 7.9102 16.869 8.45138 16.981L12.252 17.7689C12.435 17.8098 12.6029 17.901 12.7367 18.0324C12.8705 18.1638 12.9647 18.33 13.0089 18.5123C13.1084 18.8938 13.0016 19.3074 12.73 19.5863L11.9037 20.4364L13.9129 20.959C14.4468 21.0979 14.7672 21.6764 14.6272 22.2518C14.4872 22.8272 13.9398 23.1807 13.4049 23.0418L9.64673 22.0631C9.47004 22.0137 9.31011 21.9172 9.18409 21.7839C9.05808 21.6506 8.97072 21.4854 8.93138 21.3063C8.84119 20.9299 8.95004 20.5287 9.21441 20.256L9.96501 19.4847L8.03461 19.0856C7.49447 18.9736 7.14924 18.4107 7.26431 17.8301ZM31.2834 7.48555C31.8333 7.48555 32.3607 7.26709 32.7496 6.87824C33.1384 6.48939 33.3569 5.962 33.3569 5.41208C33.3569 4.86216 33.1384 4.33476 32.7496 3.94591C32.3607 3.55706 31.8333 3.33861 31.2834 3.33861C30.7335 3.33861 30.2061 3.55706 29.8172 3.94591C29.4284 4.33476 29.2099 4.86216 29.2099 5.41208C29.2099 5.962 29.4284 6.48939 29.8172 6.87824C30.2061 7.26709 30.7335 7.48555 31.2834 7.48555ZM31.2834 9.55902C32.3832 9.55902 33.438 9.12211 34.2157 8.34441C34.9934 7.5667 35.4303 6.51191 35.4303 5.41208C35.4303 4.31224 34.9934 3.25745 34.2157 2.47975C33.438 1.70205 32.3832 1.26514 31.2834 1.26514C30.1835 1.26514 29.1288 1.70205 28.3511 2.47975C27.5734 3.25745 27.1364 4.31224 27.1364 5.41208C27.1364 6.51191 27.5734 7.5667 28.3511 8.34441C29.1288 9.12211 30.1835 9.55902 31.2834 9.55902Z" fill="#06739A"/>
</svg>
