<svg width="44" height="44" viewBox="0 0 44 44" fill="none" xmlns="http://www.w3.org/2000/svg">
<path d="M14.2357 4.67854C12.8522 4.7586 11.5545 5.37244 10.7894 6.859C9.94639 8.49102 10.0389 9.85214 10.4393 10.8917C10.8621 11.9886 11.647 12.7705 12.1967 13.1042C14.2449 14.3452 17.4744 16.0613 20.3181 17.5545L21.5576 18.2057C22.4918 18.6954 23.3481 19.1438 24.0511 19.5188C24.5532 19.7857 24.9866 20.0192 25.3196 20.206C25.613 20.3702 25.9301 20.553 26.1164 20.6998C26.3833 20.9066 26.6714 21.2082 26.83 21.6392C26.9938 22.0929 26.9542 22.5199 26.8564 22.8549C26.7639 23.1618 26.6146 23.426 26.497 23.6155C26.3965 23.7783 26.275 23.9531 26.1666 24.1119L26.1058 24.1986C25.6077 24.9272 25.0038 25.86 24.8135 27.432C24.6153 29.0733 24.7818 30.293 25.0157 31.5487L25.1254 32.1172C25.3434 33.2274 25.5878 34.4791 25.5878 35.9857C25.5878 36.6449 25.3725 37.3789 25.235 37.8499V37.8539L25.1901 38.0047C25.1293 38.2089 25.0804 38.3783 25.0408 38.5318C24.9959 38.708 24.9879 38.776 24.9879 38.776V38.7693C24.9825 38.8759 24.9982 38.9826 25.0342 39.0829C25.0438 39.1098 25.0607 39.1334 25.0831 39.151C25.1399 39.1977 25.3711 39.3311 25.9896 39.3311H33.3366C32.9074 39.2614 32.4851 39.1538 32.0746 39.0095C31.4181 38.7799 30.7817 38.4956 30.1718 38.1595C29.5058 37.7952 28.7579 37.3055 28.2227 36.6503C27.6479 35.9457 27.2753 34.9822 27.5885 33.8613C28.3813 31.0136 30.2458 24.5416 31.2923 21.6766C31.7826 20.2781 31.7866 19.3119 31.6504 18.6741C31.5587 18.1921 31.3257 17.7491 30.9818 17.4024L29.1874 15.8237L25.0448 12.1794C22.5838 10.0181 20.1286 7.85004 17.6792 5.67536C17.0542 5.1149 15.6932 4.5918 14.2357 4.67854ZM32.7419 15.4101L32.7644 15.4301L32.7855 15.4501C33.3802 16.0212 33.9748 16.8886 34.2351 18.1123C34.4941 19.332 34.4016 20.8092 33.7806 22.5773L33.7753 22.592C32.7723 25.3356 30.9342 31.7088 30.1322 34.5845C30.1097 34.6619 30.0912 34.7433 30.2617 34.9515C30.4718 35.2091 30.8616 35.5013 31.4311 35.8122C31.9293 36.0858 32.4499 36.3193 32.9243 36.4821C33.4172 36.6516 33.7779 36.7143 33.9814 36.7143H34.021L34.0633 36.717C34.5826 36.7503 35.1548 36.9799 35.6094 37.3789C36.1023 37.8099 36.5 38.4811 36.5 39.3525C36.5 40.0864 36.2542 40.7897 35.7151 41.3034C35.1878 41.8065 34.5153 42 33.8876 42H25.9896C25.0738 42 24.1436 41.8158 23.4221 41.2287C22.6504 40.5988 22.3464 39.6968 22.3464 38.7693C22.3464 38.4384 22.4218 38.1048 22.4812 37.8699C22.5482 37.6112 22.6209 37.354 22.6993 37.0986C22.8605 36.5448 22.945 36.1912 22.945 35.9857C22.945 34.758 22.7548 33.7799 22.5394 32.6736L22.4191 32.0438C22.1614 30.664 21.9447 29.1374 22.1905 27.1077C22.4574 24.8966 23.3481 23.5341 23.9348 22.6801L24.0074 22.5733L24.0312 22.5373C23.6295 22.3139 23.2256 22.0946 22.8195 21.8794C22.1231 21.5098 21.2788 21.0654 20.3485 20.5783L19.0984 19.9231C16.272 18.4379 12.9671 16.6844 10.837 15.3927C9.81029 14.7709 8.62235 13.5352 7.97618 11.8591C7.30887 10.127 7.23884 7.96258 8.44528 5.62465C9.72704 3.13994 11.9721 2.13778 14.0811 2.01367C16.116 1.89357 18.2012 2.57414 19.4354 3.68172C20.3577 4.50907 23.6811 7.43815 26.7811 10.1671C28.7674 11.9159 30.7543 13.664 32.7419 15.4114C32.4605 15.1632 32.7446 15.4127 32.7419 15.4114" fill="#06739A"/>
</svg>
