<svg width="36" height="36" viewBox="0 0 36 36" fill="none" xmlns="http://www.w3.org/2000/svg">
<path d="M25.115 18.4712C25.115 17.846 25.3633 17.2465 25.8053 16.8044C26.2474 16.3624 26.8469 16.114 27.4721 16.114C28.0973 16.114 28.6968 16.3624 29.1389 16.8044C29.5809 17.2465 29.8292 17.846 29.8292 18.4712C29.8292 19.0963 29.5809 19.6959 29.1389 20.1379C28.6968 20.58 28.0973 20.8283 27.4721 20.8283C26.8469 20.8283 26.2474 20.58 25.8053 20.1379C25.3633 19.6959 25.115 19.0963 25.115 18.4712ZM15.6864 18.4712C15.6864 17.846 15.9347 17.2465 16.3768 16.8044C16.8188 16.3624 17.4184 16.114 18.0435 16.114C18.6687 16.114 19.2682 16.3624 19.7103 16.8044C20.1523 17.2465 20.4007 17.846 20.4007 18.4712C20.4007 19.0963 20.1523 19.6959 19.7103 20.1379C19.2682 20.58 18.6687 20.8283 18.0435 20.8283C17.4184 20.8283 16.8188 20.58 16.3768 20.1379C15.9347 19.6959 15.6864 19.0963 15.6864 18.4712ZM6.25781 18.4712C6.25781 17.846 6.50615 17.2465 6.9482 16.8044C7.39025 16.3624 7.9898 16.114 8.61496 16.114C9.24011 16.114 9.83966 16.3624 10.2817 16.8044C10.7238 17.2465 10.9721 17.846 10.9721 18.4712C10.9721 19.0963 10.7238 19.6959 10.2817 20.1379C9.83966 20.58 9.24011 20.8283 8.61496 20.8283C7.9898 20.8283 7.39025 20.58 6.9482 20.1379C6.50615 19.6959 6.25781 19.0963 6.25781 18.4712Z" fill="#06739A"/>
<rect x="1.25" y="1.25" width="33.5" height="33.5" rx="16.75" stroke="#06739A" stroke-width="2.5"/>
</svg>
