<svg width="35" height="42" viewBox="0 0 35 42" fill="none"
    xmlns="http://www.w3.org/2000/svg">
    <g opacity="0.5" clip-path="url(#clip0_1784_23806)">
        <path d="M32.5985 21.8868L25.861 18.1651V14.8168C25.1359 14.3631 24.4788 13.7677 23.9166 13.0551V18.1768L17.5971 21.6768L11.2777 18.1768V9.33342L17.1888 12.6001C17.3168 12.6712 17.4561 12.708 17.5971 12.708C17.7381 12.708 17.8775 12.6712 18.0054 12.6001L22.361 10.1734C22.1146 9.42659 21.9606 8.64047 21.9041 7.84009L17.5582 10.1734L12.6388 7.50175L17.5971 4.76009L21.9138 7.09342C21.9138 7.09342 21.9138 7.02342 21.9138 6.98842C21.9139 6.20005 22.0022 5.41527 22.1763 4.65509L17.9957 2.32176C17.8677 2.25068 17.7284 2.21387 17.5874 2.21387C17.4464 2.21387 17.307 2.25068 17.1791 2.32176L9.88738 6.34676C9.71863 6.44048 9.57581 6.59031 9.47586 6.77848C9.37591 6.96665 9.32304 7.18528 9.3235 7.40842V18.0718L2.61516 21.7818C2.4464 21.8755 2.30358 22.0253 2.20364 22.2135C2.10369 22.4017 2.05081 22.6203 2.05127 22.8434V34.2534C2.05081 34.4766 2.10369 34.6952 2.20364 34.8834C2.30358 35.0715 2.4464 35.2214 2.61516 35.3151L9.90683 39.3401C10.0348 39.4112 10.1741 39.448 10.3152 39.448C10.4562 39.448 10.5955 39.4112 10.7235 39.3401L17.6068 35.5368L24.4902 39.3401C24.6181 39.4112 24.7575 39.448 24.8985 39.448C25.0395 39.448 25.1789 39.4112 25.3068 39.3401L32.5985 35.3151C32.7673 35.2214 32.9101 35.0715 33.01 34.8834C33.11 34.6952 33.1628 34.4766 33.1624 34.2534V22.9484C33.1628 22.7253 33.11 22.5067 33.01 22.3185C32.9101 22.1303 32.7673 21.9805 32.5985 21.8868ZM10.3054 20.1951L15.2735 22.9368L10.3054 25.6668L5.33738 22.9484L10.3054 20.1951ZM10.3054 37.1001L3.98599 33.6001V24.7684L9.89711 28.0001C10.0224 28.0677 10.1583 28.1027 10.2957 28.1027C10.4331 28.1027 10.569 28.0677 10.6943 28.0001L16.6054 24.7334V33.6001L10.3054 37.1001ZM24.8888 20.2068L29.8568 22.9484L24.8985 25.6668L19.9304 22.9484L24.8888 20.2068ZM24.8888 37.1118L18.5596 33.6118V24.7568L24.4902 28.0001C24.6142 28.066 24.7483 28.1 24.8839 28.1C25.0195 28.1 25.1537 28.066 25.2777 28.0001L31.1888 24.7334V33.6118L24.8888 37.1118Z" fill="currentColor" stroke="currentColor" stroke-width="0.7"/>
        <path d="M29.1956 12.8683C31.8803 12.8683 34.0567 10.2567 34.0567 7.03499C34.0567 3.81333 31.8803 1.20166 29.1956 1.20166C26.5109 1.20166 24.3345 3.81333 24.3345 7.03499C24.3345 10.2567 26.5109 12.8683 29.1956 12.8683Z" fill="currentColor"/>
    </g>
    <defs>
        <clipPath id="clip0_1784_23806">
            <rect width="35" height="42" fill="currentColor"/>
        </clipPath>
    </defs>
</svg>
