<svg width="35" height="43" viewBox="0 0 35 43" fill="none"
    xmlns="http://www.w3.org/2000/svg">
    <g opacity="0.5">
        <path d="M16.988 42L17.8233 41.0844C18.4078 40.4441 32.1306 25.2929 32.0832 15.3801C32.0455 7.38245 25.2859 0.875 17.0138 0.875C8.70415 0.875 1.94446 7.38342 1.94446 15.384C1.94446 25.2929 15.5758 40.4412 16.156 41.0806L16.988 42ZM17.0138 2.80657C24.104 2.80657 29.8982 8.45061 29.9305 15.3888C29.9681 23.2677 19.9847 35.4414 16.9934 38.9095C14.0183 35.4375 4.09723 23.2648 4.09723 15.384C4.09723 8.44868 9.8914 2.80657 17.0138 2.80657Z" fill="currentColor" stroke="currentColor" stroke-width="0.5"/>
        <path fill-rule="evenodd" clip-rule="evenodd" d="M17.8863 7.81499C18.16 8.51826 18.2311 9.25077 18.23 10.0029C18.2256 11.341 17.9848 12.6499 17.6663 13.949C17.6608 13.9783 17.6455 14.0076 17.6269 14.0564C17.5886 13.9783 17.8929 11.6341 17.8403 10.5108C17.8031 9.72939 17.6893 8.94799 17.3357 8.21543C16.9056 7.31681 16.1394 6.82847 15.0722 6.69173C14.0586 6.55498 12.9531 6.67221 12.0008 7.00431L11.9515 7.01404C12.7484 6.5745 13.3427 6.2424 14.5588 6.13496C15.1356 6.08612 15.985 6.10562 16.6341 6.43771C17.2832 6.76981 17.7331 7.41452 17.8863 7.81499Z" fill="currentColor" stroke="currentColor" stroke-width="0.3"/>
        <path fill-rule="evenodd" clip-rule="evenodd" d="M9.52196 10.0647C9.52196 10.0647 9.57 10.4836 9.60167 10.6883C9.7611 11.7407 10.2132 12.6858 10.8891 13.5433C11.7976 14.7029 12.99 15.5604 14.3845 16.2133C15.0484 16.5251 15.7003 16.8467 16.3544 17.178C16.48 17.2365 16.5313 17.2169 16.6023 17.1195C17.4059 15.9307 18.2096 14.7517 19.0242 13.5823C19.8083 12.4423 20.7867 11.4679 22.0359 10.7273C22.7468 10.3083 23.4107 10.0452 24.2613 9.90873C24.3978 9.88925 24.6566 9.87952 24.7025 9.87952C24.6086 9.87952 24.7538 9.87952 24.7025 9.87952C24.4568 9.96722 24.2471 10.0257 24.0495 10.1134C22.999 10.5909 22.1484 11.2924 21.3512 12.0525C20.5333 12.832 19.9055 13.7285 19.3114 14.6542C18.6846 15.6189 18.0458 16.5738 17.407 17.5385C17.3317 17.6554 17.3361 17.6945 17.4737 17.7627C18.2522 18.1524 19.0242 18.5519 19.722 19.0488C20.1599 19.3704 20.565 19.7115 20.8456 20.1597C21.1656 20.6664 21.1874 21.1829 20.8577 21.7188C20.8784 20.9685 20.3237 20.5495 19.7941 20.1305C19.1171 19.5946 18.3429 19.1755 17.5621 18.776C17.3601 18.6688 17.1537 18.5714 16.9528 18.4642C16.8709 18.4155 16.8207 18.4155 16.7617 18.4935C15.0233 20.8906 12.479 22.1573 9.42149 22.7127C9.13103 22.7712 8.83621 22.8005 8.54138 22.8297C8.25528 22.8687 7.96591 22.8784 7.68091 22.8784C7.68091 22.8784 8.00741 22.7906 8.17339 22.7517C9.78403 22.3522 11.2757 21.7188 12.6723 20.9101C13.6944 20.3157 14.6171 19.6238 15.3847 18.7663C15.5867 18.5519 15.7713 18.318 15.9471 18.0744C16.0104 17.9867 15.9973 17.9576 15.8979 17.9088C15.1478 17.5288 14.4041 17.1487 13.6529 16.7784C12.1765 16.0574 11.0616 15.005 10.2285 13.709C9.74799 12.9587 9.42914 12.1597 9.3527 11.2827C9.33195 11.0586 9.33852 10.7273 9.39312 10.4447C9.43024 10.2693 9.52196 10.0647 9.52196 10.0647Z" fill="currentColor"/>
        <path d="M24.7025 9.87952C24.6566 9.87952 24.3978 9.88924 24.2613 9.90873C23.4107 10.0452 22.7468 10.3083 22.0359 10.7273C20.7867 11.4679 19.8083 12.4423 19.0242 13.5823C18.2096 14.7517 17.4059 15.9307 16.6023 17.1195C16.5313 17.2169 16.48 17.2365 16.3544 17.178C15.7003 16.8467 15.0484 16.5251 14.3845 16.2133C12.99 15.5604 11.7976 14.7029 10.8891 13.5433C10.2132 12.6858 9.7611 11.7407 9.60167 10.6883C9.57 10.4836 9.52196 10.0647 9.52196 10.0647C9.52196 10.0647 9.43024 10.2693 9.39312 10.4447C9.33852 10.7273 9.33195 11.0586 9.3527 11.2827C9.42914 12.1597 9.74799 12.9587 10.2285 13.709C11.0616 15.005 12.1765 16.0574 13.6529 16.7784C14.4041 17.1487 15.1478 17.5288 15.8979 17.9088C15.9973 17.9576 16.0104 17.9867 15.9471 18.0744C15.7713 18.318 15.5867 18.5519 15.3847 18.7663C14.6171 19.6238 13.6944 20.3157 12.6723 20.9101C11.2757 21.7188 9.78403 22.3522 8.17339 22.7517C8.00741 22.7906 7.68091 22.8784 7.68091 22.8784C7.96591 22.8784 8.25528 22.8687 8.54138 22.8297C8.83621 22.8005 9.13103 22.7712 9.42149 22.7127C12.479 22.1573 15.0233 20.8906 16.7617 18.4935C16.8207 18.4155 16.8709 18.4155 16.9528 18.4642C17.1537 18.5714 17.3601 18.6688 17.5621 18.776C18.3429 19.1755 19.1171 19.5946 19.7941 20.1305C20.3237 20.5495 20.8784 20.9685 20.8577 21.7188C21.1874 21.1829 21.1656 20.6664 20.8456 20.1597C20.565 19.7115 20.1599 19.3704 19.722 19.0488C19.0242 18.5519 18.2522 18.1524 17.4737 17.7627C17.3361 17.6945 17.3317 17.6554 17.407 17.5385C18.0458 16.5738 18.6846 15.6189 19.3114 14.6542C19.9055 13.7285 20.5333 12.832 21.3512 12.0525C22.1484 11.2924 22.999 10.5909 24.0495 10.1134C24.2471 10.0257 24.4568 9.96722 24.7025 9.87952ZM24.7025 9.87952C24.6086 9.87952 24.7538 9.87952 24.7025 9.87952Z" stroke="currentColor" stroke-width="0.3"/>
        <path fill-rule="evenodd" clip-rule="evenodd" d="M20.332 16.0027C20.6263 15.993 20.9696 16.061 21.3183 16.0805C21.8807 16.1194 22.4028 16.0026 22.8496 15.7011C23.2191 15.4385 23.4491 15.1079 23.376 14.6605C23.363 14.5827 23.3357 14.5049 23.2856 14.4368C23.0022 14.0283 23.1799 13.542 23.4545 13.2989C23.8033 12.9876 24.3482 12.9001 24.7842 13.1043C25.3215 13.3669 25.6114 13.7852 25.7259 14.3007C25.8588 14.9134 25.7237 15.497 25.3171 16.0027C25.049 16.3431 24.6327 16.45 24.2065 16.5278C23.5984 16.6348 22.975 16.6932 22.3832 16.8682C21.8077 17.0433 21.2769 17.3059 20.7418 17.5588C20.466 17.6852 20.1958 17.8408 19.8775 17.8797C19.4099 17.9381 19.0394 17.7922 18.8377 17.4712C18.6416 17.16 18.7091 16.7321 18.9925 16.4306C19.3315 16.0707 19.787 15.993 20.332 16.0027Z" fill="currentColor" stroke="currentColor" stroke-width="0.3"/>
        <path fill-rule="evenodd" clip-rule="evenodd" d="M11.9328 11.4847C11.9568 10.4709 12.7204 9.62287 13.7483 9.42791C14.4573 9.29144 15.1192 9.6813 15.2219 10.2954C15.2809 10.6463 15.0886 11.085 14.7391 11.2118C14.0575 11.4652 13.9209 12.1573 14.2235 12.7519C14.4638 13.2101 14.8658 13.5318 15.365 13.7657C15.7594 13.9509 16.1548 14.1361 16.4563 14.4481C16.7949 14.7892 16.8943 15.1889 16.7054 15.608C16.453 16.1831 15.7124 16.3196 15.1793 15.9004C15.0002 15.764 14.8778 15.5787 14.7719 15.3935C14.5578 15.0231 14.3458 14.643 14.1241 14.2628C13.8193 13.7559 13.4031 13.327 12.9454 12.9273C12.7095 12.7129 12.4746 12.5082 12.2714 12.2742C12.0606 12.0305 11.9164 11.7576 11.9328 11.4847Z" fill="currentColor" stroke="currentColor" stroke-width="0.3"/>
        <path fill-rule="evenodd" clip-rule="evenodd" d="M20.2952 18.3338C21.2515 18.3338 22.2133 18.2948 23.1674 18.1487C24.3705 17.9734 25.5189 17.6616 26.5648 17.0771C27.5233 16.5413 28.0997 15.7814 28.3857 14.817C28.6805 13.8233 28.6849 12.8393 28.2373 11.8749C27.9687 11.3001 27.5561 10.8228 27.032 10.4039C26.9982 10.3844 26.8945 10.2967 26.8606 10.2675C27.1401 10.3941 27.4349 10.5695 27.6532 10.7449C28.3486 11.3099 28.7744 12.021 28.9949 12.8199C29.2766 13.8428 29.2242 14.8559 28.746 15.8301C28.294 16.7556 27.4774 17.3499 26.4742 17.759C25.5277 18.139 24.5211 18.3143 23.4906 18.3825C22.496 18.4604 21.5026 18.4506 20.5091 18.363C20.4382 18.3532 20.3661 18.3435 20.2952 18.3338Z" fill="currentColor" stroke="currentColor" stroke-width="0.3"/>
        <path fill-rule="evenodd" clip-rule="evenodd" d="M14.3165 17.7052C12.8147 17.7246 11.3325 17.8604 9.90462 18.3065C8.63756 18.7041 7.54221 19.3247 6.73807 20.3138C6.51856 20.5756 6.35013 20.8665 6.21973 21.1768C6.23059 20.9246 6.31317 20.6822 6.42945 20.4495C6.95322 19.4216 7.8356 18.704 8.97226 18.2386C9.77966 17.9089 10.636 17.744 11.5151 17.6568C12.3649 17.5792 13.3994 17.6179 13.7438 17.6373C13.8297 17.647 14.3165 17.7052 14.3165 17.7052Z" fill="currentColor" stroke="currentColor" stroke-width="0.3"/>
        <path fill-rule="evenodd" clip-rule="evenodd" d="M20.4931 22.1182C20.4931 22.1182 20.0776 22.4667 19.5515 22.6409C18.7651 22.8926 17.9646 22.9797 17.1457 22.7861C16.4569 22.6312 16.0631 22.2247 15.9644 21.6052C15.9037 21.218 15.9406 20.8308 16.0469 20.4437C16.0371 20.7534 16.0675 21.0632 16.1987 21.3536C16.5111 22.0505 17.1283 22.3795 17.9332 22.4376C18.7781 22.486 19.1947 22.4473 19.6817 22.3505C20.1698 22.2441 20.4931 22.1182 20.4931 22.1182Z" fill="currentColor" stroke="currentColor" stroke-width="0.3"/>
        <path fill-rule="evenodd" clip-rule="evenodd" d="M24.8407 11.3337C24.4949 11.3337 24.2221 11.5674 24.2199 11.8595C24.2188 12.1613 24.4818 12.4047 24.8047 12.4145C25.1397 12.4145 25.4256 12.1711 25.4289 11.8789C25.431 11.5868 25.1648 11.3435 24.8407 11.3337ZM23.958 11.8789C23.9548 11.4408 24.3367 11.1 24.8211 11.1C25.3001 11.1 25.6864 11.4408 25.6875 11.8595C25.6907 12.2879 25.3143 12.6385 24.8407 12.6482C24.3519 12.6482 23.9591 12.3171 23.958 11.8789Z" fill="currentColor" stroke="currentColor" stroke-width="0.3"/>
        <path fill-rule="evenodd" clip-rule="evenodd" d="M15.0359 8.94383C15.3661 8.93407 15.6395 8.69988 15.6395 8.40713C15.6395 8.11439 15.353 7.85096 15.0304 7.86072C14.7013 7.87048 14.4301 8.10467 14.4268 8.39741C14.4235 8.69016 14.7024 8.94383 15.0359 8.94383ZM15.8976 8.41685C15.891 8.84621 15.5039 9.17801 15.0118 9.16825C14.5383 9.16825 14.1643 8.81696 14.1676 8.3876C14.172 7.968 14.5591 7.62649 15.0359 7.62649C15.5236 7.63625 15.903 7.97774 15.8976 8.41685Z" fill="currentColor" stroke="currentColor" stroke-width="0.3"/>
        <path fill-rule="evenodd" clip-rule="evenodd" d="M26.3463 12.2821C26.6145 12.2821 26.8348 12.4863 26.8283 12.7296C26.8239 12.9631 26.6069 13.148 26.3431 13.1577C26.0792 13.1577 25.8524 12.9534 25.8502 12.7199C25.8481 12.4766 26.0738 12.2821 26.3463 12.2821Z" fill="currentColor" stroke="currentColor" stroke-width="0.3"/>
        <path fill-rule="evenodd" clip-rule="evenodd" d="M13.7299 8.29523C13.7321 8.53915 13.5123 8.74404 13.2422 8.73428C12.9733 8.73428 12.7612 8.53919 12.7644 8.28551C12.7666 8.05135 12.9897 7.85614 13.263 7.8659C13.5232 7.8659 13.7299 8.06107 13.7299 8.29523Z" fill="currentColor" stroke="currentColor" stroke-width="0.3"/>
        <path fill-rule="evenodd" clip-rule="evenodd" d="M12.5469 8.86769C12.5458 9.04324 12.3688 9.19926 12.1753 9.18951C11.9753 9.18951 11.8038 9.03343 11.8114 8.85788C11.8191 8.68234 11.9863 8.53607 12.1753 8.53607C12.3764 8.53607 12.5502 8.69215 12.5469 8.86769Z" fill="currentColor" stroke="currentColor" stroke-width="0.3"/>
        <path fill-rule="evenodd" clip-rule="evenodd" d="M27.2061 13.7283C27.2082 13.9033 27.035 14.0588 26.8378 14.0588C26.646 14.0588 26.475 13.913 26.4684 13.7477C26.4619 13.5727 26.633 13.4074 26.8302 13.4074C27.0252 13.3977 27.2028 13.5533 27.2061 13.7283Z" fill="currentColor" stroke="currentColor" stroke-width="0.3"/>
        <path fill-rule="evenodd" clip-rule="evenodd" d="M26.7809 14.359C26.9541 14.359 27.1076 14.5048 27.1098 14.6505C27.112 14.8157 26.953 14.9614 26.7711 14.9517C26.5947 14.9517 26.4488 14.8157 26.4456 14.6602C26.4445 14.495 26.5958 14.359 26.7809 14.359Z" fill="currentColor" stroke="currentColor" stroke-width="0.3"/>
        <path fill-rule="evenodd" clip-rule="evenodd" d="M11.9546 9.64361C11.9546 9.80931 11.8148 9.93603 11.6324 9.93603C11.4445 9.94578 11.2883 9.80931 11.2927 9.64361C11.2971 9.48765 11.4489 9.35118 11.628 9.35118C11.8094 9.35118 11.9546 9.48765 11.9546 9.64361Z" fill="currentColor" stroke="currentColor" stroke-width="0.3"/>
        <path fill-rule="evenodd" clip-rule="evenodd" d="M11.6655 10.4824C11.6633 10.6285 11.5378 10.7455 11.373 10.7358C11.1972 10.7358 11.0727 10.6286 11.0782 10.4727C11.0825 10.3266 11.2245 10.2096 11.3773 10.2193C11.5334 10.2193 11.6677 10.346 11.6655 10.4824Z" fill="currentColor" stroke="currentColor" stroke-width="0.3"/>
        <path fill-rule="evenodd" clip-rule="evenodd" d="M26.4444 15.2045C26.6033 15.2045 26.7394 15.3308 26.7394 15.4668C26.7383 15.6027 26.6023 15.729 26.4444 15.729C26.2736 15.729 26.1452 15.6124 26.1495 15.457C26.1528 15.3113 26.2779 15.2045 26.4444 15.2045Z" fill="currentColor" stroke="currentColor" stroke-width="0.3"/>
    </g>
</svg>
