<svg width="69" height="68" viewBox="0 0 69 68" fill="none" xmlns="http://www.w3.org/2000/svg">
<g filter="url(#filter0_d_1252_21678)">
<circle cx="34.875" cy="34" r="28" fill="white"/>
</g>
<path d="M41.9953 25.2798C41.6789 25.2798 41.3695 25.3737 41.1064 25.5495C40.8433 25.7253 40.6382 25.9752 40.5171 26.2675C40.396 26.5599 40.3643 26.8816 40.4261 27.192C40.4878 27.5024 40.6402 27.7874 40.864 28.0112C41.0877 28.235 41.3728 28.3874 41.6832 28.4491C41.9935 28.5108 42.3153 28.4791 42.6076 28.358C42.9 28.2369 43.1499 28.0319 43.3257 27.7687C43.5015 27.5056 43.5953 27.1963 43.5953 26.8798C43.5953 26.4555 43.4268 26.0485 43.1267 25.7485C42.8266 25.4484 42.4197 25.2798 41.9953 25.2798ZM48.1287 28.5065C48.1027 27.4002 47.8955 26.3057 47.5153 25.2665C47.1763 24.3773 46.6486 23.5722 45.9687 22.9065C45.3084 22.2231 44.5014 21.6987 43.6087 21.3732C42.5722 20.9814 41.4765 20.7695 40.3687 20.7465C38.9553 20.6665 38.502 20.6665 34.8753 20.6665C31.2487 20.6665 30.7953 20.6665 29.382 20.7465C28.2742 20.7695 27.1784 20.9814 26.142 21.3732C25.2509 21.702 24.4446 22.2259 23.782 22.9065C23.0986 23.5667 22.5742 24.3738 22.2487 25.2665C21.8569 26.303 21.6449 27.3987 21.622 28.5065C21.542 29.9198 21.542 30.3732 21.542 33.9998C21.542 37.6265 21.542 38.0798 21.622 39.4932C21.6449 40.601 21.8569 41.6967 22.2487 42.7332C22.5742 43.6259 23.0986 44.4329 23.782 45.0932C24.4446 45.7738 25.2509 46.2976 26.142 46.6265C27.1784 47.0183 28.2742 47.2302 29.382 47.2532C30.7953 47.3332 31.2487 47.3332 34.8753 47.3332C38.502 47.3332 38.9553 47.3332 40.3687 47.2532C41.4765 47.2302 42.5722 47.0183 43.6087 46.6265C44.5014 46.3009 45.3084 45.7766 45.9687 45.0932C46.6516 44.4299 47.1798 43.6241 47.5153 42.7332C47.8955 41.694 48.1027 40.5994 48.1287 39.4932C48.1287 38.0798 48.2087 37.6265 48.2087 33.9998C48.2087 30.3732 48.2087 29.9198 48.1287 28.5065ZM45.7287 39.3332C45.7189 40.1795 45.5657 41.0181 45.2753 41.8132C45.0624 42.3934 44.7205 42.9177 44.2753 43.3465C43.8429 43.7872 43.3196 44.1284 42.742 44.3465C41.9469 44.6368 41.1084 44.7901 40.262 44.7998C38.9287 44.8665 38.4353 44.8798 34.9287 44.8798C31.422 44.8798 30.9287 44.8798 29.5953 44.7998C28.7165 44.8163 27.8415 44.681 27.0087 44.3998C26.4564 44.1706 25.9571 43.8302 25.542 43.3998C25.0994 42.9715 24.7618 42.4468 24.5553 41.8665C24.2298 41.06 24.0492 40.2024 24.022 39.3332C24.022 37.9998 23.942 37.5065 23.942 33.9998C23.942 30.4932 23.942 29.9998 24.022 28.6665C24.028 27.8012 24.1859 26.9438 24.4887 26.1332C24.7234 25.5704 25.0837 25.0687 25.542 24.6665C25.9471 24.2081 26.4477 23.844 27.0087 23.5998C27.8214 23.3066 28.678 23.1533 29.542 23.1465C30.8753 23.1465 31.3687 23.0665 34.8753 23.0665C38.382 23.0665 38.8753 23.0665 40.2087 23.1465C41.055 23.1562 41.8936 23.3095 42.6887 23.5998C43.2946 23.8247 43.8384 24.1903 44.2753 24.6665C44.7123 25.0761 45.0537 25.5768 45.2753 26.1332C45.5717 26.9451 45.725 27.8022 45.7287 28.6665C45.7953 29.9998 45.8087 30.4932 45.8087 33.9998C45.8087 37.5065 45.7953 37.9998 45.7287 39.3332ZM34.8753 27.1598C33.5231 27.1625 32.2019 27.5659 31.0789 28.3191C29.9558 29.0723 29.0812 30.1414 28.5655 31.3915C28.0498 32.6416 27.9163 34.0165 28.1817 35.3424C28.4471 36.6684 29.0996 37.8859 30.0568 38.8411C31.0139 39.7964 32.2327 40.4465 33.5591 40.7094C34.8856 40.9722 36.2602 40.836 37.5093 40.3179C38.7584 39.7998 39.8258 38.9231 40.5768 37.7985C41.3278 36.674 41.7287 35.3521 41.7287 33.9998C41.7304 33.1 41.5543 32.2086 41.2103 31.3771C40.8664 30.5456 40.3614 29.7902 39.7245 29.1546C39.0876 28.5189 38.3313 28.0154 37.4991 27.6731C36.6669 27.3307 35.7752 27.1563 34.8753 27.1598ZM34.8753 38.4398C33.9972 38.4398 33.1387 38.1794 32.4086 37.6916C31.6784 37.2037 31.1094 36.5103 30.7733 35.699C30.4372 34.8876 30.3493 33.9949 30.5206 33.1336C30.692 32.2724 31.1148 31.4812 31.7358 30.8603C32.3567 30.2393 33.1478 29.8165 34.0091 29.6452C34.8704 29.4738 35.7631 29.5618 36.5744 29.8978C37.3857 30.2339 38.0792 30.8029 38.567 31.5331C39.0549 32.2633 39.3153 33.1217 39.3153 33.9998C39.3153 34.5829 39.2005 35.1603 38.9774 35.699C38.7542 36.2376 38.4272 36.7271 38.0149 37.1394C37.6026 37.5517 37.1131 37.8787 36.5744 38.1019C36.0358 38.325 35.4584 38.4398 34.8753 38.4398Z" fill="#00719B"/>
<defs>
<filter id="filter0_d_1252_21678" x="0.875" y="0" width="68" height="68" filterUnits="userSpaceOnUse" color-interpolation-filters="sRGB">
<feFlood flood-opacity="0" result="BackgroundImageFix"/>
<feColorMatrix in="SourceAlpha" type="matrix" values="0 0 0 0 0 0 0 0 0 0 0 0 0 0 0 0 0 0 127 0" result="hardAlpha"/>
<feOffset/>
<feGaussianBlur stdDeviation="3"/>
<feComposite in2="hardAlpha" operator="out"/>
<feColorMatrix type="matrix" values="0 0 0 0 0 0 0 0 0 0.443137 0 0 0 0 0.607843 0 0 0 0.23 0"/>
<feBlend mode="normal" in2="BackgroundImageFix" result="effect1_dropShadow_1252_21678"/>
<feBlend mode="normal" in="SourceGraphic" in2="effect1_dropShadow_1252_21678" result="shape"/>
</filter>
</defs>
</svg>
