<svg width="69" height="68" viewBox="0 0 69 68" fill="none" xmlns="http://www.w3.org/2000/svg">
<g filter="url(#filter0_d_1252_21682)">
<circle cx="34.875" cy="34" r="28" fill="white"/>
</g>
<path d="M48.875 33.9344C48.875 34.0031 48.875 34.0813 48.8719 34.1719C48.8688 34.425 48.8625 34.7094 48.8563 35.0125C48.8313 35.8844 48.7875 36.7531 48.7188 37.5719C48.625 38.7 48.4875 39.6406 48.3 40.3469C48.1021 41.0839 47.7143 41.7561 47.1752 42.2963C46.6362 42.8364 45.9648 43.2256 45.2281 43.425C44.3438 43.6625 42.6125 43.8094 40.175 43.9C39.0156 43.9438 37.775 43.9719 36.5344 43.9875C36.1 43.9938 35.6969 43.9969 35.3344 44H34.4156C34.0531 43.9969 33.65 43.9938 33.2156 43.9875C31.975 43.9719 30.7344 43.9438 29.575 43.9C27.1375 43.8063 25.4031 43.6594 24.5219 43.425C23.785 43.2261 23.1133 42.8371 22.5742 42.2968C22.0351 41.7566 21.6474 41.0841 21.45 40.3469C21.2594 39.6406 21.125 38.7 21.0312 37.5719C20.9625 36.7531 20.9187 35.8844 20.8937 35.0125C20.8844 34.7094 20.8812 34.425 20.8781 34.1719C20.8781 34.0813 20.875 34.0031 20.875 33.9344V33.7594C20.875 33.6906 20.875 33.6125 20.8781 33.5219C20.8812 33.2687 20.8875 32.9844 20.8937 32.6813C20.9187 31.8094 20.9625 30.9406 21.0312 30.1219C21.125 28.9937 21.2625 28.0531 21.45 27.3469C21.85 25.85 23.025 24.6687 24.5219 24.2687C25.4031 24.0312 27.1375 23.8844 29.575 23.7938C30.7344 23.75 31.975 23.7219 33.2156 23.7062C33.65 23.7 34.0531 23.6969 34.4156 23.6937H35.3344C35.6969 23.6969 36.1 23.7 36.5344 23.7062C37.775 23.7219 39.0156 23.75 40.175 23.7938C42.6125 23.8875 44.3469 24.0344 45.2281 24.2687C46.725 24.6687 47.9 25.8469 48.3 27.3469C48.4906 28.0531 48.625 28.9937 48.7188 30.1219C48.7875 30.9406 48.8313 31.8094 48.8563 32.6813C48.8656 32.9844 48.8688 33.2687 48.8719 33.5219C48.8719 33.6125 48.875 33.6906 48.875 33.7594V33.9344ZM46.625 33.7719C46.625 33.7062 46.625 33.6344 46.6219 33.55C46.6188 33.3063 46.6125 33.0375 46.6063 32.7469C46.5844 31.9156 46.5406 31.0844 46.475 30.3125C46.3906 29.3063 46.2719 28.4812 46.125 27.9281C45.9312 27.2062 45.3625 26.6344 44.6437 26.4437C43.9875 26.2687 42.3344 26.1281 40.0875 26.0438C38.95 26 37.725 25.9719 36.5031 25.9562C36.075 25.95 35.6781 25.9469 35.3219 25.9469H34.4281L33.2469 25.9562C32.025 25.9719 30.8031 26 29.6625 26.0438C27.4156 26.1313 25.7594 26.2687 25.1062 26.4437C24.3875 26.6375 23.8187 27.2062 23.625 27.9281C23.4781 28.4812 23.3594 29.3063 23.275 30.3125C23.2094 31.0844 23.1688 31.9156 23.1438 32.7469C23.1344 33.0375 23.1313 33.3094 23.1281 33.55C23.1281 33.6344 23.125 33.7094 23.125 33.7719V33.9219C23.125 33.9875 23.125 34.0594 23.1281 34.1438C23.1313 34.3875 23.1375 34.6563 23.1438 34.9469C23.1656 35.7781 23.2094 36.6094 23.275 37.3813C23.3594 38.3875 23.4781 39.2125 23.625 39.7656C23.8187 40.4875 24.3875 41.0594 25.1062 41.25C25.7625 41.425 27.4156 41.5656 29.6625 41.65C30.8 41.6938 32.025 41.7219 33.2469 41.7375C33.675 41.7438 34.0719 41.7469 34.4281 41.7469H35.3219L36.5031 41.7375C37.725 41.7219 38.9469 41.6938 40.0875 41.65C42.3344 41.5625 43.9906 41.425 44.6437 41.25C45.3625 41.0563 45.9312 40.4875 46.125 39.7656C46.2719 39.2125 46.3906 38.3875 46.475 37.3813C46.5406 36.6094 46.5813 35.7781 46.6063 34.9469C46.6156 34.6563 46.6188 34.3844 46.6219 34.1438C46.6219 34.0594 46.625 33.9844 46.625 33.9219V33.7719ZM32.0938 29.6594L39.3438 33.8781L32.0938 38.0344V29.6594Z" fill="#00719B"/>
<defs>
<filter id="filter0_d_1252_21682" x="0.875" y="0" width="68" height="68" filterUnits="userSpaceOnUse" color-interpolation-filters="sRGB">
<feFlood flood-opacity="0" result="BackgroundImageFix"/>
<feColorMatrix in="SourceAlpha" type="matrix" values="0 0 0 0 0 0 0 0 0 0 0 0 0 0 0 0 0 0 127 0" result="hardAlpha"/>
<feOffset/>
<feGaussianBlur stdDeviation="3"/>
<feComposite in2="hardAlpha" operator="out"/>
<feColorMatrix type="matrix" values="0 0 0 0 0 0 0 0 0 0.443137 0 0 0 0 0.607843 0 0 0 0.23 0"/>
<feBlend mode="normal" in2="BackgroundImageFix" result="effect1_dropShadow_1252_21682"/>
<feBlend mode="normal" in="SourceGraphic" in2="effect1_dropShadow_1252_21682" result="shape"/>
</filter>
</defs>
</svg>
