<svg width="28" height="28" viewBox="0 0 28 28" fill="none" xmlns="http://www.w3.org/2000/svg">
<path d="M21.1203 5.28002C20.8039 5.28002 20.4945 5.37386 20.2314 5.54967C19.9683 5.72548 19.7632 5.97536 19.6421 6.26773C19.521 6.56009 19.4893 6.88179 19.5511 7.19216C19.6128 7.50253 19.7652 7.78763 19.989 8.01139C20.2127 8.23516 20.4978 8.38754 20.8082 8.44928C21.1185 8.51101 21.4403 8.47933 21.7326 8.35823C22.025 8.23713 22.2749 8.03205 22.4507 7.76893C22.6265 7.50581 22.7203 7.19647 22.7203 6.88002C22.7203 6.45567 22.5518 6.04871 22.2517 5.74865C21.9516 5.44859 21.5447 5.28002 21.1203 5.28002ZM27.2537 8.50669C27.2277 7.40042 27.0205 6.30589 26.6403 5.26669C26.3013 4.37753 25.7736 3.57239 25.0937 2.90669C24.4334 2.22325 23.6264 1.69892 22.7337 1.37335C21.6972 0.981568 20.6015 0.769634 19.4937 0.746687C18.0803 0.666687 17.627 0.666687 14.0003 0.666687C10.3737 0.666687 9.92033 0.666687 8.50699 0.746687C7.3992 0.769634 6.30345 0.981568 5.26699 1.37335C4.37589 1.70222 3.56957 2.2261 2.90699 2.90669C2.22356 3.56692 1.69923 4.37394 1.37366 5.26669C0.981873 6.30314 0.769939 7.39889 0.746992 8.50669C0.666992 9.92002 0.666992 10.3734 0.666992 14C0.666992 17.6267 0.666992 18.08 0.746992 19.4934C0.769939 20.6012 0.981873 21.6969 1.37366 22.7334C1.69923 23.6261 2.22356 24.4331 2.90699 25.0934C3.56957 25.7739 4.37589 26.2978 5.26699 26.6267C6.30345 27.0185 7.3992 27.2304 8.50699 27.2534C9.92033 27.3334 10.3737 27.3334 14.0003 27.3334C17.627 27.3334 18.0803 27.3334 19.4937 27.2534C20.6015 27.2304 21.6972 27.0185 22.7337 26.6267C23.6264 26.3011 24.4334 25.7768 25.0937 25.0934C25.7766 24.4301 26.3048 23.6243 26.6403 22.7334C27.0205 21.6941 27.2277 20.5996 27.2537 19.4934C27.2537 18.08 27.3337 17.6267 27.3337 14C27.3337 10.3734 27.3337 9.92002 27.2537 8.50669ZM24.8537 19.3334C24.8439 20.1797 24.6907 21.0183 24.4003 21.8134C24.1874 22.3936 23.8455 22.9179 23.4003 23.3467C22.9679 23.7874 22.4446 24.1286 21.867 24.3467C21.0719 24.637 20.2334 24.7903 19.387 24.8C18.0537 24.8667 17.5603 24.88 14.0537 24.88C10.547 24.88 10.0537 24.88 8.72032 24.8C7.84151 24.8165 6.96645 24.6812 6.13366 24.4C5.58137 24.1708 5.08213 23.8304 4.66699 23.4C4.22444 22.9717 3.88678 22.4469 3.68033 21.8667C3.3548 21.0602 3.17425 20.2026 3.14699 19.3334C3.14699 18 3.06699 17.5067 3.06699 14C3.06699 10.4934 3.06699 10 3.14699 8.66669C3.15297 7.80143 3.31093 6.94395 3.61366 6.13335C3.84839 5.57057 4.20868 5.0689 4.66699 4.66669C5.07208 4.20824 5.57271 3.84415 6.13366 3.60002C6.94639 3.30674 7.80299 3.15346 8.66699 3.14669C10.0003 3.14669 10.4937 3.06669 14.0003 3.06669C17.507 3.06669 18.0003 3.06669 19.3337 3.14669C20.18 3.15639 21.0186 3.30968 21.8137 3.60002C22.4196 3.82489 22.9634 4.19048 23.4003 4.66669C23.8373 5.07626 24.1787 5.577 24.4003 6.13335C24.6967 6.94526 24.85 7.80239 24.8537 8.66669C24.9203 10 24.9337 10.4934 24.9337 14C24.9337 17.5067 24.9203 18 24.8537 19.3334ZM14.0003 7.16002C12.6481 7.16266 11.3269 7.56605 10.2039 8.31924C9.08079 9.07243 8.20616 10.1416 7.6905 11.3917C7.17484 12.6418 7.04129 14.0166 7.30672 15.3426C7.57214 16.6685 8.22464 17.8861 9.18176 18.8413C10.1389 19.7966 11.3577 20.4467 12.6841 20.7096C14.0106 20.9724 15.3852 20.8362 16.6343 20.3181C17.8834 19.8 18.9508 18.9233 19.7018 17.7987C20.4528 16.6742 20.8537 15.3523 20.8537 14C20.8554 13.1002 20.6793 12.2088 20.3353 11.3773C19.9914 10.5458 19.4864 9.79043 18.8495 9.15475C18.2126 8.51908 17.4563 8.01559 16.6241 7.67326C15.7919 7.33093 14.9002 7.1565 14.0003 7.16002ZM14.0003 18.44C13.1222 18.44 12.2637 18.1796 11.5336 17.6917C10.8034 17.2039 10.2344 16.5104 9.8983 15.6991C9.56225 14.8878 9.47432 13.9951 9.64564 13.1338C9.81696 12.2725 10.2398 11.4814 10.8608 10.8605C11.4817 10.2395 12.2728 9.81665 13.1341 9.64533C13.9954 9.47401 14.8881 9.56194 15.6994 9.89799C16.5107 10.234 17.2042 10.8031 17.692 11.5333C18.1799 12.2634 18.4403 13.1219 18.4403 14C18.4403 14.5831 18.3255 15.1604 18.1024 15.6991C17.8792 16.2378 17.5522 16.7273 17.1399 17.1396C16.7276 17.5519 16.2381 17.8789 15.6994 18.102C15.1608 18.3252 14.5834 18.44 14.0003 18.44Z" fill="#00719B"/>
</svg>
