<svg width="165" height="70" viewBox="0 0 165 70" fill="none" xmlns="http://www.w3.org/2000/svg">
<ellipse cx="41.5805" cy="32.4531" rx="22.2914" ry="22.4219" fill="#EBE7E3" fill-opacity="0.15"/>
<ellipse cx="161.739" cy="66.7188" rx="3.26216" ry="3.28125" fill="#06739A"/>
<path fill-rule="evenodd" clip-rule="evenodd" d="M21.9223 8.00491C17.9501 11.1366 14.7942 15.1535 12.716 19.7228L11.7166 19.2837C13.8659 14.5583 17.1296 10.4042 21.2374 7.16556C25.3452 3.92691 30.1789 1.69688 35.3381 0.660178C40.4974 -0.376525 45.8336 -0.19006 50.905 1.20412C55.9763 2.59831 60.6367 5.16009 64.5002 8.67728L64.5001 9.91598C60.7642 6.51494 55.514 3.5885 50.6101 2.24035C45.7063 0.892214 40.5462 0.711909 35.5574 1.71437C30.5685 2.71684 25.8944 4.87322 21.9223 8.00491Z" fill="#06739A"/>
<path fill-rule="evenodd" clip-rule="evenodd" d="M22.4637 56.7426C18.4915 53.6109 15.3356 49.594 13.2574 45.0247L12.258 45.4639C14.4073 50.1893 17.6709 54.3433 21.7788 57.582C25.8866 60.8206 30.7203 63.0506 35.8795 64.0873C41.0388 65.124 46.375 64.9376 51.4464 63.5434C56.5177 62.1492 60.4343 59.9908 64.2978 56.4736V55.2808C60.5619 58.6818 56.0554 61.159 51.1515 62.5072C46.2477 63.8553 41.0876 64.0356 36.0988 63.0331C31.1099 62.0307 26.4358 59.8743 22.4637 56.7426Z" fill="#06739A"/>
<path d="M18.9231 38.9569C18.981 38.9569 19.0099 39.0119 19.0099 39.1217C19.0099 39.2316 18.981 39.2865 18.9231 39.2865H15.6815L14.5527 39.314C14.2825 39.314 14.051 39.259 13.858 39.1492C13.6651 39.0393 13.4432 38.8379 13.1924 38.5449C12.9415 38.252 12.4784 37.6752 11.8031 36.8146L10.6164 35.3039L6.90296 30.6898C6.75855 30.5104 6.68635 30.4207 6.58693 30.4151C6.4875 30.4095 6.40538 30.4906 6.24113 30.6527L5.99896 30.8917C5.9352 30.9546 5.90332 30.9861 5.88653 31.026C5.86974 31.066 5.86974 31.1104 5.86974 31.1992V37.0618C5.86974 37.6294 5.91798 38.0414 6.01445 38.2977C6.11093 38.5541 6.30389 38.728 6.59332 38.8196C6.90205 38.9111 7.38443 38.9569 8.04048 38.9569C8.11766 38.9569 8.15625 39.0119 8.15625 39.1217C8.15625 39.2316 8.11766 39.2865 8.04048 39.2865C7.42302 39.2865 6.93099 39.2774 6.56437 39.259L4.45152 39.2316L2.39656 39.259C2.02995 39.2774 1.51862 39.2865 0.862574 39.2865C0.823983 39.2865 0.804688 39.2316 0.804688 39.1217C0.804688 39.0119 0.823983 38.9569 0.862574 38.9569C1.51862 38.9569 1.99136 38.9111 2.28079 38.8196C2.58952 38.728 2.80177 38.5541 2.91754 38.2977C3.03331 38.0231 3.0912 37.6111 3.0912 37.0618V24.345C3.0912 23.7957 3.03331 23.3928 2.91754 23.1365C2.82106 22.8801 2.61846 22.7062 2.30973 22.6146C2.001 22.5048 1.52827 22.4498 0.891517 22.4498C0.852926 22.4498 0.833631 22.3949 0.833631 22.285C0.833631 22.1752 0.852926 22.1202 0.891517 22.1202L2.4255 22.1477C3.2745 22.1843 3.94984 22.2026 4.45152 22.2026C5.03039 22.2026 5.74432 22.1843 6.59332 22.1477L8.04048 22.1202C8.09836 22.1202 8.12731 22.1752 8.12731 22.285C8.12731 22.3949 8.09836 22.4498 8.04048 22.4498C7.40373 22.4498 6.93099 22.5048 6.62226 22.6146C6.33283 22.7245 6.13023 22.9167 6.01445 23.1914C5.91798 23.4478 5.86974 23.8506 5.86974 24.3999V29.1615C5.86974 29.6025 5.86974 29.823 6.0053 29.8792C6.14086 29.9353 6.30145 29.7814 6.62263 29.4735L11.5426 24.757C12.1408 24.1893 12.4398 23.7133 12.4398 23.3287C12.4398 23.0541 12.2855 22.8435 11.9767 22.697C11.6873 22.5322 11.2532 22.4498 10.6743 22.4498C10.6357 22.4498 10.6164 22.3949 10.6164 22.285C10.6164 22.1752 10.6357 22.1202 10.6743 22.1202L11.9767 22.1477C12.8257 22.1843 13.5976 22.2026 14.2922 22.2026C15.0447 22.2026 15.8069 22.1843 16.5787 22.1477L17.8233 22.1202C17.8811 22.1202 17.9101 22.1752 17.9101 22.285C17.9101 22.3949 17.8811 22.4498 17.8233 22.4498C16.9743 22.4498 16.0384 22.6695 15.0158 23.109C14.0124 23.5485 13.0959 24.1527 12.2662 24.9218L8.8486 28.1649C8.71208 28.2945 8.64382 28.3593 8.63786 28.4427C8.63191 28.5261 8.69031 28.5996 8.8071 28.7466L12.8161 33.7933C14.1282 35.4962 15.1123 36.7047 15.7683 37.4188C16.4436 38.1146 16.9743 38.5449 17.3602 38.7097C17.7461 38.8745 18.2671 38.9569 18.9231 38.9569Z" fill="#06739A"/>
<path d="M37.6297 38.9569C37.6875 38.9569 37.7165 39.0119 37.7165 39.1217C37.7165 39.2316 37.6875 39.2865 37.6297 39.2865H32.9698C32.526 39.2865 31.6963 38.5266 30.4807 37.0068C29.3211 35.516 27.9078 33.4574 26.2406 30.8312C26.1646 30.7115 26.1267 30.6517 26.0684 30.6243C26.0102 30.5969 25.9346 30.6059 25.7834 30.6239C25.5688 30.6494 25.3498 30.6622 25.1262 30.6622C24.7097 30.6622 24.3655 30.6591 24.0934 30.6528C23.8676 30.6477 23.7547 30.6451 23.6879 30.7092C23.6212 30.7733 23.6212 30.882 23.6212 31.0994V37.0618C23.6212 37.6294 23.6694 38.0414 23.7659 38.2977C23.8817 38.5541 24.0843 38.728 24.3737 38.8196C24.6824 38.9111 25.1648 38.9569 25.8208 38.9569C25.8594 38.9569 25.8787 39.0119 25.8787 39.1217C25.8787 39.2316 25.8594 39.2865 25.8208 39.2865C25.1841 39.2865 24.6921 39.2774 24.3447 39.259L22.2029 39.2316L20.119 39.259C19.7524 39.2774 19.2507 39.2865 18.614 39.2865C18.5561 39.2865 18.5272 39.2316 18.5272 39.1217C18.5272 39.0119 18.5561 38.9569 18.614 38.9569C19.27 38.9569 19.7428 38.9111 20.0322 38.8196C20.3409 38.728 20.5532 38.5541 20.669 38.2977C20.7847 38.0231 20.8426 37.6111 20.8426 37.0618V24.345C20.8426 23.7957 20.7847 23.3928 20.669 23.1365C20.5725 22.8801 20.3699 22.7062 20.0612 22.6146C19.7524 22.5048 19.2797 22.4498 18.6429 22.4498C18.6044 22.4498 18.5851 22.3949 18.5851 22.285C18.5851 22.1752 18.6044 22.1202 18.6429 22.1202L20.148 22.1477C20.997 22.1843 21.682 22.2026 22.2029 22.2026C22.7818 22.2026 23.3896 22.1752 24.0264 22.1202C24.2579 22.1019 24.5377 22.0836 24.8657 22.0653C25.1937 22.047 25.5507 22.0378 25.9366 22.0378C27.6539 22.0378 28.9756 22.34 29.9018 22.9442C30.828 23.5485 31.2911 24.3999 31.2911 25.4986C31.2911 26.3592 31.021 27.174 30.4807 27.943C30.0288 28.5863 29.4621 29.1271 28.7806 29.5655C28.5854 29.691 28.4878 29.7538 28.4695 29.8433C28.4513 29.9328 28.5136 30.0231 28.6381 30.2037C30.1012 32.3247 31.3328 34.0064 32.3331 35.249C33.4136 36.5491 34.3687 37.4921 35.1984 38.078C36.0281 38.6639 36.8385 38.9569 37.6297 38.9569ZM23.6212 29.4944C23.6212 29.6733 23.6212 29.7627 23.6779 29.8248C23.7346 29.8869 23.8216 29.8962 23.9955 29.9147C24.3768 29.9552 24.8116 29.9755 25.2999 29.9755C26.4576 29.9755 27.268 29.7283 27.7311 29.2339C28.1942 28.7395 28.4257 27.8332 28.4257 26.5148C28.4257 25.0316 28.1652 24.0062 27.6443 23.4386C27.1233 22.8527 26.3901 22.5597 25.4446 22.5597C24.7499 22.5597 24.2676 22.6879 23.9974 22.9442C23.7466 23.2006 23.6212 23.6858 23.6212 24.3999V29.4944Z" fill="#06739A"/>
<path d="M50.9347 25.4711C50.9347 24.5189 50.7031 23.7773 50.2401 23.2463C49.7963 22.7153 49.1499 22.4498 48.3008 22.4498C48.2623 22.4498 48.243 22.3949 48.243 22.285C48.243 22.1752 48.2623 22.1202 48.3008 22.1202L49.6322 22.1477C50.3655 22.1843 50.9443 22.2026 51.3688 22.2026C51.7161 22.2026 52.2371 22.1843 52.9318 22.1477L54.2053 22.1202C54.2438 22.1202 54.2631 22.1752 54.2631 22.285C54.2631 22.3949 54.2438 22.4498 54.2053 22.4498C53.4527 22.4498 52.8642 22.7153 52.4397 23.2463C52.0345 23.7773 51.8319 24.5189 51.8319 25.4711V33.1616C51.8319 34.48 51.5328 35.6335 50.9347 36.6223C50.3558 37.5928 49.5261 38.3435 48.4456 38.8745C47.3843 39.4055 46.1494 39.671 44.7408 39.671C43.3323 39.671 42.0781 39.4147 40.9782 38.902C39.8784 38.371 39.0197 37.6202 38.4023 36.6498C37.8041 35.661 37.5051 34.5074 37.5051 33.189V24.345C37.5051 23.7957 37.4472 23.3928 37.3314 23.1365C37.2156 22.8801 37.0034 22.7062 36.6946 22.6146C36.4052 22.5048 35.9421 22.4498 35.3054 22.4498C35.2475 22.4498 35.2185 22.3949 35.2185 22.285C35.2185 22.1752 35.2475 22.1202 35.3054 22.1202L36.8104 22.1477C37.6594 22.1843 38.3444 22.2026 38.8654 22.2026C39.4442 22.2026 40.1582 22.1843 41.0072 22.1477L42.4543 22.1202C42.5122 22.1202 42.5412 22.1752 42.5412 22.285C42.5412 22.3949 42.5122 22.4498 42.4543 22.4498C41.8176 22.4498 41.3448 22.5048 41.0361 22.6146C40.7467 22.7245 40.5441 22.9167 40.4283 23.1914C40.3125 23.4478 40.2547 23.8506 40.2547 24.3999V32.2277C40.2547 34.4067 40.7274 36.0364 41.6729 37.1167C42.6376 38.1787 43.9787 38.7097 45.696 38.7097C47.3361 38.7097 48.6192 38.2336 49.5454 37.2815C50.4716 36.311 50.9347 34.9469 50.9347 33.189V25.4711Z" fill="#06739A"/>
<path d="M65.0639 39.6161C62.9414 39.6161 61.0891 39.2316 59.5068 38.4625C57.9439 37.6935 56.7476 36.6498 55.9179 35.3314C55.0882 33.9947 54.6733 32.5116 54.6733 30.8819C54.6733 29.1241 55.1461 27.5585 56.0915 26.1852C57.0563 24.7936 58.3684 23.7224 60.0278 22.9717C61.7065 22.2026 63.5878 21.8181 65.6717 21.8181C66.5786 21.8181 67.4855 21.8913 68.3924 22.0378C69.2993 22.1843 70.0325 22.3857 70.5921 22.6421C70.7228 22.7041 70.812 22.7662 70.8597 22.8282C70.8714 22.8435 70.8773 22.8511 70.8812 22.8569C70.8851 22.8627 70.8914 22.8735 70.9039 22.895C70.9494 22.9733 70.9806 23.0996 70.9973 23.2738L71.3446 26.8444C71.3446 26.8993 71.2963 26.9359 71.1999 26.9543C71.1034 26.9726 71.0359 26.9451 70.9973 26.8719C70.4184 25.4986 69.5501 24.4274 68.3924 23.6583C67.2347 22.8893 65.8743 22.5048 64.3114 22.5048C62.1889 22.5048 60.5584 23.1639 59.42 24.4823C58.2816 25.7824 57.7123 27.5768 57.7123 29.8657C57.7123 31.6601 58.0597 33.2623 58.7543 34.6722C59.4489 36.0821 60.4041 37.1808 61.6197 37.9681C62.8546 38.7555 64.2342 39.1492 65.7585 39.1492C66.6075 39.1492 67.2636 39.0668 67.7267 38.902C68.1898 38.7372 68.5274 38.4168 68.7397 37.9407C68.9712 37.4646 69.087 36.7596 69.087 35.8258C69.087 34.8736 69.0291 34.2144 68.9134 33.8482C68.7976 33.4637 68.5371 33.2074 68.1319 33.0792C67.746 32.951 67.061 32.8869 66.0769 32.8869C65.9612 32.8869 65.9033 32.8137 65.9033 32.6672C65.9033 32.6123 65.9129 32.5665 65.9322 32.5299C65.9708 32.4749 66.0094 32.4475 66.048 32.4475C67.6495 32.539 68.9326 32.5848 69.8974 32.5848C70.8622 32.5848 71.8656 32.5573 72.9075 32.5024C72.9155 32.5024 72.9231 32.5036 72.9303 32.5059C72.9475 32.5116 72.9561 32.5144 72.9952 32.5576C73.0344 32.6008 73.0395 32.6246 73.0498 32.6721C73.0514 32.6796 73.0522 32.6871 73.0522 32.6947C73.0522 32.8228 73.004 32.8869 72.9075 32.8869C72.5216 32.8686 72.2515 32.9327 72.0971 33.0792C71.9427 33.2074 71.8366 33.482 71.7787 33.9032C71.7401 34.3243 71.7208 35.0567 71.7208 36.1005C71.7208 36.9244 71.7498 37.5104 71.8077 37.8583C71.8848 38.2062 71.9234 38.4259 71.9234 38.5175C71.9234 38.6273 71.8945 38.7006 71.8366 38.7372C71.8017 38.7538 71.7272 38.7853 71.6133 38.8319C71.5949 38.8394 71.5857 38.8432 71.5759 38.8462C71.5662 38.8491 71.5564 38.8512 71.5367 38.8554C69.1214 39.3625 66.9638 39.6161 65.0639 39.6161Z" fill="#06739A"/>
<path d="M78.4587 36.9519C78.4587 37.4463 78.4973 37.8033 78.5745 38.0231C78.671 38.2428 78.8446 38.3893 79.0955 38.4625C79.3463 38.5358 79.7515 38.5724 80.3111 38.5724H82.0477C83.4176 38.5724 84.5754 38.2153 85.5208 37.5012C86.4663 36.7688 87.0934 35.7892 87.4021 34.5623C87.4185 34.5159 87.4623 34.4956 87.5338 34.5016C87.5486 34.5028 87.56 34.5037 87.5677 34.5044C87.5752 34.505 87.5827 34.5057 87.5902 34.5065C87.5968 34.5072 87.6062 34.5082 87.6182 34.5095C87.6864 34.5168 87.7205 34.5436 87.7205 34.5898C87.5469 36.311 87.46 37.7393 87.46 38.8745C87.46 39.0049 87.4371 39.1062 87.3913 39.1786C87.3876 39.1845 87.3857 39.1874 87.3695 39.2039C87.3532 39.2205 87.3517 39.2215 87.3486 39.2236C87.2852 39.2655 87.1777 39.2865 87.0259 39.2865H73.4805C73.4419 39.2865 73.4226 39.2316 73.4226 39.1217C73.4226 39.0119 73.4419 38.9569 73.4805 38.9569C74.1365 38.9569 74.6093 38.9111 74.8987 38.8196C75.2074 38.728 75.41 38.5541 75.5065 38.2977C75.6223 38.0231 75.6802 37.6111 75.6802 37.0618V24.345C75.6802 23.7957 75.6223 23.3928 75.5065 23.1365C75.41 22.8801 75.2074 22.7062 74.8987 22.6146C74.59 22.5048 74.1172 22.4498 73.4805 22.4498C73.4419 22.4498 73.4226 22.3949 73.4226 22.285C73.4226 22.1752 73.4419 22.1202 73.4805 22.1202L74.9566 22.1477C75.8056 22.1843 76.5002 22.2026 77.0405 22.2026C77.6194 22.2026 78.3333 22.1843 79.1823 22.1477L80.6294 22.1202C80.6873 22.1202 80.7163 22.1752 80.7163 22.285C80.7163 22.3949 80.6873 22.4498 80.6294 22.4498C79.9927 22.4498 79.52 22.5048 79.2112 22.6146C78.9218 22.7062 78.7192 22.8893 78.6034 23.1639C78.507 23.4203 78.4587 23.8231 78.4587 24.3724V36.9519Z" fill="#06739A"/>
<path d="M97.359 39.6161C95.5646 39.6161 93.9631 39.2224 92.5545 38.4351C91.1652 37.6294 90.0847 36.5491 89.3128 35.1941C88.5603 33.8208 88.1841 32.3284 88.1841 30.7171C88.1841 28.8311 88.6857 27.2198 89.6891 25.8831C90.6925 24.5281 91.9756 23.5118 93.5385 22.8343C95.1208 22.1569 96.7319 21.8181 98.3721 21.8181C100.205 21.8181 101.816 22.2301 103.206 23.0541C104.595 23.8597 105.656 24.9309 106.389 26.2676C107.142 27.6043 107.518 29.0234 107.518 30.5248C107.518 32.1911 107.055 33.7201 106.129 35.1117C105.203 36.5033 103.958 37.6019 102.395 38.4076C100.852 39.2133 99.1728 39.6161 97.359 39.6161ZM98.3431 38.9569C99.5008 38.9569 100.533 38.6639 101.44 38.078C102.366 37.4738 103.09 36.5948 103.611 35.4413C104.151 34.2877 104.421 32.9144 104.421 31.3214C104.421 29.6368 104.122 28.1261 103.524 26.7895C102.945 25.4528 102.106 24.4091 101.006 23.6583C99.9253 22.9076 98.6518 22.5322 97.1854 22.5322C95.3137 22.5322 93.8569 23.1731 92.815 24.4548C91.7923 25.7183 91.281 27.4761 91.281 29.7283C91.281 31.4678 91.5801 33.0426 92.1782 34.4525C92.7957 35.8624 93.635 36.9702 94.6963 37.7759C95.7768 38.5632 96.9924 38.9569 98.3431 38.9569Z" fill="#06739A"/>
<path d="M126.076 22.1202C126.134 22.1202 126.163 22.1752 126.163 22.285C126.163 22.3949 126.134 22.4498 126.076 22.4498C125.381 22.4498 124.745 22.697 124.166 23.1914C123.587 23.6858 123.114 24.3999 122.748 25.3338L117.133 39.259C117.113 39.3323 117.007 39.3689 116.814 39.3689C116.658 39.3689 116.559 39.3449 116.516 39.2969C116.513 39.2927 116.522 39.3032 116.514 39.2912C116.506 39.2792 116.496 39.2595 116.477 39.2201L109.173 24.3999C108.826 23.7224 108.479 23.228 108.131 22.9167C107.784 22.6055 107.369 22.4498 106.887 22.4498C106.829 22.4498 106.8 22.3949 106.8 22.285C106.8 22.1752 106.829 22.1202 106.887 22.1202L107.639 22.1477C108.064 22.1843 108.546 22.2026 109.086 22.2026C110.437 22.2026 111.653 22.1843 112.733 22.1477C113.042 22.1294 113.438 22.1202 113.92 22.1202C113.978 22.1202 114.007 22.1752 114.007 22.285C114.007 22.3949 113.978 22.4498 113.92 22.4498C112.704 22.4498 112.097 22.8527 112.097 23.6583C112.097 23.9696 112.193 24.3175 112.386 24.702L117.331 34.7438C117.519 35.1256 117.613 35.3166 117.758 35.3115C117.902 35.3064 117.982 35.1095 118.142 34.7155L121.995 25.2239C122.169 24.7844 122.256 24.3908 122.256 24.0429C122.256 23.5302 122.072 23.1365 121.706 22.8618C121.358 22.5872 120.828 22.4498 120.114 22.4498C120.056 22.4498 120.027 22.3949 120.027 22.285C120.027 22.1752 120.056 22.1202 120.114 22.1202L121.503 22.1477C122.236 22.1843 122.912 22.2026 123.529 22.2026C123.896 22.2026 124.349 22.1843 124.889 22.1477L126.076 22.1202Z" fill="#06739A"/>
<path d="M73.2031 62.0336C72.5823 62.0336 71.8614 62.0064 71.0404 61.9518C70.74 61.9336 70.3595 61.9154 69.8989 61.8972C69.4384 61.879 68.9177 61.8699 68.337 61.8699L66.2043 61.8972C65.8238 61.9154 65.2931 61.9245 64.6123 61.9245C64.5722 61.9245 64.5522 61.8699 64.5522 61.7608C64.5522 61.6517 64.5722 61.5971 64.6123 61.5971C65.2931 61.5971 65.7838 61.5516 66.0841 61.4607C66.4045 61.3697 66.6248 61.1969 66.745 60.9423C66.8651 60.6694 66.9252 60.2602 66.9252 59.7145V47.0819C66.9252 46.5362 66.8651 46.1361 66.745 45.8814C66.6448 45.6268 66.4346 45.454 66.1142 45.363C65.7938 45.2539 65.3032 45.1993 64.6423 45.1993C64.6023 45.1993 64.5822 45.1448 64.5822 45.0356C64.5822 44.9265 64.6023 44.8719 64.6423 44.8719L66.2343 44.8992C67.1154 44.9356 67.8163 44.9538 68.337 44.9538C69.138 44.9538 69.949 44.9265 70.77 44.8719C71.7713 44.8355 72.4421 44.8173 72.7826 44.8173C74.8251 44.8173 76.6374 45.1811 78.2194 45.9087C79.8014 46.6363 81.0229 47.6276 81.884 48.8827C82.7651 50.1378 83.2057 51.5474 83.2057 53.1117C83.2057 54.8761 82.7551 56.4404 81.854 57.8046C80.9529 59.1506 79.7413 60.1965 78.2194 60.9423C76.6975 61.6699 75.0254 62.0336 73.2031 62.0336ZM72.9027 61.488C74.2845 61.488 75.506 61.1878 76.5673 60.5876C77.6487 59.9873 78.4898 59.1051 79.0905 57.941C79.6913 56.7587 79.9917 55.349 79.9917 53.712C79.9917 52.1477 79.7013 50.738 79.1206 49.4829C78.5598 48.2097 77.7588 47.2093 76.7175 46.4817C75.6762 45.7359 74.4647 45.363 73.0829 45.363C72.2419 45.363 71.5911 45.4085 71.1305 45.4995C70.6699 45.5904 70.3295 45.7632 70.1092 46.0178C69.909 46.2543 69.8088 46.6272 69.8088 47.1365V59.4144C69.8088 60.1601 70.0191 60.6967 70.4396 61.0241C70.8601 61.3334 71.6812 61.488 72.9027 61.488Z" fill="#06739A"/>
<path d="M97.8509 57.7298C97.8595 57.7026 97.8638 57.689 97.9008 57.6515C97.9378 57.614 97.891 57.6298 97.9097 57.6235C97.9293 57.6169 97.9561 57.6136 97.9902 57.6136C98.0124 57.6136 98.0333 57.6161 98.0528 57.6211C98.1168 57.6375 98.1488 57.6457 98.1851 57.6737C98.2214 57.7017 98.2236 57.7057 98.228 57.7137C98.231 57.7192 98.23 57.7259 98.2291 57.7322C98.0298 59.1109 97.9301 60.3719 97.9301 61.5153C97.9301 61.6448 97.9063 61.7455 97.8587 61.8174C97.8548 61.8232 97.8529 61.8262 97.8364 61.8423C97.8199 61.8585 97.8183 61.8595 97.8149 61.8617C97.7492 61.9036 97.6374 61.9245 97.4795 61.9245H84.4431C84.383 61.9245 84.353 61.8699 84.353 61.7608C84.353 61.6517 84.383 61.5971 84.4431 61.5971C85.124 61.5971 85.6146 61.5516 85.915 61.4607C86.2354 61.3697 86.4456 61.1969 86.5458 60.9423C86.6659 60.6694 86.726 60.2602 86.726 59.7145V47.0819C86.726 46.5362 86.6659 46.1361 86.5458 45.8814C86.4456 45.6268 86.2354 45.454 85.915 45.363C85.5946 45.2539 85.104 45.1993 84.4431 45.1993C84.383 45.1993 84.353 45.1448 84.353 45.0356C84.353 44.9265 84.383 44.8719 84.4431 44.8719H96.9388C97.1391 44.8719 97.2392 44.9538 97.2392 45.1175L97.2993 48.6644C97.2993 48.7008 97.2392 48.7281 97.1191 48.7463C97.019 48.7645 96.9589 48.7463 96.9388 48.6917C96.4582 46.6181 95.0665 45.5813 92.7636 45.5813H91.5621C90.8412 45.5813 90.3305 45.6995 90.0302 45.936C89.7298 46.1725 89.5796 46.5726 89.5796 47.1365V52.2667C89.5796 52.4721 89.5796 52.5748 89.6445 52.6386C89.7094 52.7025 89.8139 52.7025 90.0229 52.7025H92.4632C94.666 52.7025 95.7674 52.0295 95.7674 50.6834C95.7674 50.6289 95.8174 50.6016 95.9176 50.6016C96.0377 50.6016 96.0978 50.6289 96.0978 50.6834L96.0677 53.0572L96.0978 54.3395C96.1378 54.9216 96.1579 55.3945 96.1579 55.7583C96.1579 55.7947 96.0978 55.8129 95.9776 55.8129C95.8575 55.8129 95.7974 55.7947 95.7974 55.7583C95.7974 54.194 94.676 53.4119 92.4332 53.4119H90.0229C89.8139 53.4119 89.7094 53.4119 89.6445 53.4757C89.5796 53.5395 89.5796 53.6422 89.5796 53.8476V59.6054C89.5796 60.2056 89.6997 60.624 89.94 60.8604C90.2004 61.0969 90.6509 61.2151 91.2917 61.2151H92.7636C95.4236 61.2151 97.1193 60.0533 97.8509 57.7298Z" fill="#06739A"/>
<path d="M103.033 47.764C103.033 48.437 103.213 49.0373 103.573 49.5648C103.954 50.0741 104.415 50.5197 104.955 50.9017C105.516 51.2837 106.267 51.7384 107.208 52.2659C108.229 52.848 109.03 53.3482 109.611 53.7666C110.212 54.1849 110.712 54.7033 111.113 55.3217C111.533 55.922 111.744 56.6314 111.744 57.4499C111.744 58.3776 111.473 59.2052 110.933 59.9328C110.412 60.6603 109.661 61.2333 108.68 61.6517C107.719 62.0518 106.617 62.2519 105.376 62.2519C104.535 62.2519 103.664 62.1519 102.762 61.9518C101.881 61.7517 101.21 61.5062 100.75 61.2151C100.57 61.106 100.47 60.9332 100.45 60.6967L100.269 56.5495V56.5223C100.269 56.4601 100.306 56.4245 100.379 56.4154C100.403 56.4125 100.414 56.411 100.418 56.4107C100.422 56.4104 100.434 56.4096 100.46 56.4081C100.523 56.4044 100.566 56.4237 100.588 56.4661C100.595 56.4786 100.578 56.4472 100.58 56.4508C100.582 56.4545 100.592 56.4775 100.612 56.5235C101.27 58.0203 102.017 59.2477 102.853 60.2056C103.714 61.1697 104.805 61.6517 106.127 61.6517C106.988 61.6517 107.709 61.4425 108.289 61.0241C108.87 60.5876 109.16 59.8691 109.16 58.8687C109.16 58.0684 108.96 57.3681 108.56 56.7678C108.179 56.1676 107.699 55.6673 107.118 55.2672C106.557 54.867 105.786 54.3759 104.805 53.7938C103.844 53.23 103.093 52.757 102.552 52.3751C102.011 51.9749 101.551 51.4929 101.17 50.929C100.79 50.3469 100.6 49.6739 100.6 48.91C100.6 47.9641 100.89 47.1638 101.471 46.509C102.052 45.8541 102.802 45.3721 103.724 45.0629C104.665 44.7355 105.646 44.5718 106.667 44.5718C107.348 44.5718 108.029 44.6355 108.71 44.7628C109.391 44.8719 109.961 45.0174 110.422 45.1993C110.602 45.2539 110.722 45.3267 110.783 45.4176C110.843 45.4904 110.873 45.5904 110.873 45.7177L110.963 49.4284C110.963 49.4829 110.903 49.5284 110.783 49.5648C110.682 49.583 110.622 49.5557 110.602 49.4829C110.202 48.3734 109.661 47.373 108.98 46.4817C108.319 45.5722 107.318 45.1175 105.976 45.1175C105.075 45.1175 104.354 45.3539 103.814 45.8269C103.293 46.2998 103.033 46.9455 103.033 47.764Z" fill="#06739A"/>
<path d="M118.377 59.7145C118.377 60.2784 118.427 60.6876 118.527 60.9423C118.627 61.1969 118.828 61.3697 119.128 61.4607C119.449 61.5516 119.949 61.5971 120.63 61.5971C120.69 61.5971 120.72 61.6517 120.72 61.7608C120.72 61.8699 120.69 61.9245 120.63 61.9245C119.989 61.9245 119.479 61.9154 119.098 61.8972L116.875 61.8699L114.713 61.8972C114.332 61.9154 113.811 61.9245 113.151 61.9245C113.091 61.9245 113.06 61.8699 113.06 61.7608C113.06 61.6517 113.091 61.5971 113.151 61.5971C113.831 61.5971 114.322 61.5516 114.622 61.4607C114.943 61.3697 115.163 61.1969 115.283 60.9423C115.403 60.6694 115.463 60.2602 115.463 59.7145V47.0819C115.463 46.5362 115.403 46.1361 115.283 45.8814C115.163 45.6268 114.943 45.454 114.622 45.363C114.322 45.2539 113.831 45.1993 113.151 45.1993C113.091 45.1993 113.06 45.1448 113.06 45.0356C113.06 44.9265 113.091 44.8719 113.151 44.8719L114.713 44.8992C115.594 44.9356 116.315 44.9538 116.875 44.9538C117.496 44.9538 118.247 44.9356 119.128 44.8992L120.63 44.8719C120.69 44.8719 120.72 44.9265 120.72 45.0356C120.72 45.1448 120.69 45.1993 120.63 45.1993C119.969 45.1993 119.479 45.2539 119.158 45.363C118.858 45.4722 118.647 45.6632 118.527 45.936C118.427 46.1907 118.377 46.5908 118.377 47.1365V59.7145Z" fill="#06739A"/>
<path d="M132.761 62.2519C130.559 62.2519 128.636 61.8699 126.994 61.106C125.372 60.342 124.13 59.3052 123.269 57.9956C122.408 56.6678 121.978 55.1944 121.978 53.5756C121.978 51.8294 122.468 50.2742 123.45 48.91C124.451 47.5276 125.813 46.4635 127.535 45.7177C129.277 44.9538 131.229 44.5718 133.392 44.5718C134.333 44.5718 135.274 44.6446 136.216 44.7901C137.157 44.9356 137.918 45.1357 138.499 45.3903C138.634 45.4518 138.726 45.5133 138.776 45.5748C138.788 45.5901 138.794 45.5977 138.799 45.6037C138.803 45.6096 138.809 45.6204 138.822 45.6419C138.87 45.7198 138.902 45.8451 138.919 46.0178L139.279 49.5648C139.279 49.6194 139.229 49.6557 139.129 49.6739C139.029 49.6921 138.959 49.6648 138.919 49.5921C138.318 48.2279 137.417 47.1638 136.216 46.3998C135.014 45.6359 133.602 45.2539 131.98 45.2539C129.778 45.2539 128.085 45.9087 126.904 47.2184C125.722 48.5098 125.132 50.2924 125.132 52.566C125.132 54.3486 125.492 55.9402 126.213 57.3408C126.934 58.7414 127.925 59.8327 129.187 60.6149C130.468 61.397 131.9 61.7881 133.482 61.7881C134.363 61.7881 135.044 61.7062 135.525 61.5425C136.005 61.3788 136.356 61.0605 136.576 60.5876C136.816 60.1147 136.937 59.4144 136.937 58.4867C136.937 57.5409 136.876 56.886 136.756 56.5223C136.636 56.1403 136.366 55.8856 135.945 55.7583C135.545 55.631 134.834 55.5673 133.813 55.5673C133.692 55.5673 133.632 55.4945 133.632 55.349C133.632 55.2945 133.642 55.249 133.662 55.2126C133.702 55.158 133.743 55.1308 133.783 55.1308C135.445 55.2217 136.776 55.2672 137.778 55.2672C138.779 55.2672 139.82 55.2399 140.902 55.1853C140.91 55.1853 140.917 55.1864 140.925 55.1886C140.944 55.1945 140.953 55.1974 140.994 55.2412C141.034 55.2851 141.039 55.3084 141.049 55.3551C141.051 55.3622 141.052 55.3692 141.052 55.3763C141.052 55.5036 141.002 55.5673 140.902 55.5673C140.501 55.5491 140.221 55.6128 140.06 55.7583C139.9 55.8856 139.79 56.1585 139.73 56.5768C139.69 56.9952 139.67 57.7227 139.67 58.7595C139.67 59.5781 139.7 60.1601 139.76 60.5057C139.84 60.8513 139.88 61.0696 139.88 61.1606C139.88 61.2697 139.85 61.3424 139.79 61.3788C139.754 61.3954 139.676 61.4271 139.556 61.4739C139.538 61.4809 139.529 61.4844 139.52 61.4871C139.51 61.4899 139.501 61.4918 139.482 61.4957C136.974 61.9998 134.734 62.2519 132.761 62.2519Z" fill="#06739A"/>
<path d="M162.072 44.8719C162.112 44.8719 162.132 44.9265 162.132 45.0356C162.132 45.1448 162.112 45.1993 162.072 45.1993C161.271 45.1993 160.65 45.4631 160.21 45.9906C159.769 46.4999 159.549 47.2365 159.549 48.2006V62.3065C159.549 62.3611 159.499 62.3974 159.399 62.4156C159.299 62.4338 159.229 62.4247 159.188 62.3883L145.869 48.3289C145.544 47.9864 145.382 47.8151 145.241 47.8694C145.101 47.9238 145.101 48.1578 145.101 48.6259V58.6231C145.101 59.5872 145.311 60.3238 145.732 60.8331C146.152 61.3425 146.763 61.5971 147.564 61.5971C147.604 61.5971 147.624 61.6517 147.624 61.7608C147.624 61.8699 147.604 61.9245 147.564 61.9245C147.023 61.9245 146.613 61.9154 146.332 61.8972L144.74 61.8699L142.968 61.8972C142.648 61.9154 142.187 61.9245 141.586 61.9245C141.526 61.9245 141.496 61.8699 141.496 61.7608C141.496 61.6517 141.526 61.5971 141.586 61.5971C142.447 61.5971 143.108 61.3425 143.569 60.8331C144.049 60.3238 144.29 59.5872 144.29 58.6231V46.8545C144.29 46.7641 144.29 46.719 144.272 46.678C144.254 46.6369 144.222 46.6066 144.157 46.5458C143.648 46.0674 143.182 45.7277 142.758 45.5267C142.317 45.3085 141.857 45.1993 141.376 45.1993C141.336 45.1993 141.316 45.1448 141.316 45.0356C141.316 44.9265 141.336 44.8719 141.376 44.8719L142.578 44.8992C142.838 44.9174 143.208 44.9265 143.689 44.9265L145.611 44.8992C145.852 44.881 146.142 44.8719 146.482 44.8719C146.643 44.8719 146.763 44.9083 146.843 44.9811C146.923 45.0538 147.043 45.1993 147.203 45.4176C147.544 45.836 147.794 46.127 147.954 46.2907L157.968 57.0329C158.293 57.3816 158.455 57.5559 158.597 57.5019C158.738 57.4479 158.738 57.2114 158.738 56.7385V48.2006C158.738 47.2365 158.528 46.4999 158.107 45.9906C157.687 45.4631 157.086 45.1993 156.305 45.1993C156.265 45.1993 156.245 45.1448 156.245 45.0356C156.245 44.9265 156.265 44.8719 156.305 44.8719L157.536 44.8992C158.177 44.9356 158.708 44.9538 159.128 44.9538C159.529 44.9538 160.07 44.9356 160.75 44.8992L162.072 44.8719Z" fill="#06739A"/>
<path d="M163.913 66.6309C163.913 67.8875 162.876 68.9063 161.598 68.9063C160.32 68.9063 159.283 67.8875 159.283 66.6309C159.283 65.3742 160.32 64.3555 161.598 64.3555C162.876 64.3555 163.913 65.3742 163.913 66.6309Z" fill="#06739A"/>
<path d="M56.8671 20.5983C56.299 20.5983 55.7856 20.4551 55.3267 20.1686C54.8733 19.8821 54.5156 19.4867 54.2534 18.9823C53.9966 18.4716 53.8683 17.9018 53.8683 17.2728C53.8683 16.6438 53.9966 16.0771 54.2534 15.5726C54.5156 15.062 54.8761 14.6634 55.3349 14.3769C55.7937 14.0905 56.3072 13.9472 56.8753 13.9472C57.3014 13.9472 57.6946 14.0282 58.0552 14.1901C58.4157 14.352 58.7216 14.5887 58.9728 14.9001L58.5877 15.3391C58.1398 14.8222 57.5745 14.5638 56.8917 14.5638C56.4383 14.5638 56.0259 14.6821 55.6545 14.9187C55.283 15.1554 54.9908 15.4792 54.7778 15.8902C54.5702 16.3013 54.4664 16.7621 54.4664 17.2728C54.4664 17.7834 54.5702 18.2443 54.7778 18.6553C54.9908 19.0663 55.283 19.3902 55.6545 19.6268C56.0259 19.8635 56.4383 19.9818 56.8917 19.9818C57.5799 19.9818 58.1453 19.7202 58.5877 19.1971L58.9728 19.6362C58.7216 19.9475 58.4129 20.1873 58.047 20.3554C57.6865 20.5174 57.2932 20.5983 56.8671 20.5983Z" fill="#06739A"/>
<path d="M63.7722 20.5423L62.4612 18.4405C62.3137 18.4591 62.1608 18.4685 62.0024 18.4685H60.462V20.5423H59.8557V14.0033H62.0024C62.7343 14.0033 63.3079 14.2026 63.723 14.6011C64.1382 14.9997 64.3457 15.5477 64.3457 16.2452C64.3457 16.7559 64.231 17.1887 64.0016 17.5437C63.7776 17.8924 63.4554 18.1446 63.0348 18.3003L64.4359 20.5423H63.7722ZM61.986 17.88C62.5541 17.88 62.9883 17.7367 63.2888 17.4503C63.5892 17.1638 63.7394 16.7621 63.7394 16.2452C63.7394 15.7159 63.5892 15.3111 63.2888 15.0308C62.9883 14.7444 62.5541 14.6011 61.986 14.6011H60.462V17.88H61.986Z" fill="#06739A"/>
<path d="M69.4229 19.9444V20.5423H65.3671V14.0033H69.3V14.6011H65.9734V16.9271H68.9395V17.5157H65.9734V19.9444H69.4229Z" fill="#06739A"/>
<path d="M74.0354 18.7954H70.8399L70.1517 20.5423H69.5208L72.1427 14.0033H72.7408L75.3627 20.5423H74.7236L74.0354 18.7954ZM73.8142 18.2349L72.4376 14.7226L71.0611 18.2349H73.8142Z" fill="#06739A"/>
<path d="M76.7281 14.6011H74.7125V14.0033H79.35V14.6011H77.3344V20.5423H76.7281V14.6011Z" fill="#06739A"/>
<path d="M79.909 14.0033H80.5153V20.5423H79.909V14.0033Z" fill="#06739A"/>
<path d="M86.6764 14.0033L84.1364 20.5423H83.5382L80.9983 14.0033H81.6537L83.8496 19.6829L86.0618 14.0033H86.6764Z" fill="#06739A"/>
<path d="M91.1549 19.9444V20.5423H87.0991V14.0033H91.032V14.6011H87.7054V16.9271H90.6715V17.5157H87.7054V19.9444H91.1549Z" fill="#06739A"/>
<path d="M97.5021 18.7954H94.3066L93.6184 20.5423H92.9875L95.6094 14.0033H96.2075L98.8295 20.5423H98.1904L97.5021 18.7954ZM97.2809 18.2349L95.9044 14.7226L94.5279 18.2349H97.2809Z" fill="#06739A"/>
<path d="M103.328 17.2728H103.91V19.7669C103.642 20.0347 103.325 20.2402 102.959 20.3835C102.593 20.5267 102.208 20.5983 101.804 20.5983C101.23 20.5983 100.714 20.4551 100.255 20.1686C99.7965 19.8821 99.436 19.4867 99.1738 18.9823C98.9116 18.4716 98.7805 17.9018 98.7805 17.2728C98.7805 16.6438 98.9116 16.0771 99.1738 15.5726C99.436 15.062 99.7965 14.6634 100.255 14.3769C100.714 14.0905 101.233 13.9472 101.812 13.9472C102.249 13.9472 102.651 14.0282 103.017 14.1901C103.383 14.3458 103.691 14.5793 103.942 14.8907L103.566 15.3298C103.112 14.8191 102.536 14.5638 101.837 14.5638C101.372 14.5638 100.952 14.6821 100.575 14.9187C100.203 15.1492 99.9112 15.473 99.6982 15.8902C99.4852 16.3013 99.3787 16.7621 99.3787 17.2728C99.3787 17.7834 99.4852 18.2443 99.6982 18.6553C99.9112 19.0663 100.203 19.3902 100.575 19.6268C100.946 19.8635 101.364 19.9818 101.829 19.9818C102.418 19.9818 102.918 19.8136 103.328 19.4774V17.2728Z" fill="#06739A"/>
<path d="M109.272 19.9444V20.5423H105.216V14.0033H109.149V14.6011H105.822V16.9271H108.788V17.5157H105.822V19.9444H109.272Z" fill="#06739A"/>
<path d="M115.081 14.0033V20.5423H114.581L110.894 15.2363V20.5423H110.287V14.0033H110.787L114.482 19.3092V14.0033H115.081Z" fill="#06739A"/>
<path d="M119.034 20.5983C118.466 20.5983 117.952 20.4551 117.493 20.1686C117.04 19.8821 116.682 19.4867 116.42 18.9823C116.163 18.4716 116.035 17.9018 116.035 17.2728C116.035 16.6438 116.163 16.0771 116.42 15.5726C116.682 15.062 117.043 14.6634 117.502 14.3769C117.96 14.0905 118.474 13.9472 119.042 13.9472C119.468 13.9472 119.861 14.0282 120.222 14.1901C120.582 14.352 120.888 14.5887 121.139 14.9001L120.754 15.3391C120.306 14.8222 119.741 14.5638 119.058 14.5638C118.605 14.5638 118.193 14.6821 117.821 14.9187C117.45 15.1554 117.157 15.4792 116.944 15.8902C116.737 16.3013 116.633 16.7621 116.633 17.2728C116.633 17.7834 116.737 18.2443 116.944 18.6553C117.157 19.0663 117.45 19.3902 117.821 19.6268C118.193 19.8635 118.605 19.9818 119.058 19.9818C119.747 19.9818 120.312 19.7202 120.754 19.1971L121.139 19.6362C120.888 19.9475 120.58 20.1873 120.214 20.3554C119.853 20.5174 119.46 20.5983 119.034 20.5983Z" fill="#06739A"/>
<path d="M123.869 18.2817V20.5423H123.271V18.2817L120.976 14.0033H121.624L123.59 17.6745L125.557 14.0033H126.163L123.869 18.2817Z" fill="#06739A"/>
<line x1="0.804687" y1="42.3063" x2="161.738" y2="42.3063" stroke="#06739A" stroke-width="0.7"/>
</svg>
