<svg width="28" height="28" viewBox="0 0 28 28" fill="none"
    xmlns="http://www.w3.org/2000/svg">
    <path d="M8.93755 12.094C8.13655 15.5534 12.5899 16.4337 11.5386 18.871C10.4867 21.3078 8.13262 20.8207 8.3953 23.2574C8.65855 25.6947 11.7737 25.729 14.6098 24.2609C20.2815 21.3241 21.465 14.9094 18.8983 12.094C15.7438 8.63467 9.73855 8.63467 8.93755 12.094Z" fill="currentColor" stroke="currentColor"/>
    <path d="M18.8412 9.40619C19.3172 9.80557 20.1886 9.55057 20.7877 8.83663C21.3868 8.12269 21.4866 7.22017 21.0106 6.82079C20.5346 6.42142 19.6632 6.67642 19.0641 7.39036C18.465 8.1043 18.3652 9.00682 18.8412 9.40619Z" fill="currentColor"/>
    <path d="M16.3136 7.99371C16.8767 8.25629 17.6525 7.78442 18.0464 6.93976C18.4402 6.0951 18.303 5.1975 17.7399 4.93492C17.1768 4.67234 16.401 5.14421 16.0072 5.98887C15.6133 6.83353 15.7505 7.73113 16.3136 7.99371Z" fill="currentColor"/>
    <path d="M13.4754 7.58006C14.0933 7.64501 14.6732 6.94628 14.7706 6.0194C14.8681 5.09253 14.4461 4.2885 13.8282 4.22355C13.2103 4.15861 12.6304 4.85734 12.533 5.78421C12.4355 6.71109 12.8575 7.51512 13.4754 7.58006Z" fill="currentColor"/>
    <path d="M9.1446 7.11435C10.0204 6.79559 10.3858 5.59058 9.96078 4.42288C9.53578 3.25518 8.48128 2.56698 7.60551 2.88573C6.72973 3.20449 6.36431 4.4095 6.78932 5.5772C7.21433 6.7449 8.26882 7.4331 9.1446 7.11435Z" fill="currentColor" stroke="currentColor" stroke-width="2"/>
    <path d="M20.8832 11.4487C21.2826 11.9246 22.1851 11.8249 22.8991 11.2258C23.613 10.6267 23.868 9.75524 23.4686 9.27928C23.0692 8.80332 22.1667 8.90312 21.4528 9.50218C20.7388 10.1013 20.4838 10.9727 20.8832 11.4487Z" fill="currentColor"/>
</svg>
