<svg width="208" height="38" viewBox="0 0 208 38" fill="none" xmlns="http://www.w3.org/2000/svg">
<path fill-rule="evenodd" clip-rule="evenodd" d="M23.8913 3.85075C24.4475 5.44367 24.5921 7.10283 24.5898 8.80637C24.5809 11.8373 24.0915 14.802 23.4442 17.7445C23.4331 17.8109 23.402 17.8772 23.3641 17.9878C23.2863 17.8108 23.9047 12.5011 23.7979 9.95686C23.7223 8.18695 23.4909 6.41704 22.7724 4.75774C21.8982 2.72234 20.341 1.61624 18.1721 1.3065C16.1123 0.996767 13.8655 1.2623 11.9302 2.01451L11.8301 2.03655C13.4495 1.04097 14.6574 0.288757 17.1288 0.0453949C18.3012 -0.0652237 20.0274 -0.0210629 21.3465 0.73115C22.6657 1.48336 23.5799 2.94367 23.8913 3.85075Z" fill="#186FA1"/>
<path fill-rule="evenodd" clip-rule="evenodd" d="M6.89203 8.94611C6.89203 8.94611 6.98967 9.89504 7.05403 10.3585C7.37803 12.7422 8.29679 14.8831 9.67048 16.8253C11.5169 19.4518 13.9402 21.3942 16.7742 22.8729C18.1234 23.5792 19.4483 24.3077 20.7776 25.0581C21.0328 25.1905 21.1371 25.1462 21.2814 24.9255C22.9147 22.2328 24.548 19.5623 26.2036 16.9137C27.797 14.3314 29.7854 12.1243 32.3241 10.4469C33.7688 9.49784 35.1181 8.90183 36.8469 8.59284C37.1243 8.54869 37.6502 8.52667 37.7434 8.52667C37.5526 8.52667 37.8477 8.52667 37.7434 8.52667C37.2441 8.72531 36.818 8.85782 36.4164 9.05646C34.2815 10.138 32.5527 11.7269 30.9327 13.4485C29.2705 15.2142 27.9945 17.2448 26.7872 19.3416C25.5134 21.5266 24.2151 23.6895 22.9169 25.8745C22.7638 26.1394 22.7727 26.2279 23.0523 26.3823C24.6346 27.2652 26.2036 28.1699 27.6216 29.2956C28.5115 30.0239 29.3349 30.7965 29.9052 31.8118C30.5554 32.9595 30.5998 34.1293 29.9296 35.3432C29.9718 33.6437 28.8444 32.6947 27.7681 31.7456C26.3922 30.5317 24.8188 29.5825 23.232 28.6776C22.8215 28.4348 22.4021 28.2141 21.9937 27.9713C21.8273 27.8609 21.7252 27.8611 21.6054 28.0377C18.0724 33.4672 12.9016 36.3364 6.68785 37.5945C6.09754 37.7269 5.49837 37.7932 4.89919 37.8594C4.31776 37.9477 3.72966 37.9697 3.15045 37.9697C3.15045 37.9697 3.814 37.7709 4.15132 37.6826C7.42464 36.7777 10.4561 35.3432 13.2944 33.5113C15.3716 32.165 17.2469 30.5979 18.807 28.6556C19.2175 28.1701 19.5925 27.6402 19.9498 27.0885C20.0785 26.8898 20.0519 26.8238 19.85 26.7134C18.3254 25.8526 16.8141 24.9917 15.2873 24.153C12.2869 22.5198 10.0211 20.1361 8.32785 17.2006C7.3514 15.5011 6.70339 13.6914 6.54804 11.705C6.50588 11.1974 6.51922 10.4468 6.63018 9.80675C6.70563 9.40947 6.89203 8.94611 6.89203 8.94611Z" fill="#ED153E"/>
<path fill-rule="evenodd" clip-rule="evenodd" d="M28.8624 22.3962C29.4604 22.3741 30.1581 22.5283 30.8669 22.5723C32.0098 22.6605 33.0708 22.396 33.979 21.7131C34.7299 21.1183 35.1972 20.3693 35.0488 19.356C35.0222 19.1797 34.9669 19.0035 34.865 18.8493C34.2891 17.9241 34.6501 16.8226 35.2083 16.2719C35.9171 15.5669 37.0246 15.3687 37.9106 15.8313C39.0026 16.4261 39.5917 17.3735 39.8243 18.541C40.0946 19.9289 39.8199 21.2506 38.9937 22.3962C38.4488 23.1672 37.6027 23.4094 36.7366 23.5856C35.5007 23.8279 34.2337 23.9601 33.031 24.3566C31.8614 24.7532 30.7827 25.3481 29.6952 25.9208C29.1348 26.2072 28.5855 26.5596 27.9387 26.6478C26.9885 26.7799 26.2354 26.4494 25.8256 25.7225C25.4269 25.0175 25.5642 24.0482 26.1401 23.3653C26.829 22.5502 27.7549 22.3741 28.8624 22.3962Z" fill="#186FA1"/>
<path fill-rule="evenodd" clip-rule="evenodd" d="M11.7944 12.1626C11.8432 9.86633 13.395 7.94551 15.4841 7.50392C16.9249 7.19481 18.2702 8.07785 18.4789 9.46885C18.5988 10.2637 18.2081 11.2574 17.4976 11.5444C16.1124 12.1185 15.8349 13.6861 16.4498 15.0329C16.9382 16.0706 17.7552 16.7993 18.7697 17.3292C19.5712 17.7487 20.3748 18.1683 20.9875 18.8748C21.6757 19.6476 21.8778 20.5527 21.4937 21.5021C20.9809 22.8048 19.4757 23.1139 18.3923 22.1645C18.0282 21.8554 17.7796 21.4358 17.5643 21.0163C17.1291 20.1773 16.6984 19.3163 16.2478 18.4552C15.6284 17.3071 14.7825 16.3355 13.8524 15.4303C13.3728 14.9445 12.8955 14.4808 12.4826 13.9509C12.0541 13.3989 11.7611 12.7808 11.7944 12.1626Z" fill="#186FA1"/>
<path fill-rule="evenodd" clip-rule="evenodd" d="M28.7886 27.6767C30.7321 27.6767 32.6868 27.5886 34.6259 27.2576C37.0709 26.8604 39.4049 26.1543 41.5304 24.8304C43.4784 23.6168 44.6498 21.8956 45.2311 19.7111C45.8301 17.4604 45.839 15.2317 44.9294 13.0471C44.3836 11.7453 43.5449 10.6641 42.48 9.7153C42.4112 9.67117 42.2004 9.47249 42.1316 9.40629C42.6996 9.69315 43.2986 10.0904 43.7424 10.4876C45.1557 11.7674 46.0209 13.3782 46.4691 15.1876C47.0415 17.5045 46.935 19.7992 45.9633 22.0058C45.0447 24.102 43.3852 25.4482 41.3462 26.375C39.4226 27.2355 37.377 27.6326 35.2826 27.7871C33.2614 27.9636 31.2424 27.9415 29.2235 27.7429C29.0792 27.7208 28.9328 27.6988 28.7886 27.6767Z" fill="#186FA1"/>
<path fill-rule="evenodd" clip-rule="evenodd" d="M16.6368 26.2531C13.5848 26.297 10.5724 26.6045 7.67053 27.6149C5.09548 28.5154 2.86939 29.9212 1.23514 32.1615C0.789029 32.7546 0.446715 33.4134 0.181702 34.1162C0.203786 33.5451 0.371613 32.996 0.607917 32.4689C1.67239 30.1407 3.46565 28.5154 5.77569 27.4611C7.41657 26.7143 9.15683 26.3409 10.9435 26.1433C12.6705 25.9675 14.7729 26.0554 15.473 26.0993C15.6475 26.1212 16.6368 26.2531 16.6368 26.2531Z" fill="#186FA1"/>
<path fill-rule="evenodd" clip-rule="evenodd" d="M29.189 36.2482C29.189 36.2482 28.3447 37.0376 27.2756 37.4322C25.6774 38.0022 24.0505 38.1995 22.3861 37.7611C20.9863 37.4103 20.1861 36.4894 19.9855 35.0862C19.862 34.2093 19.937 33.3323 20.153 32.4553C20.1332 33.1569 20.1949 33.8586 20.4616 34.5163C21.0965 36.0948 22.3508 36.8401 23.9865 36.9716C25.7038 37.0813 26.5503 36.9937 27.5401 36.7745C28.5321 36.5333 29.189 36.2482 29.189 36.2482Z" fill="#186FA1"/>
<path fill-rule="evenodd" clip-rule="evenodd" d="M38.0275 11.8205C37.3245 11.8205 36.7701 12.3497 36.7657 13.0113C36.7635 13.695 37.2979 14.2464 37.9543 14.2685C38.6351 14.2685 39.216 13.7171 39.2227 13.0555C39.2271 12.3939 38.686 11.8426 38.0275 11.8205ZM36.2335 13.0555C36.2268 12.063 37.003 11.2911 37.9876 11.2911C38.961 11.2911 39.746 12.063 39.7482 13.0113C39.7549 13.9817 38.9898 14.7758 38.0275 14.7979C37.034 14.7979 36.2357 14.0479 36.2335 13.0555Z" fill="#186FA1"/>
<path fill-rule="evenodd" clip-rule="evenodd" d="M18.1002 6.40771C18.7713 6.38561 19.3269 5.85515 19.3269 5.19208C19.3269 4.529 18.7446 3.93232 18.0891 3.95442C17.4201 3.97653 16.869 4.50699 16.8623 5.17006C16.8556 5.83314 17.4224 6.40771 18.1002 6.40771ZM19.8514 5.21409C19.8381 6.1866 19.0514 6.93813 18.0513 6.91603C17.089 6.91603 16.3289 6.12034 16.3356 5.14783C16.3445 4.19742 17.1312 3.42388 18.1002 3.42388C19.0913 3.44598 19.8625 4.21948 19.8514 5.21409Z" fill="#186FA1"/>
<path fill-rule="evenodd" clip-rule="evenodd" d="M41.0866 13.9692C41.6317 13.9692 42.0793 14.4319 42.066 14.9829C42.0572 15.5118 41.6162 15.9306 41.08 15.9526C40.5437 15.9526 40.0828 15.4898 40.0784 14.9609C40.074 14.41 40.5327 13.9692 41.0866 13.9692Z" fill="#186FA1"/>
<path fill-rule="evenodd" clip-rule="evenodd" d="M15.4459 4.93837C15.4504 5.49085 15.0038 5.95493 14.4549 5.93284C13.9083 5.93284 13.4772 5.49094 13.4839 4.91635C13.4883 4.38597 13.9417 3.94381 14.4972 3.96591C15.026 3.96591 15.4459 4.40798 15.4459 4.93837Z" fill="#186FA1"/>
<path fill-rule="evenodd" clip-rule="evenodd" d="M13.0417 6.23543C13.0395 6.63304 12.6797 6.98644 12.2866 6.96435C11.8801 6.96435 11.5314 6.61082 11.5469 6.21321C11.5625 5.81559 11.9023 5.48429 12.2866 5.48429C12.6952 5.48429 13.0484 5.83781 13.0417 6.23543Z" fill="#186FA1"/>
<path fill-rule="evenodd" clip-rule="evenodd" d="M42.8333 17.245C42.8377 17.6414 42.4857 17.9937 42.0849 17.9937C41.6952 17.9937 41.3475 17.6633 41.3342 17.2889C41.3209 16.8925 41.6686 16.5181 42.0694 16.5181C42.4657 16.4961 42.8267 16.8486 42.8333 17.245Z" fill="#186FA1"/>
<path fill-rule="evenodd" clip-rule="evenodd" d="M41.971 18.6736C42.3229 18.6736 42.6349 19.0037 42.6393 19.3339C42.6438 19.708 42.3207 20.0381 41.9511 20.016C41.5926 20.016 41.2961 19.7079 41.2894 19.3558C41.2872 18.9816 41.5948 18.6736 41.971 18.6736Z" fill="#186FA1"/>
<path fill-rule="evenodd" clip-rule="evenodd" d="M11.837 7.99327C11.837 8.3686 11.5528 8.65562 11.1821 8.65562C10.8003 8.6777 10.4828 8.3686 10.4917 7.99327C10.5006 7.64001 10.8091 7.33091 11.1732 7.33091C11.5417 7.33091 11.837 7.64001 11.837 7.99327Z" fill="#186FA1"/>
<path fill-rule="evenodd" clip-rule="evenodd" d="M11.251 9.89263C11.2465 10.2236 10.9914 10.4886 10.6564 10.4665C10.2992 10.4665 10.0462 10.2237 10.0573 9.87065C10.0662 9.53965 10.3546 9.27472 10.6652 9.29679C10.9825 9.29679 11.2554 9.58369 11.251 9.89263Z" fill="#186FA1"/>
<path fill-rule="evenodd" clip-rule="evenodd" d="M41.2839 20.5879C41.6068 20.5879 41.8833 20.874 41.8833 21.1819C41.8811 21.4899 41.6046 21.7759 41.2839 21.7759C40.9366 21.7759 40.6756 21.5117 40.6845 21.1598C40.6911 20.8298 40.9455 20.5879 41.2839 20.5879Z" fill="#186FA1"/>
<path fill-rule="evenodd" clip-rule="evenodd" d="M62.5678 20.2774C63.1706 20.3203 63.6188 19.9769 63.8235 19.2473C63.9279 18.904 64.0012 18.5609 64.0746 18.2176C64.774 14.9132 65.4695 11.6517 66.1572 8.34735C66.2693 7.83237 66.2229 7.27424 65.7399 7.01675C65.2763 6.75927 64.8088 6.88826 64.4186 7.27449C63.9627 7.74655 63.7695 8.34735 63.6304 8.99106C63.3947 10.1497 63.1551 11.2655 62.9117 12.4242C62.4673 14.527 62.0192 16.6299 61.5826 18.7327C61.3507 19.8484 61.6096 20.2774 62.5678 20.2774ZM52.186 19.3764C52.6496 17.1878 53.1172 14.9988 53.6002 12.8102C54.0831 10.6645 54.3999 8.47609 55.0799 6.4162C56.2429 2.89723 58.4182 1.09459 61.8067 1.00876C64.3838 0.965841 66.9609 0.965841 69.538 1.00876C70.7744 1.05167 71.9837 1.35241 73.0887 1.99612C74.924 3.11189 75.9015 5.08569 75.519 7.53181C74.8467 11.7803 74.0663 16.072 72.9883 20.2347C71.9451 24.2686 69.4607 26.2423 65.6936 26.3282C63.2827 26.3711 60.8755 26.3711 58.4723 26.3282C55.0413 26.2853 53.264 24.8263 52.186 21.2644C52.186 20.6207 52.186 20.0201 52.186 19.3764Z" fill="#186FA1"/>
<path fill-rule="evenodd" clip-rule="evenodd" d="M207.454 0.429287C206.998 1.54523 206.874 2.74702 206.55 3.86296C206.411 4.33509 206.318 4.85032 206.198 5.32244C205.955 6.35255 205.51 6.78176 204.54 6.82468C203.918 6.8676 203.284 6.82468 202.662 6.82468C202.365 6.82468 202.187 6.8676 202.113 7.25389C200.923 12.8765 199.714 18.5419 198.512 24.1645C198.392 24.7225 198.69 25.023 199.088 25.3234C199.258 25.4522 199.575 25.4094 199.424 25.8386C199.323 26.139 199.227 26.3105 198.895 26.3105C195.927 26.3105 192.959 26.3105 189.991 26.3105C189.191 26.3105 188.836 25.6668 189.021 24.6796C189.265 23.3491 189.562 22.0615 189.833 20.8167C190.779 16.353 191.722 11.8891 192.681 7.42532C192.781 6.91027 192.661 6.82468 192.252 6.82468C191.711 6.8676 191.17 6.82451 190.633 6.86743C190.092 6.86743 189.57 6.99645 189.284 7.55442C189.068 7.94071 188.735 7.89762 188.492 7.81178C188.148 7.68301 188.426 7.33982 188.465 7.12521C188.789 5.58006 189.153 4.03473 189.508 2.44666C189.767 1.33071 190.072 0.987175 191.135 0.987175C195.618 0.944254 200.112 0.987175 204.598 0.987175C205.352 0.987175 206.121 0.944506 206.654 0.171928C206.847 -0.128517 207.191 0.128839 207.454 7.82013e-05C207.454 0.128839 207.454 0.300524 207.454 0.429287Z" fill="#186FA1"/>
<path fill-rule="evenodd" clip-rule="evenodd" d="M151.578 16.5015C151.895 16.5015 152.181 16.5871 152.285 16.0292C152.702 13.9264 153.177 11.8239 153.622 9.72113C153.653 9.59239 153.745 9.42056 153.502 9.33474C152.822 9.16308 151.408 10.0641 151.215 10.8795C150.905 12.124 150.62 13.3686 150.322 14.6131C150.005 15.9434 150.33 16.4586 151.578 16.5015ZM161.531 16.5015C162.813 16.4586 163.223 16.1151 163.513 14.8277C163.756 13.7548 163.988 12.682 164.201 11.6091C164.463 10.2788 164.054 9.67788 162.844 9.37748C162.416 9.29165 162.284 9.37774 162.203 9.84979C161.855 11.8238 161.484 13.7978 161.067 15.7719C160.936 16.3727 160.99 16.6302 161.531 16.5015ZM162.713 0.966457C163.598 0.966457 163.876 1.3096 163.837 2.29663C163.83 2.76869 163.772 3.19791 163.663 3.66997C163.532 4.09911 163.652 4.18503 164.023 4.18503C165.541 4.14211 167.067 4.14211 168.582 4.18503C170.035 4.22794 171.348 4.74308 172.415 5.85885C173.319 6.80296 173.643 7.96165 173.365 9.29199C172.863 11.6952 172.361 14.141 171.8 16.5442C171.093 19.677 167.952 22.3379 165.078 22.3808C163.466 22.4238 161.867 22.4238 160.256 22.3808C159.885 22.3808 159.661 22.4666 159.595 22.9386C159.529 23.4536 159.355 23.9687 159.371 24.5265C159.383 24.9557 159.541 25.2988 159.958 25.4276C160.109 25.4705 160.348 25.4277 160.229 25.7281C160.144 25.9426 160.229 26.3286 159.858 26.3286C159.753 26.3286 159.641 26.3286 159.529 26.3286C156.906 26.3286 154.282 26.3288 151.67 26.2859C150.654 26.2859 150.283 25.8569 150.43 24.7411C150.496 24.2262 150.608 23.668 150.747 23.196C150.905 22.6381 150.905 22.3379 150.225 22.3808C148.842 22.4667 147.455 22.4238 146.068 22.3808C143.723 22.3808 141.806 20.621 141.362 18.1749C141.231 17.4454 141.351 16.8017 141.501 16.1151C141.957 13.9265 142.394 11.7378 142.888 9.59205C143.564 6.63097 145.473 5.08639 147.996 4.35685C149.082 4.01354 153.297 4.14211 154.294 4.18503C154.646 4.18503 154.796 4.0562 154.843 3.66997C154.928 2.89751 155.159 2.0824 154.155 1.782C153.939 1.73908 154.051 1.48134 154.089 1.30969C154.143 1.00929 154.348 0.966457 154.58 0.966457C155.967 0.966457 161.392 0.966457 162.713 0.966457Z" fill="#186FA1"/>
<path fill-rule="evenodd" clip-rule="evenodd" d="M127.472 20.2537C128.179 20.2537 128.588 19.9106 128.793 19.0094C129.098 17.6361 129.361 16.2626 129.639 14.8894C130.087 12.6578 130.543 10.4694 130.98 8.28075C131.061 7.80869 131.192 7.29346 130.698 6.95014C130.254 6.69265 129.535 6.86448 129.164 7.33654C128.905 7.67986 128.774 8.06617 128.681 8.49532C128.252 10.5552 127.815 12.5721 127.398 14.632C127.108 16.0053 126.803 17.4214 126.54 18.8376C126.374 19.7817 126.707 20.2537 127.472 20.2537ZM126.347 26.3049C125.192 26.2191 123.565 26.4337 121.946 26.1762C119.099 25.79 117.368 23.6871 117.229 20.5114C117.163 18.8807 117.407 17.3357 117.75 15.7908C118.326 13.2159 118.743 10.555 119.443 8.02301C120.13 5.53396 121.239 3.34531 123.388 2.01495C124.334 1.41415 125.35 1.07092 126.409 1.028C129.164 0.899256 131.919 0.899256 134.674 1.028C137.324 1.15674 139.484 2.95941 140.207 5.57721C140.57 6.86465 140.504 8.23783 140.245 9.56819C139.612 12.7868 138.97 15.9622 138.271 19.1808C137.741 21.627 136.729 23.773 134.681 25.1034C133.433 25.9188 132.077 26.262 130.651 26.3049C129.369 26.3049 128.094 26.3049 126.347 26.3049Z" fill="#186FA1"/>
<path fill-rule="evenodd" clip-rule="evenodd" d="M86.6287 12.2695C87.1773 12.2265 87.6062 12.1838 88.0157 12.0121C88.3132 11.8405 88.5257 11.6258 88.5991 11.2825C88.8232 10.2097 89.0551 9.13681 89.2406 8.06395C89.3913 7.16276 89.1865 6.90544 88.379 6.73378C88.1819 6.69087 87.9849 6.69062 87.7917 6.69062C87.4285 6.6477 87.2237 6.73362 87.1387 7.20567C86.8683 8.66475 86.563 10.1237 86.2269 11.5398C86.08 12.1406 86.1998 12.3553 86.6287 12.2695ZM85.856 0.983118C88.236 0.983118 90.6276 0.98295 93.0116 1.02587C94.387 1.02587 95.7161 1.32652 96.9177 2.14188C98.5443 3.25765 99.2978 5.23162 98.8418 7.42024C98.3705 9.65178 97.8489 11.9263 97.2694 14.1578C96.6666 16.5181 94.7966 18.02 92.4165 18.0629C90.0906 18.1487 87.7723 18.106 85.4541 18.106C84.9827 18.106 84.778 18.2346 84.6736 18.7925C84.3491 20.5091 83.9395 22.1829 83.6034 23.8994C83.4836 24.5432 83.3986 25.2724 84.2757 25.4869C84.4882 25.5298 84.4689 25.7017 84.4032 25.8733C84.3375 26.045 84.3761 26.3452 84.0863 26.3452C83.9588 26.3452 83.8275 26.3452 83.6961 26.3452C80.9915 26.3452 78.2714 26.3452 75.5668 26.3452C74.1991 26.3452 73.7896 25.7874 74.0948 24.2854C74.4851 22.3543 74.9062 20.4234 75.3041 18.5352C76.3744 13.4284 77.4253 8.36452 78.5072 3.30065C78.6347 2.65694 78.4878 2.27071 77.9855 2.01323C77.7151 1.88448 77.576 1.79865 77.6572 1.36951C77.7615 0.983286 77.974 0.983118 78.2445 0.983118C80.7868 0.983118 85.856 0.983118 85.856 0.983118Z" fill="#186FA1"/>
<path fill-rule="evenodd" clip-rule="evenodd" d="M100.301 7.8028C100.75 5.87137 101.179 4.02569 101.596 2.13718C101.754 1.40753 102.183 1.06391 102.832 1.02099C103.261 0.978067 103.698 0.978235 104.135 0.978235C108.277 0.978235 112.416 0.978235 116.555 0.978235C117.327 0.978235 118.12 0.978067 118.668 0.162573C118.835 -0.0949516 119.144 0.0341454 119.441 0.0770664C119.005 1.96558 118.583 3.81117 118.12 5.65677C117.915 6.47226 117.3 6.77237 116.613 6.81529C115.959 6.85821 115.31 6.85821 114.657 6.81529C114.313 6.81529 114.174 6.94414 114.089 7.33043C112.911 12.953 111.709 18.5328 110.507 24.1554C110.38 24.7563 110.712 25.0996 111.133 25.3571C111.311 25.443 111.543 25.4432 111.419 25.8295C111.318 26.13 111.245 26.3442 110.909 26.3442C107.933 26.3013 104.966 26.3444 101.998 26.3015C101.198 26.3015 100.835 25.7007 101.02 24.6706C101.252 23.4259 101.522 22.1811 101.793 20.9364C102.74 16.4297 103.698 11.923 104.676 7.41635C104.761 6.98714 104.749 6.81529 104.293 6.81529C103.725 6.85821 103.157 6.81554 102.601 6.85846C102.137 6.85846 101.642 6.94422 101.391 7.41635C101.132 7.88848 100.777 7.84572 100.301 7.8028Z" fill="#186FA1"/>
<path fill-rule="evenodd" clip-rule="evenodd" d="M185.961 0.966232C182.986 0.966232 180.019 0.966232 177.052 0.966232C176.716 0.966232 176.631 1.13772 176.519 1.43812C176.372 1.86726 176.689 1.86735 176.862 1.95318C177.257 2.25358 177.562 2.55389 177.442 3.15469C177.133 4.52795 173.107 23.3244 172.856 24.6118C172.666 25.6418 173.022 26.2427 173.822 26.2856C176.789 26.2856 179.756 26.2856 182.724 26.2856C183.06 26.2856 183.153 26.1142 183.257 25.8138C183.404 25.3846 183.087 25.3845 182.921 25.2987C182.519 25.0412 182.221 24.6978 182.345 24.1399C182.643 22.7238 186.68 3.92748 186.92 2.64005C187.117 1.61011 186.754 0.966232 185.961 0.966232Z" fill="#186FA1"/>
<path d="M56.7085 31.3346H57.7588C57.8896 31.3346 57.9896 31.3773 58.055 31.4627C58.1204 31.5482 58.1512 31.6763 58.132 31.8045L57.6934 36.8037H56.6701L57.0894 32.2747H56.9779L55.7969 35.693C55.7315 35.9493 55.5738 36.0773 55.3314 36.0773H54.6235C54.3735 36.0773 54.2311 35.9063 54.2157 35.65L53.8695 32.2747H53.7387L53.0309 36.8037H51.9999L52.8193 31.7619C52.8463 31.6337 52.8924 31.5056 52.9578 31.4202C53.0232 31.3774 53.127 31.3346 53.2578 31.3346H54.2812C54.512 31.3346 54.6313 31.463 54.662 31.7193L54.9505 34.4967C54.9659 34.7103 54.9774 34.9666 54.9774 35.2657H55.089C55.1428 35.052 55.2198 34.7957 55.3044 34.4967L56.2315 31.7193C56.3085 31.463 56.4662 31.3346 56.7085 31.3346Z" fill="#ED153E"/>
<path d="M62.4504 32.2844H60.5962C60.4577 32.2844 60.3654 32.3273 60.3 32.37C60.2423 32.4554 60.1961 32.5408 60.1768 32.7117L60.0768 33.5237H62.0195L61.9195 34.4209H59.973L59.8345 35.4465C59.8153 35.6174 59.8345 35.703 59.8883 35.7457C59.9383 35.8311 60.0307 35.8738 60.1615 35.8738H61.985L61.9657 36.7709C61.5464 36.8136 60.8308 36.8564 59.8268 36.8564C59.4152 36.8564 59.1266 36.7281 58.942 36.4717C58.7535 36.2581 58.6804 35.9166 58.7381 35.532L59.1266 32.37C59.1651 32.0282 59.2844 31.7719 59.4922 31.601C59.696 31.3873 59.9653 31.3018 60.3077 31.3018C61.3425 31.3018 62.1042 31.3446 62.5773 31.3873L62.4504 32.2844Z" fill="#ED153E"/>
<path d="M64.1701 33.8997H64.9049C65.2011 33.8997 65.405 33.8568 65.5166 33.7286C65.6281 33.6005 65.7127 33.3867 65.7589 33.0022C65.805 32.7031 65.7897 32.4894 65.7051 32.3612C65.6204 32.2331 65.4511 32.1906 65.1934 32.1906H64.3817L64.1701 33.8997ZM62.7159 36.8052L63.4161 31.336C63.8547 31.2933 64.4586 31.2505 65.228 31.2505C65.8897 31.2505 66.3475 31.3787 66.5976 31.6778C66.8476 31.9341 66.9245 32.4041 66.8399 33.0877C66.7553 33.7714 66.5784 34.2413 66.3168 34.4977C66.059 34.7113 65.6128 34.8398 64.978 34.8398C64.6549 34.8398 64.3471 34.797 64.0585 34.7543L63.8047 36.8052H62.7159Z" fill="#ED153E"/>
<path d="M70.9252 32.2844H69.0748C68.9325 32.2844 68.8401 32.3273 68.7747 32.37C68.7209 32.4554 68.6824 32.5408 68.6632 32.7117L68.5516 33.5237H70.4982L70.402 34.4209H68.4477L68.3208 35.4465C68.3016 35.6174 68.3092 35.703 68.3669 35.7457C68.4131 35.8311 68.5054 35.8738 68.6362 35.8738H70.4598L70.4405 36.7709C70.0212 36.8136 69.3056 36.8564 68.3016 36.8564C67.9015 36.8564 67.6014 36.7281 67.4168 36.4717C67.2321 36.2581 67.1551 35.9166 67.2129 35.532L67.6014 32.37C67.6399 32.0282 67.7706 31.7719 67.9668 31.601C68.1707 31.3873 68.4401 31.3018 68.7863 31.3018C69.8173 31.3018 70.5789 31.3446 71.056 31.3873L70.9252 32.2844Z" fill="#ED153E"/>
<path d="M75.9201 33.9404L75.9086 33.9833C76.0394 34.0261 76.1624 34.0262 76.2547 34.0689C76.3471 34.1116 76.4318 34.1971 76.5048 34.2825C76.5779 34.368 76.6433 34.4531 76.6895 34.5813C76.7472 34.6667 76.7933 34.8377 76.8395 35.0086C76.8856 35.2222 76.9318 35.3933 76.9703 35.6069C77.0088 35.7778 77.0549 36.0341 77.1088 36.3759C77.1395 36.5469 77.1665 36.7178 77.1858 36.8032H76.0971C76.0663 36.675 76.0316 36.4187 75.9855 36.1623C75.9393 35.9059 75.9085 35.6925 75.8816 35.5644C75.8624 35.4362 75.8354 35.308 75.7893 35.1371C75.7508 34.9662 75.7162 34.8378 75.6854 34.7524L75.5546 34.5813L75.3815 34.4106C75.3161 34.4106 75.2315 34.4106 75.1392 34.4106H74.8121C74.8198 34.5815 74.8198 34.7524 74.7929 34.966L74.5621 36.8032H73.5081L73.7504 34.8805C73.7696 34.7523 73.8158 34.5815 73.8735 34.4106H73.5657C73.2964 34.4106 73.081 34.5386 72.9233 34.7949C72.7541 35.0513 72.4847 35.6071 72.1231 36.4189C72.0577 36.5898 72.0039 36.7178 71.9654 36.8032H70.8036C70.9152 36.5469 70.996 36.3335 71.046 36.2053C71.0998 36.0771 71.1652 35.9059 71.2499 35.735C71.3422 35.5214 71.4076 35.3506 71.4461 35.2652C71.4922 35.1797 71.5461 35.0944 71.6192 34.9234C71.6961 34.7953 71.75 34.7097 71.7962 34.6243L71.9654 34.4106L72.1501 34.2395L72.3463 34.1114L72.5809 34.0259C72.654 33.9832 72.7464 33.9831 72.8387 33.9404L72.8503 33.8978C72.7079 33.8978 72.5963 33.855 72.4963 33.8123C72.4039 33.7695 72.3193 33.6841 72.2424 33.5986C72.1693 33.5132 72.1155 33.3851 72.0578 33.2569C72.0116 33.1714 71.9654 33.0005 71.9192 32.8296C71.8808 32.6587 71.8423 32.4451 71.8077 32.2742C71.7692 32.0606 71.7308 31.8043 71.6846 31.5052L71.6577 31.3341H72.7387C72.7541 31.4196 72.7733 31.5477 72.7925 31.6759C72.8387 31.975 72.8694 32.146 72.8848 32.2742C72.904 32.4024 72.931 32.5732 72.9694 32.7441C73.0156 32.915 73.0425 33.0431 73.081 33.0858L73.2118 33.3424L73.3888 33.5131C73.4542 33.5131 73.5273 33.5561 73.6196 33.5561H73.9928C73.9735 33.2997 73.9851 33.0858 74.012 32.8722L74.2081 31.3341H75.2507L75.043 32.9151C75.0161 33.1288 74.9814 33.3424 74.9314 33.5561H75.1737C75.443 33.5561 75.6585 33.3852 75.8278 33.1288C75.9932 32.8724 76.2355 32.3594 76.551 31.5903C76.6087 31.4621 76.6433 31.3769 76.6741 31.3341H77.7897C77.4165 32.2741 77.1934 32.8295 77.1088 32.9577C76.9049 33.385 76.6626 33.6841 76.401 33.8123C76.2625 33.8977 76.1048 33.8976 75.9201 33.9404Z" fill="#ED153E"/>
<path d="M80.6103 34.4111L80.4141 32.7446C80.4064 32.6591 80.3872 32.4881 80.3756 32.2317H80.1717C80.0871 32.4881 80.0217 32.6591 79.9948 32.7446L79.3793 34.4111H80.6103ZM80.7219 35.3938H79.0177L78.4868 36.8037H77.352L79.4255 31.6338C79.4909 31.4202 79.6217 31.3346 79.8178 31.3346H80.8527C80.945 31.3346 81.0181 31.3774 81.0912 31.4202C81.1566 31.5056 81.1951 31.5909 81.2028 31.6764L81.976 36.8037H80.8873L80.7219 35.3938Z" fill="#ED153E"/>
<path d="M86.5539 32.2002C86.173 32.2002 85.9038 32.3286 85.7461 32.585C85.5768 32.8413 85.446 33.3539 85.3459 34.123C85.2498 34.8494 85.2613 35.3196 85.3536 35.576C85.446 35.8323 85.6807 35.9603 86.05 35.9603C86.4231 35.9603 86.6924 35.7894 86.8616 35.533C87.0271 35.2766 87.1694 34.7639 87.2695 34.0375C87.3618 33.3111 87.3618 32.7986 87.2618 32.585C87.1694 32.3286 86.927 32.2002 86.5539 32.2002ZM84.9266 31.8159C85.2805 31.4314 85.8384 31.2176 86.5924 31.2176C87.3541 31.2176 87.8735 31.4312 88.162 31.8585C88.4621 32.2858 88.5351 33.0548 88.4043 34.123C88.2735 35.1912 88.035 35.9179 87.6811 36.3024C87.3349 36.7297 86.777 36.9004 86.023 36.9004C85.2498 36.9004 84.7227 36.6867 84.4419 36.2595C84.1533 35.8749 84.0687 35.1057 84.1995 34.0375C84.3303 32.9693 84.5804 32.2432 84.9266 31.8159Z" fill="#ED153E"/>
<path d="M90.3492 33.8997H91.084C91.3841 33.8997 91.588 33.8568 91.6995 33.7286C91.8111 33.6005 91.8957 33.3867 91.9419 33.0022C91.9765 32.7031 91.9611 32.4894 91.8842 32.3612C91.7996 32.2331 91.6341 32.1906 91.3725 32.1906H90.5647L90.3492 33.8997ZM88.8989 36.8052L89.5953 31.336C90.0338 31.2933 90.6378 31.2505 91.411 31.2505C92.0727 31.2505 92.5267 31.3787 92.7767 31.6778C93.0306 31.9341 93.1037 32.4041 93.019 33.0877C92.9344 33.7714 92.7574 34.2413 92.4997 34.4977C92.2381 34.7113 91.7918 34.8398 91.1609 34.8398C90.8339 34.8398 90.5262 34.797 90.2454 34.7543L89.9877 36.8052H88.8989Z" fill="#ED153E"/>
<path d="M97.4753 32.3173H95.998L95.4287 36.8037H94.3399L94.9093 32.3173H93.4398L93.5706 31.3346H97.5983L97.4753 32.3173Z" fill="#ED153E"/>
<path d="M100.027 32.2002C99.6458 32.2002 99.365 32.3286 99.2073 32.585C99.0496 32.8413 98.9111 33.3539 98.8187 34.123C98.7226 34.8494 98.7226 35.3196 98.8187 35.576C98.9188 35.8323 99.1535 35.9603 99.5151 35.9603C99.8959 35.9603 100.165 35.7894 100.334 35.533C100.5 35.2766 100.631 34.7639 100.735 34.0375C100.827 33.3111 100.827 32.7986 100.723 32.585C100.631 32.3286 100.4 32.2002 100.027 32.2002ZM98.3994 31.8159C98.7418 31.4314 99.2996 31.2176 100.065 31.2176C100.815 31.2176 101.346 31.4312 101.635 31.8585C101.923 32.2858 102.008 33.0548 101.869 34.123C101.739 35.1912 101.504 35.9179 101.15 36.3024C100.8 36.7297 100.25 36.9004 99.4958 36.9004C98.7226 36.9004 98.1916 36.6867 97.9031 36.2595C97.6184 35.8749 97.5415 35.1057 97.6646 34.0375C97.8031 32.9693 98.0455 32.2432 98.3994 31.8159Z" fill="#ED153E"/>
<path d="M106.966 31.3341L106.269 36.8032H105.169L105.758 32.1887H104.046L103.457 36.8032H102.361L103.057 31.3341H106.966Z" fill="#ED153E"/>
<path d="M111.114 32.2844H109.271C109.133 32.2844 109.033 32.3273 108.975 32.37C108.91 32.4554 108.875 32.5408 108.856 32.7117L108.752 33.5237H110.695L110.595 34.4209H108.648L108.51 35.4465C108.49 35.6174 108.51 35.703 108.556 35.7457C108.613 35.8311 108.706 35.8738 108.837 35.8738H110.66L110.641 36.7709C110.214 36.8136 109.498 36.8564 108.502 36.8564C108.09 36.8564 107.794 36.7281 107.609 36.4717C107.421 36.2581 107.356 35.9166 107.413 35.532L107.794 32.37C107.84 32.0282 107.959 31.7719 108.167 31.601C108.371 31.3873 108.64 31.3018 108.975 31.3018C110.018 31.3018 110.779 31.3446 111.256 31.3873L111.114 32.2844Z" fill="#ED153E"/>
<path d="M114.39 35.9491L114.875 32.1892H114.286C114.14 32.1892 114.017 32.2318 113.932 32.3173C113.84 32.4027 113.786 32.5311 113.748 32.702C113.478 34.112 113.163 35.18 112.79 35.9491H114.39ZM116.017 36.7611L115.871 38H115.052L115.117 36.8037H111.916L111.682 38H110.855L111.005 36.8037L111.116 35.9491H111.609C111.859 35.4364 112.074 34.881 112.24 34.3256C112.417 33.7701 112.574 33.129 112.724 32.4454C112.79 32.0608 112.928 31.8047 113.144 31.6338C113.359 31.4201 113.628 31.3346 113.963 31.3346H116.063L115.479 35.9491H116.121L116.017 36.7611Z" fill="#ED153E"/>
<path d="M120.745 36.8037H119.691L120.103 33.6847C120.141 33.3856 120.195 33.0866 120.279 32.7875H120.233C120.064 33.1721 119.945 33.3854 119.868 33.5136L117.794 36.8037H116.667L117.367 31.3346H118.418L118.029 34.4537C117.991 34.71 117.925 35.0094 117.833 35.3512H117.887C117.991 35.0948 118.121 34.8381 118.268 34.5818L120.326 31.3346H121.434L120.745 36.8037Z" fill="#ED153E"/>
<path d="M126.111 31.3341L125.415 36.8032H124.314L124.622 34.4962C124.084 34.7953 123.58 34.966 123.114 34.966C122.668 34.966 122.364 34.8379 122.175 34.6243C121.991 34.4106 121.925 34.0686 121.979 33.5986L122.268 31.3341H123.356L123.106 33.385C123.068 33.5986 123.087 33.7268 123.164 33.8123C123.226 33.8977 123.356 33.9404 123.545 33.9404C123.914 33.9404 124.314 33.8124 124.734 33.5561L125.015 31.3341H126.111Z" fill="#ED153E"/>
<path d="M131.024 31.3346L130.335 36.8037H129.239L129.555 34.3681H127.835L127.527 36.8037H126.427L127.127 31.3346H128.223L127.954 33.4285H129.666L129.935 31.3346H131.024Z" fill="#ED153E"/>
<path d="M135.417 36.8032H134.374L134.782 33.6842C134.82 33.3851 134.874 33.0861 134.951 32.787H134.913C134.743 33.1716 134.616 33.3849 134.54 33.5131L132.474 36.8032H131.35L132.047 31.3341H133.097L132.697 34.4532C132.67 34.7096 132.605 35.0089 132.512 35.3507H132.558C132.662 35.0944 132.793 34.8377 132.951 34.5813L134.997 31.3341H136.113L135.417 36.8032Z" fill="#ED153E"/>
<path d="M139.499 33.9833L140.423 36.8032H139.322L138.607 34.3676H138.534L137.195 36.8032H135.995L137.641 33.9833L136.803 31.3341H137.88L138.522 33.5986H138.618L139.88 31.3341H141.027L139.499 33.9833Z" fill="#ED153E"/>
<path d="M147.139 35.9491L147.035 36.8037L146.889 38H146.07L146.143 36.8037H142.561L143.258 31.3346H144.346L143.769 35.9491H145.416L145.993 31.3346H147.093L146.504 35.9491H147.139Z" fill="#ED153E"/>
<path d="M151.519 32.2844H149.68C149.538 32.2844 149.438 32.3273 149.38 32.37C149.326 32.4554 149.28 32.5408 149.261 32.7117L149.157 33.5237H151.103L150.999 34.4209H149.057L148.914 35.4465C148.899 35.6174 148.914 35.703 148.961 35.7457C149.018 35.8311 149.111 35.8738 149.241 35.8738H151.065L151.046 36.7709C150.619 36.8136 149.911 36.8564 148.907 36.8564C148.499 36.8564 148.199 36.7281 148.014 36.4717C147.826 36.2581 147.76 35.9166 147.818 35.532L148.199 32.37C148.245 32.0282 148.368 31.7719 148.572 31.601C148.776 31.3873 149.045 31.3018 149.38 31.3018C150.422 31.3018 151.184 31.3446 151.661 31.3873L151.519 32.2844Z" fill="#ED153E"/>
<path d="M156.395 31.3346L155.698 36.8037H154.598L154.917 34.3681H153.194L152.898 36.8037H151.797L152.486 31.3346H153.586L153.325 33.4285H155.029L155.298 31.3346H156.395Z" fill="#ED153E"/>
<path d="M160.919 32.3168H159.446L158.88 36.8032H157.784L158.349 32.3168H156.887L157.011 31.3341H161.038L160.919 32.3168Z" fill="#ED153E"/>
<path d="M162.423 33.8997H163.158C163.458 33.8997 163.662 33.8568 163.774 33.7286C163.885 33.6005 163.958 33.3867 164.008 33.0022C164.054 32.7031 164.035 32.4894 163.951 32.3612C163.866 32.2331 163.701 32.1906 163.447 32.1906H162.639L162.423 33.8997ZM160.965 36.8052L161.662 31.336C162.1 31.2933 162.704 31.2505 163.485 31.2505C164.147 31.2505 164.601 31.3787 164.843 31.6778C165.093 31.9341 165.178 32.4041 165.093 33.0877C165.001 33.7714 164.835 34.2413 164.566 34.4977C164.304 34.7113 163.858 34.8398 163.223 34.8398C162.908 34.8398 162.6 34.797 162.312 34.7543L162.054 36.8052H160.965Z" fill="#ED153E"/>
<path d="M166.423 36.8037H165.346L166.035 31.3346H167.124L166.423 36.8037Z" fill="#ED153E"/>
<path d="M168.917 33.575H169.679C169.948 33.575 170.137 33.5321 170.248 33.4039C170.368 33.3184 170.445 33.1046 170.479 32.8055C170.518 32.5492 170.491 32.3784 170.406 32.3357C170.321 32.2502 170.156 32.2076 169.895 32.2076H169.102L168.917 33.575ZM168.621 35.9676H169.383C169.698 35.9676 169.921 35.9247 170.045 35.7965C170.164 35.7111 170.248 35.4974 170.283 35.1556C170.322 34.8565 170.302 34.6431 170.221 34.5577C170.125 34.4295 169.941 34.3866 169.644 34.3866H168.814L168.621 35.9676ZM167.448 36.8222L168.136 31.353C168.563 31.2676 169.16 31.2675 169.933 31.2675C170.572 31.2675 171.01 31.3958 171.26 31.5667C171.514 31.823 171.599 32.2075 171.533 32.763C171.476 33.1475 171.372 33.4466 171.226 33.6175C171.076 33.8312 170.845 33.9166 170.525 33.9593V34.0023C171.206 34.0877 171.495 34.5577 171.364 35.4978C171.299 36.0532 171.133 36.3949 170.872 36.6085C170.602 36.7794 170.171 36.9077 169.568 36.9077C168.637 36.9077 167.933 36.8649 167.448 36.8222Z" fill="#ED153E"/>
<path d="M174.045 32.2931L174.007 31.4386C174.453 31.3104 174.973 31.2675 175.569 31.2675C176.184 31.2675 176.611 31.3956 176.861 31.6092C177.115 31.8229 177.208 32.2075 177.131 32.763C177.077 33.1475 176.984 33.4466 176.834 33.6175C176.684 33.8312 176.454 33.9166 176.146 33.9593L176.138 34.0023C176.788 34.0877 177.05 34.5577 176.927 35.4978C176.861 36.0532 176.704 36.3949 176.454 36.6085C176.203 36.7794 175.784 36.9077 175.196 36.9077C174.461 36.9077 173.83 36.822 173.299 36.6511L173.43 35.8395C174.007 35.925 174.526 35.9676 174.972 35.9676C175.273 35.9676 175.484 35.9247 175.607 35.7965C175.726 35.6683 175.811 35.4974 175.85 35.1556C175.896 34.8565 175.869 34.6858 175.784 34.5577C175.692 34.4295 175.503 34.4296 175.226 34.4296H174.268L174.361 33.532H175.273C175.534 33.532 175.719 33.4894 175.83 33.4039C175.942 33.2757 176.007 33.1046 176.042 32.8055C176.08 32.5492 176.054 32.3786 175.969 32.2931C175.884 32.2504 175.719 32.2076 175.45 32.2076C175.084 32.2076 174.611 32.2504 174.045 32.2931Z" fill="#ED153E"/>
<path d="M180.592 35.9491L181.069 32.1892H180.492C180.334 32.1892 180.223 32.2318 180.131 32.3173C180.046 32.4027 179.988 32.5311 179.954 32.702C179.673 34.112 179.357 35.18 178.996 35.9491H180.592ZM182.223 36.7611L182.066 38H181.246L181.319 36.8037H178.111L177.876 38H177.049L177.207 36.8037L177.311 35.9491H177.803C178.065 35.4364 178.276 34.881 178.446 34.3256C178.611 33.7701 178.769 33.129 178.919 32.4454C178.984 32.0608 179.123 31.8047 179.338 31.6338C179.554 31.4201 179.823 31.3346 180.158 31.3346H182.27L181.673 35.9491H182.323L182.223 36.7611Z" fill="#ED153E"/>
<path d="M185.35 32.2002C184.97 32.2002 184.7 32.3286 184.531 32.585C184.373 32.8413 184.243 33.3539 184.143 34.123C184.046 34.8494 184.058 35.3196 184.15 35.576C184.243 35.8323 184.477 35.9603 184.846 35.9603C185.22 35.9603 185.489 35.7894 185.658 35.533C185.824 35.2766 185.966 34.7639 186.066 34.0375C186.158 33.3111 186.158 32.7986 186.058 32.585C185.966 32.3286 185.724 32.2002 185.35 32.2002ZM183.723 31.8159C184.077 31.4314 184.635 31.2176 185.389 31.2176C186.151 31.2176 186.67 31.4312 186.97 31.8585C187.259 32.2858 187.332 33.0548 187.201 34.123C187.07 35.1912 186.828 35.9179 186.478 36.3024C186.131 36.7297 185.574 36.9004 184.82 36.9004C184.046 36.9004 183.515 36.6867 183.231 36.2595C182.95 35.8749 182.865 35.1057 182.996 34.0375C183.135 32.9693 183.369 32.2432 183.723 31.8159Z" fill="#ED153E"/>
<path d="M189.144 33.8997H189.879C190.179 33.8997 190.383 33.8568 190.494 33.7286C190.606 33.6005 190.69 33.3867 190.737 33.0022C190.783 32.7031 190.764 32.4894 190.679 32.3612C190.594 32.2331 190.429 32.1906 190.167 32.1906H189.359L189.144 33.8997ZM187.694 36.8052L188.39 31.336C188.828 31.2933 189.433 31.2505 190.206 31.2505C190.864 31.2505 191.321 31.3787 191.571 31.6778C191.825 31.9341 191.898 32.4041 191.814 33.0877C191.729 33.7714 191.552 34.2413 191.294 34.4977C191.033 34.7113 190.587 34.8398 189.956 34.8398C189.629 34.8398 189.321 34.797 189.032 34.7543L188.782 36.8052H187.694Z" fill="#ED153E"/>
<path d="M194.598 32.2002C194.217 32.2002 193.936 32.3286 193.778 32.585C193.609 32.8413 193.49 33.3539 193.386 34.123C193.293 34.8494 193.293 35.3196 193.386 35.576C193.49 35.8323 193.72 35.9603 194.086 35.9603C194.467 35.9603 194.736 35.7894 194.905 35.533C195.071 35.2766 195.202 34.7639 195.305 34.0375C195.398 33.3111 195.398 32.7986 195.305 32.585C195.202 32.3286 194.971 32.2002 194.598 32.2002ZM192.97 31.8159C193.313 31.4314 193.87 31.2176 194.632 31.2176C195.386 31.2176 195.917 31.4312 196.206 31.8585C196.494 32.2858 196.579 33.0548 196.44 34.123C196.309 35.1912 196.075 35.9179 195.721 36.3024C195.371 36.7297 194.821 36.9004 194.067 36.9004C193.293 36.9004 192.762 36.6867 192.474 36.2595C192.185 35.8749 192.112 35.1057 192.243 34.0375C192.374 32.9693 192.616 32.2432 192.97 31.8159Z" fill="#ED153E"/>
<path d="M198.408 33.575H199.162C199.432 33.575 199.628 33.5321 199.739 33.4039C199.851 33.3184 199.928 33.1046 199.974 32.8055C200.001 32.5492 199.974 32.3784 199.897 32.3357C199.805 32.2502 199.639 32.2076 199.386 32.2076H198.585L198.408 33.575ZM198.101 35.9676H198.866C199.182 35.9676 199.405 35.9247 199.536 35.7965C199.655 35.7111 199.739 35.4974 199.778 35.1556C199.816 34.8565 199.786 34.6431 199.701 34.5577C199.62 34.4295 199.424 34.3866 199.136 34.3866H198.308L198.101 35.9676ZM196.931 36.8222L197.627 31.353C198.047 31.2676 198.643 31.2675 199.424 31.2675C200.055 31.2675 200.501 31.3958 200.744 31.5667C200.997 31.823 201.09 32.2075 201.013 32.763C200.959 33.1475 200.855 33.4466 200.709 33.6175C200.559 33.8312 200.328 33.9166 200.02 33.9593L200.009 34.0023C200.697 34.0877 200.978 34.5577 200.855 35.4978C200.782 36.0532 200.613 36.3949 200.355 36.6085C200.093 36.7794 199.655 36.9077 199.062 36.9077C198.12 36.9077 197.416 36.8649 196.931 36.8222Z" fill="#ED153E"/>
<path d="M202.367 31.1828H202.59C202.721 31.1828 202.813 31.2256 202.867 31.2684C202.913 31.3111 202.933 31.4394 202.913 31.5675L202.86 32.0374C202.802 32.4647 202.636 32.9345 202.356 33.3618L201.909 33.1912C202.032 32.8493 202.113 32.5501 202.179 32.251C201.967 32.251 201.871 32.1657 201.902 31.9093L201.948 31.5246C201.975 31.3964 202.013 31.3111 202.067 31.2684C202.132 31.1829 202.236 31.1828 202.367 31.1828Z" fill="#ED153E"/>
<path d="M205.928 33.7716L206.125 32.1906H205.39C205.117 32.1906 204.924 32.2332 204.801 32.3187C204.69 32.4469 204.616 32.618 204.578 32.9171C204.543 33.2162 204.57 33.4298 204.643 33.558C204.728 33.7289 204.905 33.7716 205.155 33.7716H205.928ZM204.27 34.284H204.282C203.955 34.1986 203.732 34.028 203.601 33.7716C203.482 33.4725 203.443 33.1305 203.489 32.746C203.555 32.1905 203.743 31.806 204.039 31.5497C204.347 31.3787 204.801 31.2505 205.405 31.2505C206.224 31.2505 206.859 31.2933 207.332 31.336L206.636 36.8052H205.536L205.805 34.7113H205.128C204.97 34.7113 204.847 34.7541 204.755 34.7969C204.663 34.8823 204.59 35.0107 204.524 35.1816L203.966 36.8052H202.774L203.397 35.096C203.593 34.5833 203.889 34.3268 204.27 34.284Z" fill="#ED153E"/>
</svg>
