<svg width="302" height="84" viewBox="0 0 302 84" fill="none" xmlns="http://www.w3.org/2000/svg">
<path d="M98.5454 56.0001C95.6767 56.0001 93.1815 55.5417 91.0599 54.6249C88.9682 53.708 87.3097 52.3328 86.0845 50.4991C84.8892 48.6349 84.2468 46.3276 84.1571 43.5771C84.1272 42.2935 84.1123 40.9794 84.1123 39.6347C84.1123 38.2595 84.1272 36.8995 84.1571 35.5548C84.2468 32.8349 84.8892 30.5428 86.0845 28.6786C87.3097 26.8144 88.9831 25.4086 91.1047 24.4612C93.2264 23.4832 95.7066 22.9942 98.5454 22.9942C101.354 22.9942 103.82 23.4832 105.941 24.4612C108.063 25.4086 109.736 26.8144 110.961 28.6786C112.187 30.5428 112.829 32.8349 112.889 35.5548C112.949 36.8995 112.978 38.2595 112.978 39.6347C112.978 40.9794 112.949 42.2935 112.889 43.5771C112.799 46.3276 112.142 48.6349 110.917 50.4991C109.721 52.3328 108.063 53.708 105.941 54.6249C103.849 55.5417 101.384 56.0001 98.5454 56.0001ZM98.5454 48.2071C99.8004 48.2071 100.831 47.8251 101.638 47.061C102.445 46.2664 102.863 45.0134 102.893 43.302C102.953 41.9879 102.983 40.7196 102.983 39.4972C102.983 38.2442 102.953 36.9759 102.893 35.6923C102.863 34.5616 102.654 33.6295 102.266 32.896C101.907 32.1625 101.399 31.6277 100.742 31.2916C100.114 30.9554 99.3821 30.7873 98.5454 30.7873C97.7087 30.7873 96.9616 30.9554 96.3042 31.2916C95.6468 31.6277 95.1239 32.1625 94.7354 32.896C94.3768 33.6295 94.1826 34.5616 94.1527 35.6923C94.1228 36.9759 94.1079 38.2442 94.1079 39.4972C94.1079 40.7196 94.1228 41.9879 94.1527 43.302C94.2125 45.0134 94.6308 46.2664 95.4078 47.061C96.2146 47.8251 97.2605 48.2071 98.5454 48.2071Z" fill="#00719B"/>
<path d="M117.396 55.5417C117.098 55.5417 116.829 55.4347 116.59 55.2208C116.35 54.9763 116.231 54.686 116.231 54.3498V24.6445C116.231 24.3084 116.35 24.0333 116.59 23.8194C116.829 23.5749 117.098 23.4527 117.396 23.4527H130.485C133.085 23.4527 135.341 23.85 137.253 24.6445C139.195 25.4391 140.704 26.6463 141.78 28.266C142.856 29.8858 143.394 31.9181 143.394 34.3629C143.394 36.8078 142.856 38.8248 141.78 40.414C140.704 41.9726 139.195 43.1187 137.253 43.8521C135.341 44.5856 133.085 44.9523 130.485 44.9523H126.227V54.3498C126.227 54.686 126.107 54.9763 125.868 55.2208C125.659 55.4347 125.39 55.5417 125.061 55.5417H117.396ZM126.047 37.5718H130.261C131.127 37.5718 131.859 37.3121 132.457 36.7925C133.085 36.2424 133.398 35.402 133.398 34.2713C133.398 33.4155 133.159 32.6362 132.681 31.9333C132.203 31.2304 131.396 30.879 130.261 30.879H126.047V37.5718Z" fill="#00719B"/>
<path d="M153.99 55.5417C153.662 55.5417 153.378 55.4347 153.139 55.2208C152.93 54.9763 152.825 54.686 152.825 54.3498V31.9792H145.115C144.787 31.9792 144.503 31.8722 144.264 31.6583C144.055 31.4138 143.95 31.1235 143.95 30.7873V24.6445C143.95 24.3084 144.055 24.0333 144.264 23.8194C144.503 23.5749 144.787 23.4527 145.115 23.4527H170.306C170.635 23.4527 170.904 23.5749 171.113 23.8194C171.352 24.0333 171.471 24.3084 171.471 24.6445V30.7873C171.471 31.1235 171.352 31.4138 171.113 31.6583C170.904 31.8722 170.635 31.9792 170.306 31.9792H162.596V54.3498C162.596 54.686 162.477 54.9763 162.238 55.2208C162.029 55.4347 161.76 55.5417 161.431 55.5417H153.99Z" fill="#00719B"/>
<path d="M187.309 56.0001C184.441 56.0001 181.946 55.5417 179.824 54.6249C177.732 53.708 176.074 52.3328 174.849 50.4991C173.653 48.6349 173.011 46.3276 172.921 43.5771C172.891 42.2935 172.876 40.9794 172.876 39.6347C172.876 38.2595 172.891 36.8995 172.921 35.5548C173.011 32.8349 173.653 30.5428 174.849 28.6786C176.074 26.8144 177.747 25.4086 179.869 24.4612C181.99 23.4832 184.471 22.9942 187.309 22.9942C190.118 22.9942 192.584 23.4832 194.705 24.4612C196.827 25.4086 198.5 26.8144 199.725 28.6786C200.951 30.5428 201.593 32.8349 201.653 35.5548C201.713 36.8995 201.743 38.2595 201.743 39.6347C201.743 40.9794 201.713 42.2935 201.653 43.5771C201.563 46.3276 200.906 48.6349 199.681 50.4991C198.485 52.3328 196.827 53.708 194.705 54.6249C192.614 55.5417 190.148 56.0001 187.309 56.0001ZM187.309 48.2071C188.564 48.2071 189.595 47.8251 190.402 47.061C191.209 46.2664 191.627 45.0134 191.657 43.302C191.717 41.9879 191.747 40.7196 191.747 39.4972C191.747 38.2442 191.717 36.9759 191.657 35.6923C191.627 34.5616 191.418 33.6295 191.03 32.896C190.671 32.1625 190.163 31.6277 189.506 31.2916C188.878 30.9554 188.146 30.7873 187.309 30.7873C186.473 30.7873 185.726 30.9554 185.068 31.2916C184.411 31.6277 183.888 32.1625 183.499 32.896C183.141 33.6295 182.947 34.5616 182.917 35.6923C182.887 36.9759 182.872 38.2442 182.872 39.4972C182.872 40.7196 182.887 41.9879 182.917 43.302C182.977 45.0134 183.395 46.2664 184.172 47.061C184.979 47.8251 186.025 48.2071 187.309 48.2071Z" fill="#00719B"/>
<path d="M220.056 57.0086C219.727 57.0086 219.443 56.8864 219.204 56.6419C218.995 56.428 218.89 56.1529 218.89 55.8168V52.8371C214.408 52.8371 210.897 51.8133 208.357 49.7657C205.817 47.7181 204.412 44.662 204.143 40.5974C204.113 40.414 204.099 40.0778 204.099 39.5889C204.099 39.0999 204.099 38.6109 204.099 38.1219C204.128 37.6024 204.143 37.2662 204.143 37.1134C204.293 34.4546 204.98 32.2084 206.205 30.3747C207.43 28.5411 209.119 27.1353 211.27 26.1573C213.452 25.1794 215.992 24.6904 218.89 24.6904V22.3066C218.89 21.9705 218.995 21.6954 219.204 21.4815C219.443 21.237 219.727 21.1147 220.056 21.1147H227.362C227.691 21.1147 227.959 21.237 228.169 21.4815C228.408 21.6954 228.527 21.9705 228.527 22.3066V24.6904C231.456 24.6904 233.996 25.1794 236.147 26.1573C238.299 27.1353 239.987 28.5411 241.212 30.3747C242.467 32.2084 243.155 34.4546 243.274 37.1134C243.334 37.8469 243.364 38.4276 243.364 38.8554C243.364 39.2833 243.334 39.8639 243.274 40.5974C243.035 44.662 241.631 47.7181 239.061 49.7657C236.521 51.8133 233.01 52.8371 228.527 52.8371V55.8168C228.527 56.1529 228.408 56.428 228.169 56.6419C227.959 56.8864 227.691 57.0086 227.362 57.0086H220.056ZM218.98 45.0898V32.4834C217.456 32.4834 216.276 32.8654 215.439 33.6295C214.632 34.3935 214.184 35.5854 214.094 37.2051C214.094 37.7246 214.094 38.2442 214.094 38.7637C214.094 39.2833 214.094 39.8028 214.094 40.3223C214.184 41.9421 214.632 43.1492 215.439 43.9438C216.246 44.7078 217.426 45.0898 218.98 45.0898ZM228.438 45.0898C229.991 45.0898 231.172 44.7078 231.979 43.9438C232.815 43.1492 233.264 41.9421 233.323 40.3223C233.353 40.139 233.368 39.8334 233.368 39.4055C233.368 38.9776 233.368 38.5498 233.368 38.1219C233.368 37.6941 233.353 37.3885 233.323 37.2051C233.234 35.5854 232.77 34.3935 231.934 33.6295C231.127 32.8654 229.962 32.4834 228.438 32.4834V45.0898Z" fill="#00719B"/>
<path d="M247.801 55.5417C247.502 55.5417 247.233 55.4347 246.994 55.2208C246.755 54.9763 246.635 54.686 246.635 54.3498V24.6445C246.635 24.3084 246.755 24.0333 246.994 23.8194C247.233 23.5749 247.502 23.4527 247.801 23.4527H255.42C255.749 23.4527 256.018 23.5749 256.227 23.8194C256.466 24.0333 256.586 24.3084 256.586 24.6445V54.3498C256.586 54.686 256.466 54.9763 256.227 55.2208C256.018 55.4347 255.749 55.5417 255.42 55.5417H247.801Z" fill="#00719B"/>
<path d="M268.899 55.5417C268.57 55.5417 268.286 55.4347 268.047 55.2208C267.838 54.9763 267.734 54.686 267.734 54.3498V31.9792H260.024C259.695 31.9792 259.411 31.8722 259.172 31.6583C258.963 31.4138 258.859 31.1235 258.859 30.7873V24.6445C258.859 24.3084 258.963 24.0333 259.172 23.8194C259.411 23.5749 259.695 23.4527 260.024 23.4527H285.215C285.543 23.4527 285.812 23.5749 286.021 23.8194C286.26 24.0333 286.38 24.3084 286.38 24.6445V30.7873C286.38 31.1235 286.26 31.4138 286.021 31.6583C285.812 31.8722 285.543 31.9792 285.215 31.9792H277.505V54.3498C277.505 54.686 277.385 54.9763 277.146 55.2208C276.937 55.4347 276.668 55.5417 276.34 55.5417H268.899Z" fill="#00719B"/>
<path d="M85.2236 68.5928C85.158 68.5928 85.1044 68.5692 85.0626 68.5219C85.0209 68.4747 85 68.4173 85 68.3498V61.7593C85 61.685 85.0209 61.6243 85.0626 61.5771C85.1044 61.5298 85.158 61.5062 85.2236 61.5062H85.9303C86.0138 61.5062 86.0764 61.5332 86.1181 61.5872C86.1599 61.6344 86.1867 61.6715 86.1986 61.6985L87.925 65.3431L89.6693 61.6985C89.6812 61.6715 89.708 61.6344 89.7498 61.5872C89.7915 61.5332 89.8541 61.5062 89.9376 61.5062H90.6353C90.7009 61.5062 90.7546 61.5298 90.7963 61.5771C90.8381 61.6243 90.8589 61.685 90.8589 61.7593V68.3498C90.8589 68.4173 90.8381 68.4747 90.7963 68.5219C90.7546 68.5692 90.7009 68.5928 90.6353 68.5928H89.8839C89.8183 68.5928 89.7647 68.5692 89.7229 68.5219C89.6871 68.4747 89.6693 68.4173 89.6693 68.3498V63.9663L88.417 66.6693C88.3871 66.73 88.3484 66.784 88.3007 66.8313C88.253 66.8718 88.1904 66.892 88.1128 66.892H87.7461C87.6626 66.892 87.597 66.8718 87.5493 66.8313C87.5076 66.784 87.4718 66.73 87.442 66.6693L86.1897 63.9663V68.3498C86.1897 68.4173 86.1688 68.4747 86.1271 68.5219C86.0853 68.5692 86.0346 68.5928 85.975 68.5928H85.2236Z" fill="#EC1940"/>
<path d="M92.1966 68.5928C92.137 68.5928 92.0863 68.5692 92.0445 68.5219C92.0028 68.4747 91.9819 68.4173 91.9819 68.3498V61.7593C91.9819 61.685 92.0028 61.6243 92.0445 61.5771C92.0863 61.5298 92.137 61.5062 92.1966 61.5062H96.1324C96.198 61.5062 96.2516 61.5298 96.2934 61.5771C96.3351 61.6243 96.356 61.685 96.356 61.7593V62.4274C96.356 62.4949 96.3351 62.5523 96.2934 62.5996C96.2516 62.6468 96.198 62.6704 96.1324 62.6704H93.1895V64.4623H95.9356C96.0012 64.4623 96.0549 64.4859 96.0966 64.5332C96.1383 64.5737 96.1592 64.631 96.1592 64.7053V65.333C96.1592 65.4072 96.1383 65.4679 96.0966 65.5152C96.0549 65.5557 96.0012 65.5759 95.9356 65.5759H93.1895V67.4286H96.2039C96.2695 67.4286 96.3232 67.4522 96.365 67.4994C96.4067 67.5467 96.4276 67.6074 96.4276 67.6817V68.3498C96.4276 68.4173 96.4067 68.4747 96.365 68.5219C96.3232 68.5692 96.2695 68.5928 96.2039 68.5928H92.1966Z" fill="#EC1940"/>
<path d="M97.0275 70C96.9679 70 96.9172 69.9764 96.8754 69.9291C96.8337 69.8886 96.8128 69.8313 96.8128 69.757V67.5703C96.8128 67.5028 96.8337 67.4454 96.8754 67.3982C96.9172 67.351 96.9679 67.3273 97.0275 67.3273H97.2064C97.3495 67.3273 97.4718 67.2531 97.5731 67.1046C97.6745 66.9494 97.758 66.7267 97.8236 66.4364C97.8892 66.1395 97.9369 65.775 97.9667 65.3431C97.9965 64.9111 98.0114 64.4184 98.0114 63.865V61.7492C98.0114 61.6817 98.0323 61.6243 98.0741 61.5771C98.1158 61.5298 98.1695 61.5062 98.2351 61.5062H102.072C102.138 61.5062 102.192 61.5298 102.233 61.5771C102.275 61.6243 102.296 61.685 102.296 61.7593V67.3273H102.725C102.791 67.3273 102.845 67.351 102.886 67.3982C102.928 67.4454 102.949 67.5028 102.949 67.5703V69.757C102.949 69.8313 102.928 69.8886 102.886 69.9291C102.845 69.9764 102.791 70 102.725 70H101.92C101.855 70 101.801 69.9764 101.759 69.9291C101.724 69.8886 101.706 69.8313 101.706 69.757V68.5928H98.0562V69.757C98.0562 69.8313 98.0353 69.8886 97.9936 69.9291C97.9518 69.9764 97.8981 70 97.8325 70H97.0275ZM98.727 67.3273H101.053V62.7717H99.219V64.0472C99.219 64.8841 99.1773 65.5692 99.0938 66.1024C99.0103 66.6288 98.888 67.0371 98.727 67.3273Z" fill="#EC1940"/>
<path d="M103.889 68.5928C103.83 68.5928 103.779 68.5692 103.737 68.5219C103.696 68.4747 103.675 68.4139 103.675 68.3397V61.7593C103.675 61.685 103.696 61.6243 103.737 61.5771C103.779 61.5298 103.833 61.5062 103.898 61.5062H104.703C104.769 61.5062 104.82 61.5298 104.855 61.5771C104.897 61.6243 104.918 61.685 104.918 61.7593V66.4061L107.861 61.6682C107.885 61.6344 107.918 61.6007 107.959 61.5669C108.001 61.5264 108.055 61.5062 108.12 61.5062H108.863C108.922 61.5062 108.973 61.5298 109.015 61.5771C109.056 61.6243 109.077 61.685 109.077 61.7593V68.3498C109.077 68.4173 109.056 68.4747 109.015 68.5219C108.973 68.5692 108.922 68.5928 108.863 68.5928H108.058C107.992 68.5928 107.938 68.5692 107.897 68.5219C107.855 68.4747 107.834 68.4173 107.834 68.3498V63.7942L104.9 68.4308C104.882 68.4578 104.852 68.4916 104.811 68.5321C104.769 68.5726 104.712 68.5928 104.641 68.5928H103.889Z" fill="#EC1940"/>
<path d="M113.798 68.5928C113.733 68.5928 113.679 68.5692 113.637 68.5219C113.601 68.4747 113.584 68.4173 113.584 68.3498V65.9606C113.488 66.0619 113.36 66.1462 113.199 66.2137C113.044 66.2812 112.871 66.3318 112.68 66.3656C112.495 66.3993 112.313 66.4162 112.134 66.4162C111.401 66.4162 110.855 66.2171 110.498 65.8189C110.14 65.4139 109.961 64.8166 109.961 64.027V61.7492C109.961 61.6817 109.982 61.6243 110.023 61.5771C110.065 61.5298 110.116 61.5062 110.175 61.5062H110.981C111.046 61.5062 111.1 61.5298 111.142 61.5771C111.183 61.6243 111.204 61.6817 111.204 61.7492V63.9561C111.204 64.3543 111.294 64.6479 111.473 64.8369C111.651 65.0259 111.953 65.1204 112.376 65.1204C112.495 65.1204 112.623 65.1102 112.761 65.09C112.898 65.063 113.029 65.0191 113.154 64.9584C113.279 64.8909 113.381 64.8031 113.458 64.6952C113.542 64.5872 113.584 64.4522 113.584 64.2902V61.7492C113.584 61.6817 113.601 61.6243 113.637 61.5771C113.679 61.5298 113.733 61.5062 113.798 61.5062H114.603C114.669 61.5062 114.723 61.5298 114.764 61.5771C114.806 61.6243 114.827 61.6817 114.827 61.7492V68.3498C114.827 68.4173 114.806 68.4747 114.764 68.5219C114.723 68.5692 114.669 68.5928 114.603 68.5928H113.798Z" fill="#EC1940"/>
<path d="M116.193 68.5928C116.134 68.5928 116.083 68.5726 116.041 68.5321C116 68.4848 115.979 68.4241 115.979 68.3498V61.7593C115.979 61.685 116 61.6243 116.041 61.5771C116.083 61.5298 116.134 61.5062 116.193 61.5062H117.007C117.073 61.5062 117.124 61.5298 117.16 61.5771C117.201 61.6243 117.222 61.685 117.222 61.7593V64.3712H119.861V61.7593C119.861 61.685 119.882 61.6243 119.924 61.5771C119.965 61.5298 120.016 61.5062 120.076 61.5062H120.881C120.946 61.5062 121 61.5298 121.042 61.5771C121.083 61.6243 121.104 61.685 121.104 61.7593V68.3498C121.104 68.4173 121.083 68.4747 121.042 68.5219C121 68.5692 120.946 68.5928 120.881 68.5928H120.076C120.016 68.5928 119.965 68.5692 119.924 68.5219C119.882 68.4747 119.861 68.4173 119.861 68.3498V65.6367H117.222V68.3498C117.222 68.4173 117.201 68.4747 117.16 68.5219C117.124 68.5692 117.073 68.5928 117.007 68.5928H116.193Z" fill="#EC1940"/>
<path d="M122.442 68.5928C122.382 68.5928 122.331 68.5692 122.29 68.5219C122.248 68.4747 122.227 68.4173 122.227 68.3498V61.7492C122.227 61.6817 122.248 61.6243 122.29 61.5771C122.331 61.5298 122.382 61.5062 122.442 61.5062H123.282C123.348 61.5062 123.399 61.5298 123.435 61.5771C123.476 61.6243 123.497 61.6817 123.497 61.7492V68.3498C123.497 68.4173 123.476 68.4747 123.435 68.5219C123.399 68.5692 123.348 68.5928 123.282 68.5928H122.442Z" fill="#EC1940"/>
<path d="M128 68.5928C127.94 68.5928 127.889 68.5692 127.847 68.5219C127.806 68.4747 127.785 68.4173 127.785 68.3498V62.7514H126.13C126.07 62.7514 126.02 62.7278 125.978 62.6805C125.936 62.6333 125.915 62.5759 125.915 62.5084V61.7593C125.915 61.685 125.936 61.6243 125.978 61.5771C126.02 61.5298 126.07 61.5062 126.13 61.5062H130.692C130.758 61.5062 130.811 61.5298 130.853 61.5771C130.895 61.6243 130.916 61.685 130.916 61.7593V62.5084C130.916 62.5759 130.895 62.6333 130.853 62.6805C130.811 62.7278 130.758 62.7514 130.692 62.7514H129.046V68.3498C129.046 68.4173 129.025 68.4747 128.983 68.5219C128.942 68.5692 128.888 68.5928 128.822 68.5928H128Z" fill="#EC1940"/>
<path d="M131.17 68.5928C131.123 68.5928 131.078 68.5726 131.036 68.5321C131 68.4916 130.982 68.4409 130.982 68.3802C130.982 68.3532 130.988 68.3228 131 68.2891L133.156 61.7593C133.174 61.6918 133.207 61.6344 133.254 61.5872C133.308 61.5332 133.38 61.5062 133.469 61.5062H134.444C134.534 61.5062 134.602 61.5332 134.65 61.5872C134.698 61.6344 134.733 61.6918 134.757 61.7593L136.913 68.2891C136.919 68.3228 136.922 68.3532 136.922 68.3802C136.922 68.4409 136.904 68.4916 136.868 68.5321C136.832 68.5726 136.791 68.5928 136.743 68.5928H135.965C135.881 68.5928 135.819 68.5726 135.777 68.5321C135.741 68.4848 135.717 68.4409 135.705 68.4005L135.285 67.1654H132.628L132.208 68.4005C132.196 68.4409 132.169 68.4848 132.127 68.5321C132.092 68.5726 132.032 68.5928 131.948 68.5928H131.17ZM132.941 66.0011H134.972L133.952 62.8729L132.941 66.0011Z" fill="#EC1940"/>
<path d="M139.479 68.5928C139.419 68.5928 139.369 68.5726 139.327 68.5321C139.285 68.4848 139.264 68.4241 139.264 68.3498V61.7593C139.264 61.685 139.285 61.6243 139.327 61.5771C139.369 61.5298 139.419 61.5062 139.479 61.5062H140.293C140.359 61.5062 140.409 61.5298 140.445 61.5771C140.487 61.6243 140.508 61.685 140.508 61.7593V64.3712H141.286L142.744 61.6884C142.774 61.6344 142.812 61.5906 142.86 61.5568C142.914 61.5231 142.982 61.5062 143.066 61.5062H143.951C144.011 61.5062 144.056 61.5264 144.086 61.5669C144.121 61.6074 144.139 61.658 144.139 61.7188C144.139 61.7525 144.127 61.793 144.103 61.8403L142.413 64.928L144.264 68.2486C144.282 68.2688 144.291 68.306 144.291 68.36C144.291 68.4207 144.27 68.4747 144.229 68.5219C144.193 68.5692 144.145 68.5928 144.086 68.5928H143.164C143.087 68.5928 143.027 68.5726 142.985 68.5321C142.95 68.4916 142.92 68.4544 142.896 68.4207L141.331 65.6367H140.508V68.3498C140.508 68.4173 140.487 68.4747 140.445 68.5219C140.409 68.5692 140.359 68.5928 140.293 68.5928H139.479Z" fill="#EC1940"/>
<path d="M147.395 68.694C146.864 68.694 146.408 68.5962 146.026 68.4005C145.644 68.198 145.346 67.8909 145.131 67.4792C144.917 67.0607 144.8 66.5411 144.783 65.9201C144.777 65.6299 144.774 65.3431 144.774 65.0596C144.774 64.7762 144.777 64.4859 144.783 64.189C144.8 63.5748 144.92 63.0619 145.14 62.6502C145.361 62.2385 145.662 61.928 146.044 61.7188C146.431 61.5096 146.882 61.4049 147.395 61.4049C147.907 61.4049 148.358 61.5096 148.745 61.7188C149.133 61.928 149.437 62.2385 149.658 62.6502C149.878 63.0619 149.997 63.5748 150.015 64.189C150.027 64.4859 150.033 64.7762 150.033 65.0596C150.033 65.3431 150.027 65.6299 150.015 65.9201C149.997 66.5411 149.881 67.0607 149.667 67.4792C149.452 67.8909 149.151 68.198 148.763 68.4005C148.381 68.5962 147.925 68.694 147.395 68.694ZM147.395 67.5298C147.782 67.5298 148.098 67.4016 148.343 67.1451C148.587 66.8819 148.718 66.4567 148.736 65.8695C148.748 65.5726 148.754 65.2992 148.754 65.0495C148.754 64.793 148.748 64.5197 148.736 64.2295C148.724 63.838 148.659 63.5208 148.539 63.2778C148.426 63.0281 148.271 62.8493 148.074 62.7413C147.878 62.6265 147.651 62.5692 147.395 62.5692C147.144 62.5692 146.92 62.6265 146.724 62.7413C146.527 62.8493 146.369 63.0281 146.25 63.2778C146.136 63.5208 146.074 63.838 146.062 64.2295C146.056 64.5197 146.053 64.793 146.053 65.0495C146.053 65.2992 146.056 65.5726 146.062 65.8695C146.08 66.4567 146.211 66.8819 146.455 67.1451C146.7 67.4016 147.013 67.5298 147.395 67.5298Z" fill="#EC1940"/>
<path d="M151.163 68.5928C151.098 68.5928 151.044 68.5692 151.002 68.5219C150.96 68.4747 150.939 68.4173 150.939 68.3498V61.7593C150.939 61.685 150.96 61.6243 151.002 61.5771C151.044 61.5298 151.098 61.5062 151.163 61.5062H151.87C151.953 61.5062 152.016 61.5332 152.058 61.5872C152.099 61.6344 152.126 61.6715 152.138 61.6985L153.864 65.3431L155.609 61.6985C155.621 61.6715 155.648 61.6344 155.689 61.5872C155.731 61.5332 155.794 61.5062 155.877 61.5062H156.575C156.64 61.5062 156.694 61.5298 156.736 61.5771C156.778 61.6243 156.798 61.685 156.798 61.7593V68.3498C156.798 68.4173 156.778 68.4747 156.736 68.5219C156.694 68.5692 156.64 68.5928 156.575 68.5928H155.823C155.758 68.5928 155.704 68.5692 155.662 68.5219C155.627 68.4747 155.609 68.4173 155.609 68.3498V63.9663L154.356 66.6693C154.327 66.73 154.288 66.784 154.24 66.8313C154.192 66.8718 154.13 66.892 154.052 66.892H153.686C153.602 66.892 153.536 66.8718 153.489 66.8313C153.447 66.784 153.411 66.73 153.381 66.6693L152.129 63.9663V68.3498C152.129 68.4173 152.108 68.4747 152.067 68.5219C152.025 68.5692 151.974 68.5928 151.914 68.5928H151.163Z" fill="#EC1940"/>
<path d="M160.811 68.9168C160.745 68.9168 160.691 68.8931 160.65 68.8459C160.614 68.7986 160.596 68.7413 160.596 68.6738V67.9246C159.707 67.9246 159.022 67.7053 158.539 67.2666C158.056 66.8211 157.781 66.1564 157.716 65.2722C157.71 65.2115 157.707 65.1372 157.707 65.0495C157.707 64.955 157.707 64.8639 157.707 64.7762C157.713 64.6817 157.716 64.604 157.716 64.5433C157.746 63.9561 157.88 63.4668 158.118 63.0754C158.357 62.6772 158.685 62.3802 159.102 62.1845C159.526 61.982 160.023 61.8808 160.596 61.8808V61.243C160.596 61.1687 160.614 61.1114 160.65 61.0709C160.691 61.0236 160.745 61 160.811 61H161.616C161.681 61 161.735 61.0236 161.777 61.0709C161.818 61.1114 161.839 61.1687 161.839 61.243V61.8808C162.406 61.8808 162.898 61.982 163.315 62.1845C163.739 62.3802 164.07 62.6772 164.308 63.0754C164.553 63.4668 164.687 63.9561 164.711 64.5433C164.723 64.685 164.729 64.8065 164.729 64.9078C164.729 65.009 164.723 65.1305 164.711 65.2722C164.651 66.1564 164.38 66.8211 163.897 67.2666C163.414 67.7053 162.728 67.9246 161.839 67.9246V68.6738C161.839 68.7413 161.818 68.7986 161.777 68.8459C161.735 68.8931 161.681 68.9168 161.616 68.9168H160.811ZM160.596 66.7604V63.045C160.113 63.045 159.734 63.1665 159.46 63.4094C159.186 63.6524 159.028 64.0439 158.986 64.5838C158.986 64.6918 158.986 64.7964 158.986 64.8976C158.986 64.9989 158.986 65.1069 158.986 65.2216C159.016 65.7548 159.168 66.1462 159.442 66.396C159.722 66.6389 160.107 66.7604 160.596 66.7604ZM161.83 66.7604C162.319 66.7604 162.704 66.6389 162.984 66.396C163.265 66.1462 163.417 65.7548 163.44 65.2216C163.446 65.1609 163.449 65.0934 163.449 65.0191C163.449 64.9381 163.449 64.8605 163.449 64.7863C163.449 64.7053 163.446 64.6378 163.44 64.5838C163.393 64.0439 163.232 63.6524 162.957 63.4094C162.689 63.1665 162.313 63.045 161.83 63.045V66.7604Z" fill="#EC1940"/>
<path d="M168.035 68.694C167.504 68.694 167.048 68.5962 166.666 68.4005C166.284 68.198 165.986 67.8909 165.772 67.4792C165.557 67.0607 165.441 66.5411 165.423 65.9201C165.417 65.6299 165.414 65.3431 165.414 65.0596C165.414 64.7762 165.417 64.4859 165.423 64.189C165.441 63.5748 165.56 63.0619 165.78 62.6502C166.001 62.2385 166.302 61.928 166.684 61.7188C167.072 61.5096 167.522 61.4049 168.035 61.4049C168.547 61.4049 168.998 61.5096 169.385 61.7188C169.773 61.928 170.077 62.2385 170.298 62.6502C170.518 63.0619 170.638 63.5748 170.655 64.189C170.667 64.4859 170.673 64.7762 170.673 65.0596C170.673 65.3431 170.667 65.6299 170.655 65.9201C170.638 66.5411 170.521 67.0607 170.307 67.4792C170.092 67.8909 169.791 68.198 169.403 68.4005C169.021 68.5962 168.565 68.694 168.035 68.694ZM168.035 67.5298C168.422 67.5298 168.738 67.4016 168.983 67.1451C169.227 66.8819 169.358 66.4567 169.376 65.8695C169.388 65.5726 169.394 65.2992 169.394 65.0495C169.394 64.793 169.388 64.5197 169.376 64.2295C169.364 63.838 169.299 63.5208 169.18 63.2778C169.066 63.0281 168.911 62.8493 168.714 62.7413C168.518 62.6265 168.291 62.5692 168.035 62.5692C167.784 62.5692 167.56 62.6265 167.364 62.7413C167.167 62.8493 167.009 63.0281 166.89 63.2778C166.776 63.5208 166.714 63.838 166.702 64.2295C166.696 64.5197 166.693 64.793 166.693 65.0495C166.693 65.2992 166.696 65.5726 166.702 65.8695C166.72 66.4567 166.851 66.8819 167.095 67.1451C167.34 67.4016 167.653 67.5298 168.035 67.5298Z" fill="#EC1940"/>
<path d="M171.794 68.5928C171.735 68.5928 171.684 68.5692 171.642 68.5219C171.6 68.4747 171.58 68.4173 171.58 68.3498V61.7593C171.58 61.685 171.6 61.6243 171.642 61.5771C171.684 61.5298 171.735 61.5062 171.794 61.5062H174.191C174.657 61.5062 175.062 61.5906 175.408 61.7593C175.754 61.9213 176.022 62.171 176.213 62.5084C176.404 62.8391 176.499 63.2542 176.499 63.7537C176.499 64.2598 176.404 64.6783 176.213 65.009C176.022 65.333 175.754 65.5759 175.408 65.7379C175.062 65.8999 174.657 65.9809 174.191 65.9809H172.859V68.3498C172.859 68.4173 172.838 68.4747 172.796 68.5219C172.76 68.5692 172.71 68.5928 172.644 68.5928H171.794ZM172.841 64.8571H174.147C174.493 64.8571 174.758 64.766 174.943 64.5838C175.128 64.3948 175.22 64.1181 175.22 63.7537C175.22 63.4162 175.134 63.1462 174.961 62.9438C174.788 62.7345 174.516 62.6299 174.147 62.6299H172.841V64.8571Z" fill="#EC1940"/>
<path d="M178.8 68.5928C178.74 68.5928 178.689 68.5692 178.648 68.5219C178.606 68.4747 178.585 68.4173 178.585 68.3498V62.7514H176.93C176.871 62.7514 176.82 62.7278 176.778 62.6805C176.736 62.6333 176.716 62.5759 176.716 62.5084V61.7593C176.716 61.685 176.736 61.6243 176.778 61.5771C176.82 61.5298 176.871 61.5062 176.93 61.5062H181.492C181.558 61.5062 181.611 61.5298 181.653 61.5771C181.695 61.6243 181.716 61.685 181.716 61.7593V62.5084C181.716 62.5759 181.695 62.6333 181.653 62.6805C181.611 62.7278 181.558 62.7514 181.492 62.7514H179.846V68.3498C179.846 68.4173 179.825 68.4747 179.784 68.5219C179.742 68.5692 179.688 68.5928 179.623 68.5928H178.8Z" fill="#EC1940"/>
<path d="M182.57 68.5928C182.51 68.5928 182.459 68.5726 182.418 68.5321C182.376 68.4848 182.355 68.4241 182.355 68.3498V61.7593C182.355 61.685 182.376 61.6243 182.418 61.5771C182.459 61.5298 182.51 61.5062 182.57 61.5062H183.384C183.449 61.5062 183.5 61.5298 183.536 61.5771C183.578 61.6243 183.598 61.685 183.598 61.7593V64.3712H186.237V61.7593C186.237 61.685 186.258 61.6243 186.3 61.5771C186.342 61.5298 186.392 61.5062 186.452 61.5062H187.257C187.322 61.5062 187.376 61.5298 187.418 61.5771C187.46 61.6243 187.48 61.685 187.48 61.7593V68.3498C187.48 68.4173 187.46 68.4747 187.418 68.5219C187.376 68.5692 187.322 68.5928 187.257 68.5928H186.452C186.392 68.5928 186.342 68.5692 186.3 68.5219C186.258 68.4747 186.237 68.4173 186.237 68.3498V65.6367H183.598V68.3498C183.598 68.4173 183.578 68.4747 183.536 68.5219C183.5 68.5692 183.449 68.5928 183.384 68.5928H182.57Z" fill="#EC1940"/>
<path d="M188.818 68.5928C188.758 68.5928 188.708 68.5692 188.666 68.5219C188.624 68.4747 188.603 68.4173 188.603 68.3498V61.7492C188.603 61.6817 188.624 61.6243 188.666 61.5771C188.708 61.5298 188.758 61.5062 188.818 61.5062H189.659C189.724 61.5062 189.775 61.5298 189.811 61.5771C189.853 61.6243 189.873 61.6817 189.873 61.7492V68.3498C189.873 68.4173 189.853 68.4747 189.811 68.5219C189.775 68.5692 189.724 68.5928 189.659 68.5928H188.818Z" fill="#EC1940"/>
<path d="M192.998 68.5928C192.939 68.5928 192.888 68.5692 192.846 68.5219C192.804 68.4747 192.784 68.4173 192.784 68.3498V61.7593C192.784 61.685 192.804 61.6243 192.846 61.5771C192.888 61.5298 192.939 61.5062 192.998 61.5062H195.395C195.861 61.5062 196.266 61.5906 196.612 61.7593C196.958 61.9213 197.226 62.171 197.417 62.5084C197.608 62.8391 197.703 63.2542 197.703 63.7537C197.703 64.2598 197.608 64.6783 197.417 65.009C197.226 65.333 196.958 65.5759 196.612 65.7379C196.266 65.8999 195.861 65.9809 195.395 65.9809H194.063V68.3498C194.063 68.4173 194.042 68.4747 194 68.5219C193.964 68.5692 193.914 68.5928 193.848 68.5928H192.998ZM194.045 64.8571H195.351C195.697 64.8571 195.962 64.766 196.147 64.5838C196.332 64.3948 196.424 64.1181 196.424 63.7537C196.424 63.4162 196.338 63.1462 196.165 62.9438C195.992 62.7345 195.72 62.6299 195.351 62.6299H194.045V64.8571Z" fill="#EC1940"/>
<path d="M198.626 68.5928C198.567 68.5928 198.516 68.5692 198.474 68.5219C198.432 68.4747 198.412 68.4173 198.412 68.3498V61.7492C198.412 61.6817 198.432 61.6243 198.474 61.5771C198.516 61.5298 198.567 61.5062 198.626 61.5062H199.467C199.533 61.5062 199.583 61.5298 199.619 61.5771C199.661 61.6243 199.682 61.6817 199.682 61.7492V68.3498C199.682 68.4173 199.661 68.4747 199.619 68.5219C199.583 68.5692 199.533 68.5928 199.467 68.5928H198.626Z" fill="#EC1940"/>
<path d="M201.031 68.5928C200.971 68.5928 200.921 68.5692 200.879 68.5219C200.837 68.4747 200.816 68.4173 200.816 68.3498V61.7492C200.816 61.6749 200.837 61.6175 200.879 61.5771C200.921 61.5298 200.971 61.5062 201.031 61.5062H201.845C201.91 61.5062 201.961 61.5298 201.997 61.5771C202.039 61.6243 202.06 61.6817 202.06 61.7492V67.3273H203.849V61.7492C203.849 61.6817 203.869 61.6243 203.911 61.5771C203.953 61.5298 204.004 61.5062 204.063 61.5062H204.868C204.934 61.5062 204.988 61.5298 205.029 61.5771C205.071 61.6243 205.092 61.6817 205.092 61.7492V67.3273H206.872V61.7492C206.872 61.6817 206.893 61.6243 206.935 61.5771C206.976 61.5298 207.03 61.5062 207.096 61.5062H207.901C207.966 61.5062 208.017 61.5298 208.053 61.5771C208.094 61.6243 208.115 61.6817 208.115 61.7492V68.3498C208.115 68.4173 208.094 68.4747 208.053 68.5219C208.017 68.5692 207.966 68.5928 207.901 68.5928H201.031Z" fill="#EC1940"/>
<path d="M209.463 68.5928C209.403 68.5928 209.353 68.5692 209.311 68.5219C209.269 68.4747 209.248 68.4173 209.248 68.3498V61.7593C209.248 61.685 209.269 61.6243 209.311 61.5771C209.353 61.5298 209.403 61.5062 209.463 61.5062H213.399C213.464 61.5062 213.518 61.5298 213.56 61.5771C213.601 61.6243 213.622 61.685 213.622 61.7593V62.4274C213.622 62.4949 213.601 62.5523 213.56 62.5996C213.518 62.6468 213.464 62.6704 213.399 62.6704H210.456V64.4623H213.202C213.267 64.4623 213.321 64.4859 213.363 64.5332C213.405 64.5737 213.425 64.631 213.425 64.7053V65.333C213.425 65.4072 213.405 65.4679 213.363 65.5152C213.321 65.5557 213.267 65.5759 213.202 65.5759H210.456V67.4286H213.47C213.536 67.4286 213.589 67.4522 213.631 67.4994C213.673 67.5467 213.694 67.6074 213.694 67.6817V68.3498C213.694 68.4173 213.673 68.4747 213.631 68.5219C213.589 68.5692 213.536 68.5928 213.47 68.5928H209.463Z" fill="#EC1940"/>
<path d="M214.759 68.5928C214.699 68.5928 214.649 68.5726 214.607 68.5321C214.565 68.4848 214.544 68.4241 214.544 68.3498V61.7593C214.544 61.685 214.565 61.6243 214.607 61.5771C214.649 61.5298 214.699 61.5062 214.759 61.5062H215.573C215.638 61.5062 215.689 61.5298 215.725 61.5771C215.767 61.6243 215.788 61.685 215.788 61.7593V64.3712H218.426V61.7593C218.426 61.685 218.447 61.6243 218.489 61.5771C218.531 61.5298 218.581 61.5062 218.641 61.5062H219.446C219.512 61.5062 219.565 61.5298 219.607 61.5771C219.649 61.6243 219.67 61.685 219.67 61.7593V68.3498C219.67 68.4173 219.649 68.4747 219.607 68.5219C219.565 68.5692 219.512 68.5928 219.446 68.5928H218.641C218.581 68.5928 218.531 68.5692 218.489 68.5219C218.447 68.4747 218.426 68.4173 218.426 68.3498V65.6367H215.788V68.3498C215.788 68.4173 215.767 68.4747 215.725 68.5219C215.689 68.5692 215.638 68.5928 215.573 68.5928H214.759Z" fill="#EC1940"/>
<path d="M221.007 68.5928C220.947 68.5928 220.897 68.5726 220.855 68.5321C220.813 68.4848 220.792 68.4241 220.792 68.3498V61.7593C220.792 61.685 220.813 61.6243 220.855 61.5771C220.897 61.5298 220.947 61.5062 221.007 61.5062H221.821C221.887 61.5062 221.937 61.5298 221.973 61.5771C222.015 61.6243 222.036 61.685 222.036 61.7593V64.3712H224.674V61.7593C224.674 61.685 224.695 61.6243 224.737 61.5771C224.779 61.5298 224.83 61.5062 224.889 61.5062H225.694C225.76 61.5062 225.813 61.5298 225.855 61.5771C225.897 61.6243 225.918 61.685 225.918 61.7593V68.3498C225.918 68.4173 225.897 68.4747 225.855 68.5219C225.813 68.5692 225.76 68.5928 225.694 68.5928H224.889C224.83 68.5928 224.779 68.5692 224.737 68.5219C224.695 68.4747 224.674 68.4173 224.674 68.3498V65.6367H222.036V68.3498C222.036 68.4173 222.015 68.4747 221.973 68.5219C221.937 68.5692 221.887 68.5928 221.821 68.5928H221.007Z" fill="#EC1940"/>
<path d="M230.708 68.5928C230.648 68.5928 230.595 68.5692 230.547 68.5219C230.505 68.4747 230.484 68.4173 230.484 68.3498V66.0315H229.169C228.752 66.0315 228.385 65.9438 228.069 65.7683C227.753 65.5861 227.509 65.3296 227.336 64.9989C227.163 64.6614 227.076 64.2598 227.076 63.7942C227.076 63.3757 227.16 62.9944 227.327 62.6502C227.494 62.306 227.741 62.0292 228.069 61.82C228.403 61.6108 228.815 61.5062 229.304 61.5062H231.513C231.579 61.5062 231.629 61.5298 231.665 61.5771C231.707 61.6243 231.728 61.6817 231.728 61.7492V68.3498C231.728 68.4173 231.707 68.4747 231.665 68.5219C231.629 68.5692 231.579 68.5928 231.513 68.5928H230.708ZM227.13 68.5928C227.082 68.5928 227.041 68.5726 227.005 68.5321C226.969 68.4916 226.951 68.4409 226.951 68.3802C226.951 68.3465 226.96 68.3093 226.978 68.2688L228.454 65.5456L229.635 65.7683L228.302 68.3195C228.266 68.387 228.221 68.4511 228.168 68.5118C228.12 68.5658 228.045 68.5928 227.944 68.5928H227.13ZM229.357 64.8875H230.484V62.6299H229.357C229.041 62.6299 228.794 62.7413 228.615 62.964C228.442 63.18 228.355 63.4601 228.355 63.8043C228.355 64.1552 228.439 64.4252 228.606 64.6142C228.773 64.7964 229.023 64.8875 229.357 64.8875Z" fill="#EC1940"/>
<path d="M234.386 70C234.326 70 234.276 69.9764 234.234 69.9291C234.192 69.8886 234.171 69.8313 234.171 69.757V67.5703C234.171 67.5028 234.192 67.4454 234.234 67.3982C234.276 67.351 234.326 67.3273 234.386 67.3273H234.565C234.708 67.3273 234.83 67.2531 234.932 67.1046C235.033 66.9494 235.116 66.7267 235.182 66.4364C235.248 66.1395 235.295 65.775 235.325 65.3431C235.355 64.9111 235.37 64.4184 235.37 63.865V61.7492C235.37 61.6817 235.391 61.6243 235.433 61.5771C235.474 61.5298 235.528 61.5062 235.594 61.5062H239.431C239.496 61.5062 239.55 61.5298 239.592 61.5771C239.634 61.6243 239.655 61.685 239.655 61.7593V67.3273H240.084C240.149 67.3273 240.203 67.351 240.245 67.3982C240.287 67.4454 240.307 67.5028 240.307 67.5703V69.757C240.307 69.8313 240.287 69.8886 240.245 69.9291C240.203 69.9764 240.149 70 240.084 70H239.279C239.213 70 239.16 69.9764 239.118 69.9291C239.082 69.8886 239.064 69.8313 239.064 69.757V68.5928H235.415V69.757C235.415 69.8313 235.394 69.8886 235.352 69.9291C235.31 69.9764 235.257 70 235.191 70H234.386ZM236.085 67.3273H238.411V62.7717H236.577V64.0472C236.577 64.8841 236.536 65.5692 236.452 66.1024C236.369 66.6288 236.247 67.0371 236.085 67.3273Z" fill="#EC1940"/>
<path d="M245.175 68.5928C245.115 68.5928 245.064 68.5692 245.023 68.5219C244.981 68.4747 244.96 68.4173 244.96 68.3498V62.7717H243.019V64.0472C243.019 64.8571 242.98 65.5489 242.903 66.1226C242.831 66.6963 242.712 67.162 242.545 67.5197C242.378 67.8706 242.151 68.1339 241.865 68.3093C241.579 68.4781 241.221 68.5692 240.792 68.5827C240.732 68.5894 240.678 68.5692 240.631 68.5219C240.589 68.4679 240.568 68.4072 240.568 68.3397V67.5804C240.568 67.4387 240.637 67.3577 240.774 67.3375C240.953 67.3037 241.105 67.2092 241.23 67.054C241.361 66.8988 241.468 66.6794 241.552 66.396C241.641 66.1125 241.707 65.7615 241.749 65.3431C241.79 64.9179 241.811 64.4252 241.811 63.865V61.7492C241.811 61.6817 241.832 61.6243 241.874 61.5771C241.916 61.5298 241.966 61.5062 242.026 61.5062H245.98C246.045 61.5062 246.099 61.5298 246.141 61.5771C246.182 61.6243 246.203 61.685 246.203 61.7593V68.3498C246.203 68.4173 246.182 68.4747 246.141 68.5219C246.099 68.5692 246.045 68.5928 245.98 68.5928H245.175Z" fill="#EC1940"/>
<path d="M251.001 68.5928C250.941 68.5928 250.888 68.5692 250.84 68.5219C250.798 68.4747 250.777 68.4173 250.777 68.3498V66.0315H249.463C249.045 66.0315 248.678 65.9438 248.362 65.7683C248.046 65.5861 247.802 65.3296 247.629 64.9989C247.456 64.6614 247.369 64.2598 247.369 63.7942C247.369 63.3757 247.453 62.9944 247.62 62.6502C247.787 62.306 248.034 62.0292 248.362 61.82C248.696 61.6108 249.108 61.5062 249.597 61.5062H251.806C251.872 61.5062 251.922 61.5298 251.958 61.5771C252 61.6243 252.021 61.6817 252.021 61.7492V68.3498C252.021 68.4173 252 68.4747 251.958 68.5219C251.922 68.5692 251.872 68.5928 251.806 68.5928H251.001ZM247.423 68.5928C247.375 68.5928 247.334 68.5726 247.298 68.5321C247.262 68.4916 247.244 68.4409 247.244 68.3802C247.244 68.3465 247.253 68.3093 247.271 68.2688L248.747 65.5456L249.928 65.7683L248.595 68.3195C248.559 68.387 248.514 68.4511 248.461 68.5118C248.413 68.5658 248.338 68.5928 248.237 68.5928H247.423ZM249.65 64.8875H250.777V62.6299H249.65C249.334 62.6299 249.087 62.7413 248.908 62.964C248.735 63.18 248.649 63.4601 248.649 63.8043C248.649 64.1552 248.732 64.4252 248.899 64.6142C249.066 64.7964 249.316 64.8875 249.65 64.8875Z" fill="#EC1940"/>
<path d="M257.345 68.694C256.79 68.694 256.319 68.5861 255.931 68.3701C255.55 68.1474 255.257 67.8335 255.055 67.4286C254.852 67.0169 254.739 66.5242 254.715 65.9505C254.709 65.6738 254.706 65.3768 254.706 65.0596C254.706 64.7424 254.709 64.4387 254.715 64.1485C254.739 63.5816 254.852 63.0922 255.055 62.6805C255.263 62.2688 255.559 61.955 255.94 61.739C256.328 61.5163 256.796 61.4049 257.345 61.4049C257.75 61.4049 258.114 61.4657 258.436 61.5872C258.758 61.7087 259.032 61.8774 259.259 62.0934C259.485 62.3026 259.661 62.5489 259.787 62.8324C259.912 63.1159 259.977 63.4229 259.983 63.7537C259.989 63.8144 259.971 63.865 259.93 63.9055C259.894 63.946 259.849 63.9663 259.796 63.9663H258.946C258.88 63.9663 258.827 63.9494 258.785 63.9156C258.743 63.8751 258.713 63.811 258.695 63.7233C258.6 63.2778 258.436 62.9741 258.203 62.8121C257.971 62.6502 257.682 62.5692 257.336 62.5692C256.936 62.5692 256.617 62.6974 256.379 62.9539C256.14 63.2036 256.012 63.6187 255.994 64.1991C255.976 64.7525 255.976 65.3195 255.994 65.8999C256.012 66.4803 256.14 66.8988 256.379 67.1552C256.617 67.4049 256.936 67.5298 257.336 67.5298C257.682 67.5298 257.971 67.4488 258.203 67.2868C258.436 67.1181 258.6 66.8144 258.695 66.3757C258.713 66.2812 258.743 66.2171 258.785 66.1834C258.827 66.1496 258.88 66.1327 258.946 66.1327H259.796C259.849 66.1327 259.894 66.153 259.93 66.1935C259.971 66.234 259.989 66.2846 259.983 66.3453C259.977 66.676 259.912 66.9831 259.787 67.2666C259.661 67.5501 259.485 67.7998 259.259 68.0157C259.032 68.225 258.758 68.3903 258.436 68.5118C258.114 68.6333 257.75 68.694 257.345 68.694Z" fill="#EC1940"/>
<path d="M262.368 68.5928C262.308 68.5928 262.258 68.5692 262.216 68.5219C262.174 68.4747 262.153 68.4173 262.153 68.3498V62.7514H260.499C260.439 62.7514 260.388 62.7278 260.346 62.6805C260.305 62.6333 260.284 62.5759 260.284 62.5084V61.7593C260.284 61.685 260.305 61.6243 260.346 61.5771C260.388 61.5298 260.439 61.5062 260.499 61.5062H265.06C265.126 61.5062 265.18 61.5298 265.221 61.5771C265.263 61.6243 265.284 61.685 265.284 61.7593V62.5084C265.284 62.5759 265.263 62.6333 265.221 62.6805C265.18 62.7278 265.126 62.7514 265.06 62.7514H263.415V68.3498C263.415 68.4173 263.394 68.4747 263.352 68.5219C263.31 68.5692 263.257 68.5928 263.191 68.5928H262.368Z" fill="#EC1940"/>
<path d="M268.33 68.694C267.799 68.694 267.343 68.5962 266.961 68.4005C266.579 68.198 266.281 67.8909 266.066 67.4792C265.852 67.0607 265.736 66.5411 265.718 65.9201C265.712 65.6299 265.709 65.3431 265.709 65.0596C265.709 64.7762 265.712 64.4859 265.718 64.189C265.736 63.5748 265.855 63.0619 266.075 62.6502C266.296 62.2385 266.597 61.928 266.979 61.7188C267.367 61.5096 267.817 61.4049 268.33 61.4049C268.842 61.4049 269.293 61.5096 269.68 61.7188C270.068 61.928 270.372 62.2385 270.593 62.6502C270.813 63.0619 270.933 63.5748 270.95 64.189C270.962 64.4859 270.968 64.7762 270.968 65.0596C270.968 65.3431 270.962 65.6299 270.95 65.9201C270.933 66.5411 270.816 67.0607 270.602 67.4792C270.387 67.8909 270.086 68.198 269.698 68.4005C269.316 68.5962 268.86 68.694 268.33 68.694ZM268.33 67.5298C268.717 67.5298 269.033 67.4016 269.278 67.1451C269.522 66.8819 269.653 66.4567 269.671 65.8695C269.683 65.5726 269.689 65.2992 269.689 65.0495C269.689 64.793 269.683 64.5197 269.671 64.2295C269.659 63.838 269.594 63.5208 269.475 63.2778C269.361 63.0281 269.206 62.8493 269.009 62.7413C268.813 62.6265 268.586 62.5692 268.33 62.5692C268.079 62.5692 267.855 62.6265 267.659 62.7413C267.462 62.8493 267.304 63.0281 267.185 63.2778C267.071 63.5208 267.009 63.838 266.997 64.2295C266.991 64.5197 266.988 64.793 266.988 65.0495C266.988 65.2992 266.991 65.5726 266.997 65.8695C267.015 66.4567 267.146 66.8819 267.39 67.1451C267.635 67.4016 267.948 67.5298 268.33 67.5298Z" fill="#EC1940"/>
<path d="M272.089 68.5928C272.03 68.5928 271.979 68.5726 271.937 68.5321C271.895 68.4848 271.875 68.4241 271.875 68.3498V61.7593C271.875 61.685 271.895 61.6243 271.937 61.5771C271.979 61.5298 272.03 61.5062 272.089 61.5062H276.776C276.842 61.5062 276.896 61.5298 276.937 61.5771C276.979 61.6243 277 61.685 277 61.7593V68.3498C277 68.4173 276.979 68.4747 276.937 68.5219C276.896 68.5692 276.842 68.5928 276.776 68.5928H275.971C275.912 68.5928 275.861 68.5692 275.819 68.5219C275.778 68.4747 275.757 68.4173 275.757 68.3498V62.7717H273.118V68.3498C273.118 68.4173 273.097 68.4747 273.055 68.5219C273.02 68.5692 272.969 68.5928 272.903 68.5928H272.089Z" fill="#EC1940"/>
<path fill-rule="evenodd" clip-rule="evenodd" d="M44.7321 21.1978C45.4825 23.3643 45.6777 25.6209 45.6747 27.9379C45.6627 32.0602 45.0022 36.0924 44.1287 40.0944C44.1137 40.1847 44.0717 40.2748 44.0206 40.4253C43.9156 40.1846 44.7501 32.963 44.606 29.5026C44.504 27.0954 44.1917 24.6882 43.2221 22.4314C42.0424 19.6631 39.9411 18.1587 37.0143 17.7375C34.2346 17.3162 31.2027 17.6774 28.5911 18.7004L28.4561 18.7304C30.6414 17.3763 32.2714 16.3533 35.6064 16.0223C37.1884 15.8718 39.5179 15.9319 41.298 16.955C43.0781 17.978 44.3118 19.9641 44.7321 21.1978Z" fill="#186FA1"/>
<path fill-rule="evenodd" clip-rule="evenodd" d="M21.7912 28.1272C21.7912 28.1272 21.923 29.4179 22.0099 30.0483C22.4471 33.2902 23.6869 36.202 25.5406 38.8436C28.0322 42.4158 31.3024 45.0576 35.1267 47.0688C36.9474 48.0294 38.7353 49.0201 40.5291 50.0407C40.8735 50.2209 41.0142 50.1606 41.2089 49.8605C43.413 46.1982 45.6171 42.566 47.8511 38.9638C50.0013 35.4516 52.6846 32.4498 56.1105 30.1684C58.06 28.8776 59.8808 28.067 62.2137 27.6468C62.588 27.5867 63.2978 27.5568 63.4236 27.5568C63.166 27.5568 63.5643 27.5568 63.4236 27.5568C62.7498 27.8269 62.1748 28.0072 61.6327 28.2773C58.7518 29.7482 56.4189 31.9094 54.2328 34.2508C51.9898 36.6523 50.2679 39.4141 48.6387 42.2658C46.9198 45.2377 45.1679 48.1794 43.416 51.1512C43.2093 51.5114 43.2213 51.6317 43.5987 51.8419C45.7339 53.0426 47.8511 54.2731 49.7647 55.8041C50.9656 56.7947 52.0766 57.8454 52.8463 59.2263C53.7237 60.7872 53.7836 62.3782 52.8792 64.0292C52.9361 61.7178 51.4148 60.4271 49.9624 59.1363C48.1057 57.4853 45.9824 56.1944 43.8412 54.9636C43.2872 54.6334 42.7212 54.3332 42.1702 54.0029C41.9456 53.8529 41.8078 53.8531 41.6461 54.0932C36.8786 61.4778 29.9009 65.3801 21.5157 67.0912C20.7191 67.2713 19.9106 67.3614 19.102 67.4515C18.3174 67.5715 17.5238 67.6016 16.7422 67.6016C16.7422 67.6016 17.6376 67.3312 18.0928 67.2111C22.51 65.9803 26.6007 64.0293 30.4309 61.5378C33.234 59.7066 35.7645 57.5753 37.8698 54.9337C38.4238 54.2733 38.9299 53.5527 39.412 52.8022C39.5857 52.532 39.5498 52.4422 39.2773 52.2921C37.2199 51.1214 35.1805 49.9505 33.1202 48.8098C29.0713 46.5884 26.0138 43.3464 23.7288 39.354C22.4111 37.0426 21.5367 34.5812 21.3271 31.8796C21.2702 31.1891 21.2882 30.1683 21.4379 29.2978C21.5397 28.7575 21.7912 28.1272 21.7912 28.1272Z" fill="#ED153E"/>
<path fill-rule="evenodd" clip-rule="evenodd" d="M51.4389 46.4209C52.2459 46.3909 53.1875 46.6006 54.1439 46.6605C55.6863 46.7804 57.118 46.4207 58.3435 45.4919C59.3568 44.683 59.9874 43.6642 59.7872 42.286C59.7513 42.0463 59.6766 41.8067 59.5391 41.5969C58.762 40.3386 59.2491 38.8404 60.0024 38.0914C60.9589 37.1326 62.4534 36.863 63.649 37.4922C65.1226 38.3011 65.9176 39.5897 66.2315 41.1777C66.5961 43.0652 66.2255 44.8629 65.1106 46.4209C64.3753 47.4696 63.2335 47.799 62.0648 48.0387C60.3969 48.3682 58.6872 48.548 57.0642 49.0873C55.486 49.6266 54.0303 50.4357 52.5627 51.2147C51.8065 51.6042 51.0653 52.0836 50.1925 52.2034C48.9102 52.3832 47.8939 51.9337 47.341 50.945C46.8029 49.9862 46.9883 48.6678 47.7654 47.739C48.695 46.6305 49.9444 46.3909 51.4389 46.4209Z" fill="#186FA1"/>
<path fill-rule="evenodd" clip-rule="evenodd" d="M28.4068 32.5034C28.4727 29.3803 30.5668 26.7678 33.3859 26.1672C35.3301 25.7468 37.1456 26.9478 37.4272 28.8397C37.589 29.9208 37.0617 31.2722 36.103 31.6626C34.2337 32.4434 33.8592 34.5754 34.689 36.4072C35.3481 37.8186 36.4506 38.8097 37.8196 39.5304C38.9011 40.101 39.9856 40.6715 40.8124 41.6325C41.7411 42.6835 42.0138 43.9146 41.4955 45.2058C40.8035 46.9776 38.7723 47.398 37.3104 46.1067C36.8191 45.6863 36.4835 45.1157 36.1929 44.5451C35.6058 43.404 35.0246 42.233 34.4164 41.0618C33.5806 39.5003 32.4392 38.1789 31.1839 36.9477C30.5368 36.287 29.8927 35.6564 29.3355 34.9357C28.7573 34.1849 28.3619 33.3442 28.4068 32.5034Z" fill="#186FA1"/>
<path fill-rule="evenodd" clip-rule="evenodd" d="M51.3398 53.6027C53.9626 53.6027 56.6003 53.4828 59.217 53.0327C62.5163 52.4925 65.666 51.5321 68.5342 49.7314C71.1629 48.0808 72.7437 45.7399 73.5281 42.7688C74.3365 39.7077 74.3485 36.6765 73.1209 33.7054C72.3844 31.9347 71.2527 30.4643 69.8156 29.1738C69.7228 29.1138 69.4384 28.8436 69.3456 28.7535C70.112 29.1437 70.9204 29.684 71.5192 30.2242C73.4263 31.9648 74.594 34.1556 75.1988 36.6165C75.9712 39.7677 75.8275 42.8887 74.5161 45.8898C73.2766 48.7408 71.0371 50.5717 68.2857 51.8322C65.6899 53.0027 62.9295 53.5427 60.1032 53.7528C57.3757 53.9928 54.6512 53.9628 51.9267 53.6927C51.7321 53.6627 51.5345 53.6327 51.3398 53.6027Z" fill="#186FA1"/>
<path fill-rule="evenodd" clip-rule="evenodd" d="M34.9417 51.6659C30.8231 51.7256 26.7581 52.1439 22.8421 53.5181C19.3672 54.7429 16.3632 56.6548 14.1579 59.7018C13.5559 60.5084 13.0939 61.4044 12.7363 62.3604C12.7661 61.5837 12.9926 60.8368 13.3115 60.1199C14.7479 56.9533 17.1678 54.7428 20.2851 53.3089C22.4994 52.2932 24.8478 51.7854 27.2587 51.5165C29.5893 51.2775 32.4264 51.397 33.3711 51.4567C33.6065 51.4866 34.9417 51.6659 34.9417 51.6659Z" fill="#186FA1"/>
<path fill-rule="evenodd" clip-rule="evenodd" d="M51.8798 65.261C51.8798 65.261 50.7405 66.3346 49.2977 66.8713C47.141 67.6466 44.9456 67.9149 42.6996 67.3186C40.8106 66.8415 39.7308 65.589 39.4601 63.6806C39.2935 62.4879 39.3947 61.2951 39.6862 60.1024C39.6594 61.0566 39.7427 62.0109 40.1027 62.9054C40.9594 65.0524 42.652 66.066 44.8593 66.2449C47.1767 66.394 48.319 66.2749 49.6547 65.9767C50.9933 65.6487 51.8798 65.261 51.8798 65.261Z" fill="#186FA1"/>
<path fill-rule="evenodd" clip-rule="evenodd" d="M63.8076 32.038C62.859 32.038 62.1109 32.7577 62.105 33.6576C62.102 34.5875 62.8231 35.3374 63.7089 35.3674C64.6275 35.3674 65.4115 34.6175 65.4205 33.7176C65.4265 32.8178 64.6964 32.068 63.8076 32.038ZM61.3868 33.7176C61.3778 32.3679 62.4251 31.318 63.7538 31.318C65.0674 31.318 66.1267 32.3678 66.1297 33.6576C66.1387 34.9774 65.1063 36.0574 63.8076 36.0874C62.467 36.0874 61.3898 35.0674 61.3868 33.7176Z" fill="#186FA1"/>
<path fill-rule="evenodd" clip-rule="evenodd" d="M36.9169 24.6757C37.8226 24.6456 38.5723 23.9242 38.5723 23.0223C38.5723 22.1205 37.7866 21.309 36.9019 21.339C35.9992 21.3691 35.2554 22.0905 35.2465 22.9924C35.2375 23.8942 36.0022 24.6757 36.9169 24.6757ZM39.2801 23.0523C39.2621 24.375 38.2004 25.3971 36.8509 25.367C35.5524 25.367 34.5267 24.2848 34.5357 22.9621C34.5477 21.6695 35.6093 20.6174 36.9169 20.6174C38.2544 20.6475 39.2951 21.6995 39.2801 23.0523Z" fill="#186FA1"/>
<path fill-rule="evenodd" clip-rule="evenodd" d="M67.9353 34.9596C68.6709 34.9596 69.2749 35.589 69.257 36.3383C69.245 37.0576 68.6499 37.6273 67.9263 37.6572C67.2027 37.6572 66.5807 37.0278 66.5748 36.3084C66.5688 35.5591 67.1877 34.9596 67.9353 34.9596Z" fill="#186FA1"/>
<path fill-rule="evenodd" clip-rule="evenodd" d="M33.3339 22.6772C33.3399 23.4283 32.7374 24.0593 31.997 24.0292C31.2596 24.0292 30.6781 23.4284 30.6871 22.6472C30.6931 21.9261 31.3046 21.3249 32.054 21.355C32.7674 21.355 33.3339 21.956 33.3339 22.6772Z" fill="#186FA1"/>
<path fill-rule="evenodd" clip-rule="evenodd" d="M30.0894 24.4422C30.0864 24.9828 29.601 25.4633 29.0707 25.4332C28.5224 25.4332 28.052 24.9526 28.0729 24.412C28.0939 23.8714 28.5523 23.4209 29.0707 23.4209C29.622 23.4209 30.0984 23.9016 30.0894 24.4422Z" fill="#186FA1"/>
<path fill-rule="evenodd" clip-rule="evenodd" d="M70.2923 39.4148C70.2982 39.9537 69.8233 40.4326 69.2826 40.4326C68.7569 40.4326 68.288 39.9834 68.27 39.4744C68.2521 38.9355 68.7211 38.4265 69.2617 38.4265C69.7964 38.3965 70.2833 38.8758 70.2923 39.4148Z" fill="#186FA1"/>
<path fill-rule="evenodd" clip-rule="evenodd" d="M69.1284 41.3584C69.6031 41.3584 70.024 41.8073 70.03 42.2561C70.036 42.7648 69.6001 43.2136 69.1016 43.1836C68.618 43.1836 68.218 42.7647 68.209 42.2859C68.206 41.7772 68.6209 41.3584 69.1284 41.3584Z" fill="#186FA1"/>
<path fill-rule="evenodd" clip-rule="evenodd" d="M28.4634 26.8328C28.4634 27.3431 28.0801 27.7333 27.58 27.7333C27.0649 27.7634 26.6367 27.3431 26.6487 26.8328C26.6607 26.3525 27.0769 25.9323 27.568 25.9323C28.0651 25.9323 28.4634 26.3525 28.4634 26.8328Z" fill="#186FA1"/>
<path fill-rule="evenodd" clip-rule="evenodd" d="M27.6732 29.4153C27.6672 29.8653 27.3231 30.2255 26.8711 30.1955C26.3892 30.1955 26.048 29.8654 26.063 29.3854C26.0749 28.9354 26.464 28.5752 26.8831 28.6052C27.3111 28.6052 27.6792 28.9953 27.6732 29.4153Z" fill="#186FA1"/>
<path fill-rule="evenodd" clip-rule="evenodd" d="M68.2014 43.962C68.637 43.962 69.01 44.3509 69.01 44.7696C69.007 45.1883 68.6341 45.5771 68.2014 45.5771C67.733 45.5771 67.3809 45.218 67.3929 44.7395C67.4018 44.2909 67.7449 43.962 68.2014 43.962Z" fill="#186FA1"/>
<path d="M295.296 27.6561C294.477 27.6561 293.713 27.5033 293.003 27.1976C292.293 26.8919 291.666 26.4716 291.12 25.9367C290.585 25.3908 290.165 24.7631 289.859 24.0535C289.553 23.3439 289.4 22.5797 289.4 21.7609C289.4 20.9421 289.553 20.1779 289.859 19.4683C290.165 18.7587 290.585 18.1365 291.12 17.6015C291.666 17.0557 292.293 16.6299 293.003 16.3242C293.713 16.0186 294.477 15.8657 295.296 15.8657C296.114 15.8657 296.879 16.0186 297.588 16.3242C298.298 16.6299 298.92 17.0557 299.455 17.6015C300.001 18.1365 300.427 18.7587 300.732 19.4683C301.038 20.1779 301.191 20.9421 301.191 21.7609C301.191 22.5797 301.038 23.3439 300.732 24.0535C300.427 24.7631 300.001 25.3908 299.455 25.9367C298.92 26.4716 298.298 26.8919 297.588 27.1976C296.879 27.5033 296.114 27.6561 295.296 27.6561ZM295.296 26.4934C295.951 26.4934 296.556 26.3679 297.113 26.1168C297.67 25.8657 298.161 25.5273 298.587 25.1015C299.013 24.6648 299.346 24.1627 299.586 23.595C299.826 23.0164 299.946 22.405 299.946 21.7609C299.946 21.1168 299.826 20.5109 299.586 19.9432C299.346 19.3646 299.013 18.8624 298.587 18.4367C298.161 18 297.67 17.6561 297.113 17.405C296.556 17.1539 295.951 17.0284 295.296 17.0284C294.651 17.0284 294.046 17.1539 293.478 17.405C292.921 17.6561 292.43 18 292.004 18.4367C291.589 18.8624 291.262 19.3646 291.022 19.9432C290.781 20.5109 290.661 21.1168 290.661 21.7609C290.661 22.405 290.781 23.0164 291.022 23.595C291.262 24.1627 291.589 24.6648 292.004 25.1015C292.43 25.5273 292.921 25.8657 293.478 26.1168C294.046 26.3679 294.651 26.4934 295.296 26.4934ZM293.331 24.7413C293.09 24.7413 292.97 24.6212 292.97 24.381V19.1081C292.97 18.8679 293.09 18.7478 293.331 18.7478H295.541C295.956 18.7478 296.344 18.8133 296.704 18.9443C297.075 19.0644 297.37 19.2664 297.588 19.5502C297.817 19.8341 297.932 20.2216 297.932 20.7129C297.932 21.1496 297.828 21.5098 297.621 21.7937C297.424 22.0666 297.173 22.2686 296.868 22.3996L297.834 24.1517C297.856 24.1736 297.872 24.2063 297.883 24.25C297.894 24.2827 297.899 24.3264 297.899 24.381C297.899 24.4683 297.867 24.5502 297.801 24.6266C297.746 24.703 297.659 24.7413 297.539 24.7413H296.835C296.726 24.7413 296.633 24.714 296.556 24.6594C296.48 24.6048 296.415 24.5284 296.36 24.4301L295.443 22.6779H294.444V24.381C294.444 24.6212 294.324 24.7413 294.084 24.7413H293.331ZM294.444 21.4498H295.525C295.874 21.4498 296.114 21.3788 296.245 21.2369C296.376 21.0841 296.442 20.9094 296.442 20.7129C296.442 20.5055 296.376 20.3308 296.245 20.1889C296.114 20.036 295.874 19.9596 295.525 19.9596H294.444V21.4498Z" fill="#00719B"/>
</svg>
