<svg xmlns="http://www.w3.org/2000/svg" width="34" height="34" viewBox="0 0 34 34" fill="none">
    <g clip-path="url(#clip0_2179_39679)">
        <path fill-rule="evenodd" clip-rule="evenodd" d="M10.2495 25.3401C11.1381 24.7844 12.3254 24.3971 13.4373 23.8403C15.2446 22.9673 16.6323 21.6547 17.4378 19.869C18.0786 18.3489 18.1603 16.8533 17.0867 15.5135C16.8988 15.2812 16.6673 15.0742 16.3836 14.9397C14.7354 14.1021 14.3606 12.1884 14.746 10.9009C15.2308 9.25786 16.7445 8.00051 18.4757 7.89563C20.6299 7.80207 22.3169 8.66023 23.6472 10.1499C25.2192 11.9261 25.9094 14.0836 25.6156 16.4685C25.4348 18.0639 24.3542 19.1561 23.1883 20.17C21.5166 21.6038 19.7057 22.9049 18.2136 24.5332C16.7718 26.1324 15.6339 27.9398 14.464 29.7228C13.8539 30.6289 13.3159 31.621 12.4087 32.3151C11.0782 33.3389 9.65923 33.5191 8.42901 32.8236C7.23403 32.1503 6.63066 30.6242 6.93228 29.1294C7.29455 27.3441 8.55135 26.2779 10.2495 25.3401Z" fill="white" stroke="white" stroke-width="1.2"/>
        <path fill-rule="evenodd" clip-rule="evenodd" d="M15.2969 1.97618C14.2308 2.59172 13.8331 3.84463 14.3804 4.8081C14.9495 5.80161 16.2218 6.13337 17.2358 5.59059C18.2683 4.99446 18.6878 3.68607 18.1438 2.72066C17.5965 1.75719 16.3143 1.43146 15.2969 1.97618ZM13.6102 5.33817C12.7691 3.90462 13.2999 2.10547 14.7931 1.24333C16.2696 0.390889 18.1065 0.822965 18.9039 2.19643C19.7266 3.59799 19.2312 5.41959 17.79 6.29431C16.2833 7.16422 14.4446 6.7756 13.6102 5.33817Z" fill="white" stroke="white" stroke-width="0.5"/>
        <path fill-rule="evenodd" clip-rule="evenodd" d="M21.7346 2.41336C22.5613 1.93604 23.6277 2.21517 24.0689 3.02587C24.4983 3.80072 24.1802 4.79427 23.3853 5.29579C22.572 5.76535 21.4855 5.49773 21.0359 4.73452C20.5678 3.93934 20.8944 2.89844 21.7346 2.41336Z" fill="white" stroke="white" stroke-width="0.5"/>
        <path fill-rule="evenodd" clip-rule="evenodd" d="M27.1277 5.63501C27.4662 6.20585 27.2273 7.02472 26.6196 7.37555C26.0287 7.71669 25.2251 7.54201 24.8916 7.01085C24.5396 6.44776 24.7534 5.60064 25.361 5.24981C25.9435 4.87093 26.7858 5.06611 27.1277 5.63501Z" fill="white" stroke="white" stroke-width="0.5"/>
        <path fill-rule="evenodd" clip-rule="evenodd" d="M27.0157 8.46209C27.5492 8.15409 28.2986 8.35959 28.5817 8.83436C28.9016 9.37295 28.688 10.1343 28.1093 10.4259C27.5657 10.7397 26.8582 10.5525 26.5534 10.0478C26.2368 9.50726 26.4454 8.7914 27.0157 8.46209Z" fill="white" stroke="white" stroke-width="0.5"/>
        <path fill-rule="evenodd" clip-rule="evenodd" d="M27.5766 11.8412C28.0662 11.5585 28.7248 11.7312 28.9826 12.1777C29.237 12.6261 29.0572 13.2828 28.571 13.5635C28.0445 13.8675 27.4277 13.713 27.1465 13.1949C26.8803 12.7108 27.0635 12.1374 27.5766 11.8412Z" fill="white" stroke="white" stroke-width="0.5"/>
    </g>
    <defs>
        <clipPath id="clip0_2179_39679">
            <rect width="34" height="34" fill="white"/>
        </clipPath>
    </defs>
</svg>