<svg width="34" height="34" viewBox="0 0 34 34" fill="none" xmlns="http://www.w3.org/2000/svg">
<g clip-path="url(#clip0_1500_14736)">
<path d="M19.8589 24.8336C19.8589 24.8336 23.3361 22.5734 24.0316 22.2257C24.7271 21.8779 25.5094 21.7041 25.9441 22.0518C26.6396 22.4865 32.464 26.3114 32.9856 26.6592C33.5072 27.0069 33.681 27.9632 33.0725 28.9194C32.3771 29.8757 29.3344 33.7007 28.0305 33.6137C26.7265 33.6137 20.7282 33.9614 10.3833 23.7035C0.0384182 13.3586 0.386145 7.36031 0.386145 6.05633C0.386145 4.75236 4.12421 1.62281 5.08046 1.01429C6.03671 0.318832 6.99296 0.579627 7.34069 1.10122C7.68842 1.62281 11.5134 7.44724 11.9481 8.1427C12.2089 8.57736 12.1219 9.35974 11.7742 10.0552C11.4265 10.7507 9.16626 14.2279 9.16626 14.2279C9.16626 14.2279 9.77478 16.662 13.5128 20.487C17.3378 24.2251 19.8589 24.8336 19.8589 24.8336Z" fill="white"/>
<path d="M27.3358 3.1875H18.6426V6.66477H27.3358C28.292 6.66477 29.0744 7.44716 29.0744 8.40341V17.0966H32.5517V8.40341C32.5517 5.53466 30.2045 3.1875 27.3358 3.1875Z" fill="white"/>
<path d="M21.2502 9.27277L15.4258 4.92618L21.2502 0.57959V9.27277Z" fill="white"/>
</g>
<defs>
<clipPath id="clip0_1500_14736">
<rect width="34" height="34" fill="white"/>
</clipPath>
</defs>
</svg>
