<svg width="24" height="24" viewBox="0 0 24 24" fill="none" xmlns="http://www.w3.org/2000/svg">
<path d="M18.1799 7.33748V6.13038L17.3263 6.98393L6.98393 17.3263L6.13038 18.1799H7.33748H11.9999C12.0582 18.1799 12.1142 18.2031 12.1554 18.2443C12.1967 18.2856 12.2199 18.3415 12.2199 18.3999C12.2199 18.4582 12.1967 18.5142 12.1554 18.5554C12.1142 18.5967 12.0582 18.6199 11.9999 18.6199H5.59988C5.54153 18.6199 5.48558 18.5967 5.44432 18.5554C5.40306 18.5142 5.37988 18.4582 5.37988 18.3999V11.9999C5.37988 11.971 5.38557 11.9424 5.39663 11.9157C5.40769 11.889 5.42389 11.8647 5.44432 11.8443C5.46475 11.8239 5.489 11.8077 5.51569 11.7966C5.54238 11.7856 5.57099 11.7799 5.59988 11.7799C5.62877 11.7799 5.65738 11.7856 5.68407 11.7966C5.71077 11.8077 5.73502 11.8239 5.75545 11.8443C5.77587 11.8647 5.79208 11.889 5.80314 11.9157C5.81419 11.9424 5.81988 11.971 5.81988 11.9999V16.6623V17.8694L6.67344 17.0158L17.0158 6.67344L17.8694 5.81988H16.6623H11.9999C11.9415 5.81988 11.8856 5.7967 11.8443 5.75545C11.8031 5.71419 11.7799 5.65823 11.7799 5.59988C11.7799 5.54153 11.8031 5.48558 11.8443 5.44432L11.4941 5.09413L11.8443 5.44432C11.8856 5.40306 11.9415 5.37988 11.9999 5.37988H18.3999C18.4582 5.37988 18.5142 5.40306 18.5554 5.44432C18.5967 5.48558 18.6199 5.54153 18.6199 5.59988V11.9999C18.6199 12.0582 18.5967 12.1142 18.5554 12.1554C18.5142 12.1967 18.4582 12.2199 18.3999 12.2199C18.3415 12.2199 18.2856 12.1967 18.2443 12.1554C18.2031 12.1142 18.1799 12.0582 18.1799 11.9999V7.33748Z" fill="#06739A" stroke="#06739A"/>
</svg>
