<svg width="37" height="35" viewBox="0 0 37 35" fill="none"
    xmlns="http://www.w3.org/2000/svg">
    <path d="M17.3998 0.927052C17.6991 0.0057416 19.0025 0.00574017 19.3019 0.927051L22.8411 11.8197C22.975 12.2317 23.3589 12.5106 23.7922 12.5106H35.2453C36.2141 12.5106 36.6168 13.7503 35.8331 14.3197L26.5673 21.0517C26.2168 21.3063 26.0702 21.7577 26.204 22.1697L29.7433 33.0623C30.0426 33.9836 28.9881 34.7497 28.2044 34.1803L18.9386 27.4483C18.5881 27.1937 18.1135 27.1937 17.763 27.4483L8.49724 34.1803C7.71352 34.7497 6.65904 33.9836 6.9584 33.0623L10.4976 22.1697C10.6315 21.7577 10.4848 21.3063 10.1343 21.0517L0.868542 14.3197C0.0848289 13.7503 0.487603 12.5106 1.45633 12.5106H12.9095C13.3427 12.5106 13.7267 12.2317 13.8605 11.8197L17.3998 0.927052Z" fill="currentColor"/>
</svg>
