<svg width="68" height="68" viewBox="0 0 68 68" fill="none"
    xmlns="http://www.w3.org/2000/svg">
    <g filter="url(#filter0_d_1844_39738)">
        <circle cx="34" cy="34" r="28" fill="#EC1940"/>
    </g>
    <path d="M48 33.9344C48 34.0031 48 34.0813 47.9969 34.1719C47.9938 34.425 47.9875 34.7094 47.9813 35.0125C47.9563 35.8844 47.9125 36.7531 47.8438 37.5719C47.75 38.7 47.6125 39.6406 47.425 40.3469C47.2271 41.0839 46.8393 41.7561 46.3002 42.2963C45.7612 42.8364 45.0898 43.2256 44.3531 43.425C43.4688 43.6625 41.7375 43.8094 39.3 43.9C38.1406 43.9438 36.9 43.9719 35.6594 43.9875C35.225 43.9938 34.8219 43.9969 34.4594 44H33.5406C33.1781 43.9969 32.775 43.9938 32.3406 43.9875C31.1 43.9719 29.8594 43.9438 28.7 43.9C26.2625 43.8063 24.5281 43.6594 23.6469 43.425C22.91 43.2261 22.2383 42.8371 21.6992 42.2968C21.1601 41.7566 20.7724 41.0841 20.575 40.3469C20.3844 39.6406 20.25 38.7 20.1562 37.5719C20.0875 36.7531 20.0437 35.8844 20.0187 35.0125C20.0094 34.7094 20.0062 34.425 20.0031 34.1719C20.0031 34.0813 20 34.0031 20 33.9344V33.7594C20 33.6906 20 33.6125 20.0031 33.5219C20.0062 33.2687 20.0125 32.9844 20.0187 32.6813C20.0437 31.8094 20.0875 30.9406 20.1562 30.1219C20.25 28.9937 20.3875 28.0531 20.575 27.3469C20.975 25.85 22.15 24.6687 23.6469 24.2687C24.5281 24.0312 26.2625 23.8844 28.7 23.7938C29.8594 23.75 31.1 23.7219 32.3406 23.7062C32.775 23.7 33.1781 23.6969 33.5406 23.6937H34.4594C34.8219 23.6969 35.225 23.7 35.6594 23.7062C36.9 23.7219 38.1406 23.75 39.3 23.7938C41.7375 23.8875 43.4719 24.0344 44.3531 24.2687C45.85 24.6687 47.025 25.8469 47.425 27.3469C47.6156 28.0531 47.75 28.9937 47.8438 30.1219C47.9125 30.9406 47.9563 31.8094 47.9813 32.6813C47.9906 32.9844 47.9938 33.2687 47.9969 33.5219C47.9969 33.6125 48 33.6906 48 33.7594V33.9344ZM45.75 33.7719C45.75 33.7062 45.75 33.6344 45.7469 33.55C45.7438 33.3063 45.7375 33.0375 45.7313 32.7469C45.7094 31.9156 45.6656 31.0844 45.6 30.3125C45.5156 29.3063 45.3969 28.4812 45.25 27.9281C45.0562 27.2062 44.4875 26.6344 43.7687 26.4437C43.1125 26.2687 41.4594 26.1281 39.2125 26.0438C38.075 26 36.85 25.9719 35.6281 25.9562C35.2 25.95 34.8031 25.9469 34.4469 25.9469H33.5531L32.3719 25.9562C31.15 25.9719 29.9281 26 28.7875 26.0438C26.5406 26.1313 24.8844 26.2687 24.2312 26.4437C23.5125 26.6375 22.9437 27.2062 22.75 27.9281C22.6031 28.4812 22.4844 29.3063 22.4 30.3125C22.3344 31.0844 22.2938 31.9156 22.2688 32.7469C22.2594 33.0375 22.2563 33.3094 22.2531 33.55C22.2531 33.6344 22.25 33.7094 22.25 33.7719V33.9219C22.25 33.9875 22.25 34.0594 22.2531 34.1438C22.2563 34.3875 22.2625 34.6563 22.2688 34.9469C22.2906 35.7781 22.3344 36.6094 22.4 37.3813C22.4844 38.3875 22.6031 39.2125 22.75 39.7656C22.9437 40.4875 23.5125 41.0594 24.2312 41.25C24.8875 41.425 26.5406 41.5656 28.7875 41.65C29.925 41.6938 31.15 41.7219 32.3719 41.7375C32.8 41.7438 33.1969 41.7469 33.5531 41.7469H34.4469L35.6281 41.7375C36.85 41.7219 38.0719 41.6938 39.2125 41.65C41.4594 41.5625 43.1156 41.425 43.7687 41.25C44.4875 41.0563 45.0562 40.4875 45.25 39.7656C45.3969 39.2125 45.5156 38.3875 45.6 37.3813C45.6656 36.6094 45.7063 35.7781 45.7313 34.9469C45.7406 34.6563 45.7438 34.3844 45.7469 34.1438C45.7469 34.0594 45.75 33.9844 45.75 33.9219V33.7719ZM31.2188 29.6594L38.4688 33.8781L31.2188 38.0344V29.6594Z" fill="white"/>
    <defs>
        <filter id="filter0_d_1844_39738" x="0" y="0" width="68" height="68" filterUnits="userSpaceOnUse" color-interpolation-filters="sRGB">
            <feFlood flood-opacity="0" result="BackgroundImageFix"/>
            <feColorMatrix in="SourceAlpha" type="matrix" values="0 0 0 0 0 0 0 0 0 0 0 0 0 0 0 0 0 0 127 0" result="hardAlpha"/>
            <feOffset/>
            <feGaussianBlur stdDeviation="3"/>
            <feComposite in2="hardAlpha" operator="out"/>
            <feColorMatrix type="matrix" values="0 0 0 0 0 0 0 0 0 0.443137 0 0 0 0 0.607843 0 0 0 0.23 0"/>
            <feBlend mode="normal" in2="BackgroundImageFix" result="effect1_dropShadow_1844_39738"/>
            <feBlend mode="normal" in="SourceGraphic" in2="effect1_dropShadow_1844_39738" result="shape"/>
        </filter>
    </defs>
</svg>
